%TF.GenerationSoftware,KiCad,Pcbnew,(5.1.7-0-10_14)*%
%TF.CreationDate,2020-10-15T21:04:02+02:00*%
%TF.ProjectId,Co2-Sensor,436f322d-5365-46e7-936f-722e6b696361,rev?*%
%TF.SameCoordinates,Original*%
%TF.FileFunction,Soldermask,Top*%
%TF.FilePolarity,Negative*%
%FSLAX46Y46*%
G04 Gerber Fmt 4.6, Leading zero omitted, Abs format (unit mm)*
G04 Created by KiCad (PCBNEW (5.1.7-0-10_14)) date 2020-10-15 21:04:02*
%MOMM*%
%LPD*%
G01*
G04 APERTURE LIST*
%ADD10C,1.300000*%
%ADD11C,1.700000*%
%ADD12C,2.800000*%
%ADD13R,1.700000X1.700000*%
%ADD14R,1.000000X1.400000*%
%ADD15R,1.200000X1.400000*%
%ADD16R,0.900000X0.800000*%
%ADD17R,1.000000X0.750000*%
%ADD18R,0.300000X1.150000*%
%ADD19C,0.650000*%
%ADD20O,1.000000X1.600000*%
%ADD21O,1.000000X2.100000*%
%ADD22R,0.500000X0.350000*%
%ADD23R,3.350000X3.350000*%
%ADD24O,1.700000X1.700000*%
%ADD25C,3.200000*%
%ADD26R,0.650000X1.060000*%
%ADD27R,0.800000X0.900000*%
%ADD28R,2.000000X1.500000*%
%ADD29R,2.000000X3.800000*%
%ADD30R,2.000000X0.900000*%
%ADD31R,0.900000X2.000000*%
%ADD32R,5.000000X5.000000*%
%ADD33R,1.800000X2.500000*%
G04 APERTURE END LIST*
%TO.C,C4*%
G36*
G01*
X138956250Y-78550000D02*
X138043750Y-78550000D01*
G75*
G02*
X137800000Y-78306250I0J243750D01*
G01*
X137800000Y-77818750D01*
G75*
G02*
X138043750Y-77575000I243750J0D01*
G01*
X138956250Y-77575000D01*
G75*
G02*
X139200000Y-77818750I0J-243750D01*
G01*
X139200000Y-78306250D01*
G75*
G02*
X138956250Y-78550000I-243750J0D01*
G01*
G37*
G36*
G01*
X138956250Y-80425000D02*
X138043750Y-80425000D01*
G75*
G02*
X137800000Y-80181250I0J243750D01*
G01*
X137800000Y-79693750D01*
G75*
G02*
X138043750Y-79450000I243750J0D01*
G01*
X138956250Y-79450000D01*
G75*
G02*
X139200000Y-79693750I0J-243750D01*
G01*
X139200000Y-80181250D01*
G75*
G02*
X138956250Y-80425000I-243750J0D01*
G01*
G37*
%TD*%
%TO.C,C15*%
G36*
G01*
X136956250Y-78550000D02*
X136043750Y-78550000D01*
G75*
G02*
X135800000Y-78306250I0J243750D01*
G01*
X135800000Y-77818750D01*
G75*
G02*
X136043750Y-77575000I243750J0D01*
G01*
X136956250Y-77575000D01*
G75*
G02*
X137200000Y-77818750I0J-243750D01*
G01*
X137200000Y-78306250D01*
G75*
G02*
X136956250Y-78550000I-243750J0D01*
G01*
G37*
G36*
G01*
X136956250Y-80425000D02*
X136043750Y-80425000D01*
G75*
G02*
X135800000Y-80181250I0J243750D01*
G01*
X135800000Y-79693750D01*
G75*
G02*
X136043750Y-79450000I243750J0D01*
G01*
X136956250Y-79450000D01*
G75*
G02*
X137200000Y-79693750I0J-243750D01*
G01*
X137200000Y-80181250D01*
G75*
G02*
X136956250Y-80425000I-243750J0D01*
G01*
G37*
%TD*%
%TO.C,C14*%
G36*
G01*
X134956250Y-78550000D02*
X134043750Y-78550000D01*
G75*
G02*
X133800000Y-78306250I0J243750D01*
G01*
X133800000Y-77818750D01*
G75*
G02*
X134043750Y-77575000I243750J0D01*
G01*
X134956250Y-77575000D01*
G75*
G02*
X135200000Y-77818750I0J-243750D01*
G01*
X135200000Y-78306250D01*
G75*
G02*
X134956250Y-78550000I-243750J0D01*
G01*
G37*
G36*
G01*
X134956250Y-80425000D02*
X134043750Y-80425000D01*
G75*
G02*
X133800000Y-80181250I0J243750D01*
G01*
X133800000Y-79693750D01*
G75*
G02*
X134043750Y-79450000I243750J0D01*
G01*
X134956250Y-79450000D01*
G75*
G02*
X135200000Y-79693750I0J-243750D01*
G01*
X135200000Y-80181250D01*
G75*
G02*
X134956250Y-80425000I-243750J0D01*
G01*
G37*
%TD*%
%TO.C,C13*%
G36*
G01*
X169750000Y-116825000D02*
X170250000Y-116825000D01*
G75*
G02*
X170475000Y-117050000I0J-225000D01*
G01*
X170475000Y-117500000D01*
G75*
G02*
X170250000Y-117725000I-225000J0D01*
G01*
X169750000Y-117725000D01*
G75*
G02*
X169525000Y-117500000I0J225000D01*
G01*
X169525000Y-117050000D01*
G75*
G02*
X169750000Y-116825000I225000J0D01*
G01*
G37*
G36*
G01*
X169750000Y-115275000D02*
X170250000Y-115275000D01*
G75*
G02*
X170475000Y-115500000I0J-225000D01*
G01*
X170475000Y-115950000D01*
G75*
G02*
X170250000Y-116175000I-225000J0D01*
G01*
X169750000Y-116175000D01*
G75*
G02*
X169525000Y-115950000I0J225000D01*
G01*
X169525000Y-115500000D01*
G75*
G02*
X169750000Y-115275000I225000J0D01*
G01*
G37*
%TD*%
%TO.C,C12*%
G36*
G01*
X159750000Y-116825000D02*
X160250000Y-116825000D01*
G75*
G02*
X160475000Y-117050000I0J-225000D01*
G01*
X160475000Y-117500000D01*
G75*
G02*
X160250000Y-117725000I-225000J0D01*
G01*
X159750000Y-117725000D01*
G75*
G02*
X159525000Y-117500000I0J225000D01*
G01*
X159525000Y-117050000D01*
G75*
G02*
X159750000Y-116825000I225000J0D01*
G01*
G37*
G36*
G01*
X159750000Y-115275000D02*
X160250000Y-115275000D01*
G75*
G02*
X160475000Y-115500000I0J-225000D01*
G01*
X160475000Y-115950000D01*
G75*
G02*
X160250000Y-116175000I-225000J0D01*
G01*
X159750000Y-116175000D01*
G75*
G02*
X159525000Y-115950000I0J225000D01*
G01*
X159525000Y-115500000D01*
G75*
G02*
X159750000Y-115275000I225000J0D01*
G01*
G37*
%TD*%
%TO.C,C11*%
G36*
G01*
X149750000Y-116825000D02*
X150250000Y-116825000D01*
G75*
G02*
X150475000Y-117050000I0J-225000D01*
G01*
X150475000Y-117500000D01*
G75*
G02*
X150250000Y-117725000I-225000J0D01*
G01*
X149750000Y-117725000D01*
G75*
G02*
X149525000Y-117500000I0J225000D01*
G01*
X149525000Y-117050000D01*
G75*
G02*
X149750000Y-116825000I225000J0D01*
G01*
G37*
G36*
G01*
X149750000Y-115275000D02*
X150250000Y-115275000D01*
G75*
G02*
X150475000Y-115500000I0J-225000D01*
G01*
X150475000Y-115950000D01*
G75*
G02*
X150250000Y-116175000I-225000J0D01*
G01*
X149750000Y-116175000D01*
G75*
G02*
X149525000Y-115950000I0J225000D01*
G01*
X149525000Y-115500000D01*
G75*
G02*
X149750000Y-115275000I225000J0D01*
G01*
G37*
%TD*%
%TO.C,C10*%
G36*
G01*
X139750000Y-116825000D02*
X140250000Y-116825000D01*
G75*
G02*
X140475000Y-117050000I0J-225000D01*
G01*
X140475000Y-117500000D01*
G75*
G02*
X140250000Y-117725000I-225000J0D01*
G01*
X139750000Y-117725000D01*
G75*
G02*
X139525000Y-117500000I0J225000D01*
G01*
X139525000Y-117050000D01*
G75*
G02*
X139750000Y-116825000I225000J0D01*
G01*
G37*
G36*
G01*
X139750000Y-115275000D02*
X140250000Y-115275000D01*
G75*
G02*
X140475000Y-115500000I0J-225000D01*
G01*
X140475000Y-115950000D01*
G75*
G02*
X140250000Y-116175000I-225000J0D01*
G01*
X139750000Y-116175000D01*
G75*
G02*
X139525000Y-115950000I0J225000D01*
G01*
X139525000Y-115500000D01*
G75*
G02*
X139750000Y-115275000I225000J0D01*
G01*
G37*
%TD*%
D10*
%TO.C,REF\u002A\u002A*%
X171000000Y-128000000D03*
%TD*%
%TO.C,REF\u002A\u002A*%
X129000000Y-128000000D03*
%TD*%
%TO.C,REF\u002A\u002A*%
X129000000Y-75000000D03*
%TD*%
%TO.C,REF\u002A\u002A*%
X171000000Y-75000000D03*
%TD*%
D11*
%TO.C,J1*%
X142380000Y-112700000D03*
X144920000Y-112700000D03*
X147460000Y-112700000D03*
D12*
X131100000Y-79200000D03*
X169100000Y-79200000D03*
X131100000Y-112200000D03*
X169100000Y-112200000D03*
D11*
X150000000Y-112700000D03*
X152540000Y-112700000D03*
X155080000Y-112700000D03*
D13*
X157620000Y-112700000D03*
%TD*%
%TO.C,C7*%
G36*
G01*
X157350000Y-104256250D02*
X157350000Y-103743750D01*
G75*
G02*
X157568750Y-103525000I218750J0D01*
G01*
X158006250Y-103525000D01*
G75*
G02*
X158225000Y-103743750I0J-218750D01*
G01*
X158225000Y-104256250D01*
G75*
G02*
X158006250Y-104475000I-218750J0D01*
G01*
X157568750Y-104475000D01*
G75*
G02*
X157350000Y-104256250I0J218750D01*
G01*
G37*
G36*
G01*
X155775000Y-104256250D02*
X155775000Y-103743750D01*
G75*
G02*
X155993750Y-103525000I218750J0D01*
G01*
X156431250Y-103525000D01*
G75*
G02*
X156650000Y-103743750I0J-218750D01*
G01*
X156650000Y-104256250D01*
G75*
G02*
X156431250Y-104475000I-218750J0D01*
G01*
X155993750Y-104475000D01*
G75*
G02*
X155775000Y-104256250I0J218750D01*
G01*
G37*
%TD*%
D14*
%TO.C,D3*%
X150950000Y-124600000D03*
X149050000Y-124600000D03*
X149050000Y-122400000D03*
D15*
X150770000Y-122400000D03*
%TD*%
%TO.C,F1*%
G36*
G01*
X140925000Y-124525000D02*
X143075000Y-124525000D01*
G75*
G02*
X143325000Y-124775000I0J-250000D01*
G01*
X143325000Y-125525000D01*
G75*
G02*
X143075000Y-125775000I-250000J0D01*
G01*
X140925000Y-125775000D01*
G75*
G02*
X140675000Y-125525000I0J250000D01*
G01*
X140675000Y-124775000D01*
G75*
G02*
X140925000Y-124525000I250000J0D01*
G01*
G37*
G36*
G01*
X140925000Y-121725000D02*
X143075000Y-121725000D01*
G75*
G02*
X143325000Y-121975000I0J-250000D01*
G01*
X143325000Y-122725000D01*
G75*
G02*
X143075000Y-122975000I-250000J0D01*
G01*
X140925000Y-122975000D01*
G75*
G02*
X140675000Y-122725000I0J250000D01*
G01*
X140675000Y-121975000D01*
G75*
G02*
X140925000Y-121725000I250000J0D01*
G01*
G37*
%TD*%
%TO.C,C1*%
G36*
G01*
X129700000Y-119706250D02*
X129700000Y-118793750D01*
G75*
G02*
X129943750Y-118550000I243750J0D01*
G01*
X130431250Y-118550000D01*
G75*
G02*
X130675000Y-118793750I0J-243750D01*
G01*
X130675000Y-119706250D01*
G75*
G02*
X130431250Y-119950000I-243750J0D01*
G01*
X129943750Y-119950000D01*
G75*
G02*
X129700000Y-119706250I0J243750D01*
G01*
G37*
G36*
G01*
X127825000Y-119706250D02*
X127825000Y-118793750D01*
G75*
G02*
X128068750Y-118550000I243750J0D01*
G01*
X128556250Y-118550000D01*
G75*
G02*
X128800000Y-118793750I0J-243750D01*
G01*
X128800000Y-119706250D01*
G75*
G02*
X128556250Y-119950000I-243750J0D01*
G01*
X128068750Y-119950000D01*
G75*
G02*
X127825000Y-119706250I0J243750D01*
G01*
G37*
%TD*%
%TO.C,R20*%
G36*
G01*
X165743750Y-112850000D02*
X166256250Y-112850000D01*
G75*
G02*
X166475000Y-113068750I0J-218750D01*
G01*
X166475000Y-113506250D01*
G75*
G02*
X166256250Y-113725000I-218750J0D01*
G01*
X165743750Y-113725000D01*
G75*
G02*
X165525000Y-113506250I0J218750D01*
G01*
X165525000Y-113068750D01*
G75*
G02*
X165743750Y-112850000I218750J0D01*
G01*
G37*
G36*
G01*
X165743750Y-111275000D02*
X166256250Y-111275000D01*
G75*
G02*
X166475000Y-111493750I0J-218750D01*
G01*
X166475000Y-111931250D01*
G75*
G02*
X166256250Y-112150000I-218750J0D01*
G01*
X165743750Y-112150000D01*
G75*
G02*
X165525000Y-111931250I0J218750D01*
G01*
X165525000Y-111493750D01*
G75*
G02*
X165743750Y-111275000I218750J0D01*
G01*
G37*
%TD*%
D16*
%TO.C,Q4*%
X162000000Y-112500000D03*
X164000000Y-111550000D03*
X164000000Y-113450000D03*
%TD*%
D11*
%TO.C,J2*%
X149140000Y-108890000D03*
X146600000Y-108890000D03*
X144060000Y-108890000D03*
X141520000Y-108890000D03*
X138980000Y-108890000D03*
X136440000Y-108890000D03*
D13*
X133900000Y-108890000D03*
%TD*%
D17*
%TO.C,SW4*%
X168000000Y-119875000D03*
X162000000Y-119875000D03*
X168000000Y-116125000D03*
X162000000Y-116125000D03*
%TD*%
%TO.C,SW3*%
X158000000Y-119875000D03*
X152000000Y-119875000D03*
X158000000Y-116125000D03*
X152000000Y-116125000D03*
%TD*%
%TO.C,SW2*%
X148000000Y-119875000D03*
X142000000Y-119875000D03*
X148000000Y-116125000D03*
X142000000Y-116125000D03*
%TD*%
%TO.C,SW1*%
X138000000Y-119875000D03*
X132000000Y-119875000D03*
X138000000Y-116125000D03*
X132000000Y-116125000D03*
%TD*%
D18*
%TO.C,J5*%
X153350000Y-127830000D03*
X152550000Y-127830000D03*
X147750000Y-127830000D03*
X146950000Y-127830000D03*
X146650000Y-127830000D03*
X147450000Y-127830000D03*
X148250000Y-127830000D03*
X148750000Y-127830000D03*
X149250000Y-127830000D03*
X149750000Y-127830000D03*
X150250000Y-127830000D03*
X150750000Y-127830000D03*
X151250000Y-127830000D03*
X151750000Y-127830000D03*
X152250000Y-127830000D03*
X153050000Y-127830000D03*
D19*
X147110000Y-128895000D03*
X152890000Y-128895000D03*
D20*
X154320000Y-132575000D03*
X145680000Y-132575000D03*
D21*
X154320000Y-128395000D03*
X145680000Y-128395000D03*
%TD*%
%TO.C,C9*%
G36*
G01*
X130506250Y-115900000D02*
X129993750Y-115900000D01*
G75*
G02*
X129775000Y-115681250I0J218750D01*
G01*
X129775000Y-115243750D01*
G75*
G02*
X129993750Y-115025000I218750J0D01*
G01*
X130506250Y-115025000D01*
G75*
G02*
X130725000Y-115243750I0J-218750D01*
G01*
X130725000Y-115681250D01*
G75*
G02*
X130506250Y-115900000I-218750J0D01*
G01*
G37*
G36*
G01*
X130506250Y-117475000D02*
X129993750Y-117475000D01*
G75*
G02*
X129775000Y-117256250I0J218750D01*
G01*
X129775000Y-116818750D01*
G75*
G02*
X129993750Y-116600000I218750J0D01*
G01*
X130506250Y-116600000D01*
G75*
G02*
X130725000Y-116818750I0J-218750D01*
G01*
X130725000Y-117256250D01*
G75*
G02*
X130506250Y-117475000I-218750J0D01*
G01*
G37*
%TD*%
D22*
%TO.C,U4*%
X134200000Y-111525000D03*
X135800000Y-112175000D03*
X135800000Y-112825000D03*
X135800000Y-113475000D03*
X134200000Y-112175000D03*
X134200000Y-112825000D03*
X134200000Y-113475000D03*
X135800000Y-111525000D03*
%TD*%
D23*
%TO.C,U3*%
X161000000Y-128500000D03*
G36*
G01*
X159375000Y-126387500D02*
X159375000Y-125712500D01*
G75*
G02*
X159437500Y-125650000I62500J0D01*
G01*
X159562500Y-125650000D01*
G75*
G02*
X159625000Y-125712500I0J-62500D01*
G01*
X159625000Y-126387500D01*
G75*
G02*
X159562500Y-126450000I-62500J0D01*
G01*
X159437500Y-126450000D01*
G75*
G02*
X159375000Y-126387500I0J62500D01*
G01*
G37*
G36*
G01*
X159875000Y-126387500D02*
X159875000Y-125712500D01*
G75*
G02*
X159937500Y-125650000I62500J0D01*
G01*
X160062500Y-125650000D01*
G75*
G02*
X160125000Y-125712500I0J-62500D01*
G01*
X160125000Y-126387500D01*
G75*
G02*
X160062500Y-126450000I-62500J0D01*
G01*
X159937500Y-126450000D01*
G75*
G02*
X159875000Y-126387500I0J62500D01*
G01*
G37*
G36*
G01*
X160375000Y-126387500D02*
X160375000Y-125712500D01*
G75*
G02*
X160437500Y-125650000I62500J0D01*
G01*
X160562500Y-125650000D01*
G75*
G02*
X160625000Y-125712500I0J-62500D01*
G01*
X160625000Y-126387500D01*
G75*
G02*
X160562500Y-126450000I-62500J0D01*
G01*
X160437500Y-126450000D01*
G75*
G02*
X160375000Y-126387500I0J62500D01*
G01*
G37*
G36*
G01*
X160875000Y-126387500D02*
X160875000Y-125712500D01*
G75*
G02*
X160937500Y-125650000I62500J0D01*
G01*
X161062500Y-125650000D01*
G75*
G02*
X161125000Y-125712500I0J-62500D01*
G01*
X161125000Y-126387500D01*
G75*
G02*
X161062500Y-126450000I-62500J0D01*
G01*
X160937500Y-126450000D01*
G75*
G02*
X160875000Y-126387500I0J62500D01*
G01*
G37*
G36*
G01*
X161375000Y-126387500D02*
X161375000Y-125712500D01*
G75*
G02*
X161437500Y-125650000I62500J0D01*
G01*
X161562500Y-125650000D01*
G75*
G02*
X161625000Y-125712500I0J-62500D01*
G01*
X161625000Y-126387500D01*
G75*
G02*
X161562500Y-126450000I-62500J0D01*
G01*
X161437500Y-126450000D01*
G75*
G02*
X161375000Y-126387500I0J62500D01*
G01*
G37*
G36*
G01*
X161875000Y-126387500D02*
X161875000Y-125712500D01*
G75*
G02*
X161937500Y-125650000I62500J0D01*
G01*
X162062500Y-125650000D01*
G75*
G02*
X162125000Y-125712500I0J-62500D01*
G01*
X162125000Y-126387500D01*
G75*
G02*
X162062500Y-126450000I-62500J0D01*
G01*
X161937500Y-126450000D01*
G75*
G02*
X161875000Y-126387500I0J62500D01*
G01*
G37*
G36*
G01*
X162375000Y-126387500D02*
X162375000Y-125712500D01*
G75*
G02*
X162437500Y-125650000I62500J0D01*
G01*
X162562500Y-125650000D01*
G75*
G02*
X162625000Y-125712500I0J-62500D01*
G01*
X162625000Y-126387500D01*
G75*
G02*
X162562500Y-126450000I-62500J0D01*
G01*
X162437500Y-126450000D01*
G75*
G02*
X162375000Y-126387500I0J62500D01*
G01*
G37*
G36*
G01*
X163050000Y-127062500D02*
X163050000Y-126937500D01*
G75*
G02*
X163112500Y-126875000I62500J0D01*
G01*
X163787500Y-126875000D01*
G75*
G02*
X163850000Y-126937500I0J-62500D01*
G01*
X163850000Y-127062500D01*
G75*
G02*
X163787500Y-127125000I-62500J0D01*
G01*
X163112500Y-127125000D01*
G75*
G02*
X163050000Y-127062500I0J62500D01*
G01*
G37*
G36*
G01*
X163050000Y-127562500D02*
X163050000Y-127437500D01*
G75*
G02*
X163112500Y-127375000I62500J0D01*
G01*
X163787500Y-127375000D01*
G75*
G02*
X163850000Y-127437500I0J-62500D01*
G01*
X163850000Y-127562500D01*
G75*
G02*
X163787500Y-127625000I-62500J0D01*
G01*
X163112500Y-127625000D01*
G75*
G02*
X163050000Y-127562500I0J62500D01*
G01*
G37*
G36*
G01*
X163050000Y-128062500D02*
X163050000Y-127937500D01*
G75*
G02*
X163112500Y-127875000I62500J0D01*
G01*
X163787500Y-127875000D01*
G75*
G02*
X163850000Y-127937500I0J-62500D01*
G01*
X163850000Y-128062500D01*
G75*
G02*
X163787500Y-128125000I-62500J0D01*
G01*
X163112500Y-128125000D01*
G75*
G02*
X163050000Y-128062500I0J62500D01*
G01*
G37*
G36*
G01*
X163050000Y-128562500D02*
X163050000Y-128437500D01*
G75*
G02*
X163112500Y-128375000I62500J0D01*
G01*
X163787500Y-128375000D01*
G75*
G02*
X163850000Y-128437500I0J-62500D01*
G01*
X163850000Y-128562500D01*
G75*
G02*
X163787500Y-128625000I-62500J0D01*
G01*
X163112500Y-128625000D01*
G75*
G02*
X163050000Y-128562500I0J62500D01*
G01*
G37*
G36*
G01*
X163050000Y-129062500D02*
X163050000Y-128937500D01*
G75*
G02*
X163112500Y-128875000I62500J0D01*
G01*
X163787500Y-128875000D01*
G75*
G02*
X163850000Y-128937500I0J-62500D01*
G01*
X163850000Y-129062500D01*
G75*
G02*
X163787500Y-129125000I-62500J0D01*
G01*
X163112500Y-129125000D01*
G75*
G02*
X163050000Y-129062500I0J62500D01*
G01*
G37*
G36*
G01*
X163050000Y-129562500D02*
X163050000Y-129437500D01*
G75*
G02*
X163112500Y-129375000I62500J0D01*
G01*
X163787500Y-129375000D01*
G75*
G02*
X163850000Y-129437500I0J-62500D01*
G01*
X163850000Y-129562500D01*
G75*
G02*
X163787500Y-129625000I-62500J0D01*
G01*
X163112500Y-129625000D01*
G75*
G02*
X163050000Y-129562500I0J62500D01*
G01*
G37*
G36*
G01*
X163050000Y-130062500D02*
X163050000Y-129937500D01*
G75*
G02*
X163112500Y-129875000I62500J0D01*
G01*
X163787500Y-129875000D01*
G75*
G02*
X163850000Y-129937500I0J-62500D01*
G01*
X163850000Y-130062500D01*
G75*
G02*
X163787500Y-130125000I-62500J0D01*
G01*
X163112500Y-130125000D01*
G75*
G02*
X163050000Y-130062500I0J62500D01*
G01*
G37*
G36*
G01*
X162375000Y-131287500D02*
X162375000Y-130612500D01*
G75*
G02*
X162437500Y-130550000I62500J0D01*
G01*
X162562500Y-130550000D01*
G75*
G02*
X162625000Y-130612500I0J-62500D01*
G01*
X162625000Y-131287500D01*
G75*
G02*
X162562500Y-131350000I-62500J0D01*
G01*
X162437500Y-131350000D01*
G75*
G02*
X162375000Y-131287500I0J62500D01*
G01*
G37*
G36*
G01*
X161875000Y-131287500D02*
X161875000Y-130612500D01*
G75*
G02*
X161937500Y-130550000I62500J0D01*
G01*
X162062500Y-130550000D01*
G75*
G02*
X162125000Y-130612500I0J-62500D01*
G01*
X162125000Y-131287500D01*
G75*
G02*
X162062500Y-131350000I-62500J0D01*
G01*
X161937500Y-131350000D01*
G75*
G02*
X161875000Y-131287500I0J62500D01*
G01*
G37*
G36*
G01*
X161375000Y-131287500D02*
X161375000Y-130612500D01*
G75*
G02*
X161437500Y-130550000I62500J0D01*
G01*
X161562500Y-130550000D01*
G75*
G02*
X161625000Y-130612500I0J-62500D01*
G01*
X161625000Y-131287500D01*
G75*
G02*
X161562500Y-131350000I-62500J0D01*
G01*
X161437500Y-131350000D01*
G75*
G02*
X161375000Y-131287500I0J62500D01*
G01*
G37*
G36*
G01*
X160875000Y-131287500D02*
X160875000Y-130612500D01*
G75*
G02*
X160937500Y-130550000I62500J0D01*
G01*
X161062500Y-130550000D01*
G75*
G02*
X161125000Y-130612500I0J-62500D01*
G01*
X161125000Y-131287500D01*
G75*
G02*
X161062500Y-131350000I-62500J0D01*
G01*
X160937500Y-131350000D01*
G75*
G02*
X160875000Y-131287500I0J62500D01*
G01*
G37*
G36*
G01*
X160375000Y-131287500D02*
X160375000Y-130612500D01*
G75*
G02*
X160437500Y-130550000I62500J0D01*
G01*
X160562500Y-130550000D01*
G75*
G02*
X160625000Y-130612500I0J-62500D01*
G01*
X160625000Y-131287500D01*
G75*
G02*
X160562500Y-131350000I-62500J0D01*
G01*
X160437500Y-131350000D01*
G75*
G02*
X160375000Y-131287500I0J62500D01*
G01*
G37*
G36*
G01*
X159875000Y-131287500D02*
X159875000Y-130612500D01*
G75*
G02*
X159937500Y-130550000I62500J0D01*
G01*
X160062500Y-130550000D01*
G75*
G02*
X160125000Y-130612500I0J-62500D01*
G01*
X160125000Y-131287500D01*
G75*
G02*
X160062500Y-131350000I-62500J0D01*
G01*
X159937500Y-131350000D01*
G75*
G02*
X159875000Y-131287500I0J62500D01*
G01*
G37*
G36*
G01*
X159375000Y-131287500D02*
X159375000Y-130612500D01*
G75*
G02*
X159437500Y-130550000I62500J0D01*
G01*
X159562500Y-130550000D01*
G75*
G02*
X159625000Y-130612500I0J-62500D01*
G01*
X159625000Y-131287500D01*
G75*
G02*
X159562500Y-131350000I-62500J0D01*
G01*
X159437500Y-131350000D01*
G75*
G02*
X159375000Y-131287500I0J62500D01*
G01*
G37*
G36*
G01*
X158150000Y-130062500D02*
X158150000Y-129937500D01*
G75*
G02*
X158212500Y-129875000I62500J0D01*
G01*
X158887500Y-129875000D01*
G75*
G02*
X158950000Y-129937500I0J-62500D01*
G01*
X158950000Y-130062500D01*
G75*
G02*
X158887500Y-130125000I-62500J0D01*
G01*
X158212500Y-130125000D01*
G75*
G02*
X158150000Y-130062500I0J62500D01*
G01*
G37*
G36*
G01*
X158150000Y-129562500D02*
X158150000Y-129437500D01*
G75*
G02*
X158212500Y-129375000I62500J0D01*
G01*
X158887500Y-129375000D01*
G75*
G02*
X158950000Y-129437500I0J-62500D01*
G01*
X158950000Y-129562500D01*
G75*
G02*
X158887500Y-129625000I-62500J0D01*
G01*
X158212500Y-129625000D01*
G75*
G02*
X158150000Y-129562500I0J62500D01*
G01*
G37*
G36*
G01*
X158150000Y-129062500D02*
X158150000Y-128937500D01*
G75*
G02*
X158212500Y-128875000I62500J0D01*
G01*
X158887500Y-128875000D01*
G75*
G02*
X158950000Y-128937500I0J-62500D01*
G01*
X158950000Y-129062500D01*
G75*
G02*
X158887500Y-129125000I-62500J0D01*
G01*
X158212500Y-129125000D01*
G75*
G02*
X158150000Y-129062500I0J62500D01*
G01*
G37*
G36*
G01*
X158150000Y-128562500D02*
X158150000Y-128437500D01*
G75*
G02*
X158212500Y-128375000I62500J0D01*
G01*
X158887500Y-128375000D01*
G75*
G02*
X158950000Y-128437500I0J-62500D01*
G01*
X158950000Y-128562500D01*
G75*
G02*
X158887500Y-128625000I-62500J0D01*
G01*
X158212500Y-128625000D01*
G75*
G02*
X158150000Y-128562500I0J62500D01*
G01*
G37*
G36*
G01*
X158150000Y-128062500D02*
X158150000Y-127937500D01*
G75*
G02*
X158212500Y-127875000I62500J0D01*
G01*
X158887500Y-127875000D01*
G75*
G02*
X158950000Y-127937500I0J-62500D01*
G01*
X158950000Y-128062500D01*
G75*
G02*
X158887500Y-128125000I-62500J0D01*
G01*
X158212500Y-128125000D01*
G75*
G02*
X158150000Y-128062500I0J62500D01*
G01*
G37*
G36*
G01*
X158150000Y-127562500D02*
X158150000Y-127437500D01*
G75*
G02*
X158212500Y-127375000I62500J0D01*
G01*
X158887500Y-127375000D01*
G75*
G02*
X158950000Y-127437500I0J-62500D01*
G01*
X158950000Y-127562500D01*
G75*
G02*
X158887500Y-127625000I-62500J0D01*
G01*
X158212500Y-127625000D01*
G75*
G02*
X158150000Y-127562500I0J62500D01*
G01*
G37*
G36*
G01*
X158150000Y-127062500D02*
X158150000Y-126937500D01*
G75*
G02*
X158212500Y-126875000I62500J0D01*
G01*
X158887500Y-126875000D01*
G75*
G02*
X158950000Y-126937500I0J-62500D01*
G01*
X158950000Y-127062500D01*
G75*
G02*
X158887500Y-127125000I-62500J0D01*
G01*
X158212500Y-127125000D01*
G75*
G02*
X158150000Y-127062500I0J62500D01*
G01*
G37*
%TD*%
D24*
%TO.C,J4*%
X138070000Y-122460000D03*
D13*
X138070000Y-125000000D03*
%TD*%
D25*
%TO.C,REF\u002A\u002A*%
X169000000Y-130500000D03*
%TD*%
%TO.C,REF\u002A\u002A*%
X131000000Y-130500000D03*
%TD*%
%TO.C,REF\u002A\u002A*%
X131000000Y-72500000D03*
%TD*%
%TO.C,REF\u002A\u002A*%
X169000000Y-72500000D03*
%TD*%
D24*
%TO.C,J8*%
X138070000Y-82855000D03*
X138070000Y-85395000D03*
X138070000Y-87935000D03*
D13*
X138070000Y-90475000D03*
%TD*%
D24*
%TO.C,J7*%
X138070000Y-95555000D03*
X138070000Y-98095000D03*
X138070000Y-100635000D03*
X138070000Y-103175000D03*
D13*
X138070000Y-105715000D03*
%TD*%
D24*
%TO.C,J6*%
X161930000Y-103175000D03*
X161930000Y-100635000D03*
X161930000Y-98095000D03*
D13*
X161930000Y-95555000D03*
%TD*%
D24*
%TO.C,J3*%
X161930000Y-90475000D03*
X161930000Y-87935000D03*
X161930000Y-85395000D03*
D13*
X161930000Y-82855000D03*
%TD*%
D26*
%TO.C,U5*%
X152050000Y-105650000D03*
X153950000Y-105650000D03*
X153950000Y-107850000D03*
X153000000Y-107850000D03*
X152050000Y-107850000D03*
%TD*%
%TO.C,R33*%
G36*
G01*
X142095000Y-98351250D02*
X142095000Y-97838750D01*
G75*
G02*
X142313750Y-97620000I218750J0D01*
G01*
X142751250Y-97620000D01*
G75*
G02*
X142970000Y-97838750I0J-218750D01*
G01*
X142970000Y-98351250D01*
G75*
G02*
X142751250Y-98570000I-218750J0D01*
G01*
X142313750Y-98570000D01*
G75*
G02*
X142095000Y-98351250I0J218750D01*
G01*
G37*
G36*
G01*
X140520000Y-98351250D02*
X140520000Y-97838750D01*
G75*
G02*
X140738750Y-97620000I218750J0D01*
G01*
X141176250Y-97620000D01*
G75*
G02*
X141395000Y-97838750I0J-218750D01*
G01*
X141395000Y-98351250D01*
G75*
G02*
X141176250Y-98570000I-218750J0D01*
G01*
X140738750Y-98570000D01*
G75*
G02*
X140520000Y-98351250I0J218750D01*
G01*
G37*
%TD*%
%TO.C,R32*%
G36*
G01*
X142095000Y-100256250D02*
X142095000Y-99743750D01*
G75*
G02*
X142313750Y-99525000I218750J0D01*
G01*
X142751250Y-99525000D01*
G75*
G02*
X142970000Y-99743750I0J-218750D01*
G01*
X142970000Y-100256250D01*
G75*
G02*
X142751250Y-100475000I-218750J0D01*
G01*
X142313750Y-100475000D01*
G75*
G02*
X142095000Y-100256250I0J218750D01*
G01*
G37*
G36*
G01*
X140520000Y-100256250D02*
X140520000Y-99743750D01*
G75*
G02*
X140738750Y-99525000I218750J0D01*
G01*
X141176250Y-99525000D01*
G75*
G02*
X141395000Y-99743750I0J-218750D01*
G01*
X141395000Y-100256250D01*
G75*
G02*
X141176250Y-100475000I-218750J0D01*
G01*
X140738750Y-100475000D01*
G75*
G02*
X140520000Y-100256250I0J218750D01*
G01*
G37*
%TD*%
%TO.C,R31*%
G36*
G01*
X142095000Y-102161250D02*
X142095000Y-101648750D01*
G75*
G02*
X142313750Y-101430000I218750J0D01*
G01*
X142751250Y-101430000D01*
G75*
G02*
X142970000Y-101648750I0J-218750D01*
G01*
X142970000Y-102161250D01*
G75*
G02*
X142751250Y-102380000I-218750J0D01*
G01*
X142313750Y-102380000D01*
G75*
G02*
X142095000Y-102161250I0J218750D01*
G01*
G37*
G36*
G01*
X140520000Y-102161250D02*
X140520000Y-101648750D01*
G75*
G02*
X140738750Y-101430000I218750J0D01*
G01*
X141176250Y-101430000D01*
G75*
G02*
X141395000Y-101648750I0J-218750D01*
G01*
X141395000Y-102161250D01*
G75*
G02*
X141176250Y-102380000I-218750J0D01*
G01*
X140738750Y-102380000D01*
G75*
G02*
X140520000Y-102161250I0J218750D01*
G01*
G37*
%TD*%
%TO.C,R30*%
G36*
G01*
X142095000Y-104066250D02*
X142095000Y-103553750D01*
G75*
G02*
X142313750Y-103335000I218750J0D01*
G01*
X142751250Y-103335000D01*
G75*
G02*
X142970000Y-103553750I0J-218750D01*
G01*
X142970000Y-104066250D01*
G75*
G02*
X142751250Y-104285000I-218750J0D01*
G01*
X142313750Y-104285000D01*
G75*
G02*
X142095000Y-104066250I0J218750D01*
G01*
G37*
G36*
G01*
X140520000Y-104066250D02*
X140520000Y-103553750D01*
G75*
G02*
X140738750Y-103335000I218750J0D01*
G01*
X141176250Y-103335000D01*
G75*
G02*
X141395000Y-103553750I0J-218750D01*
G01*
X141395000Y-104066250D01*
G75*
G02*
X141176250Y-104285000I-218750J0D01*
G01*
X140738750Y-104285000D01*
G75*
G02*
X140520000Y-104066250I0J218750D01*
G01*
G37*
%TD*%
%TO.C,R29*%
G36*
G01*
X142095000Y-105971250D02*
X142095000Y-105458750D01*
G75*
G02*
X142313750Y-105240000I218750J0D01*
G01*
X142751250Y-105240000D01*
G75*
G02*
X142970000Y-105458750I0J-218750D01*
G01*
X142970000Y-105971250D01*
G75*
G02*
X142751250Y-106190000I-218750J0D01*
G01*
X142313750Y-106190000D01*
G75*
G02*
X142095000Y-105971250I0J218750D01*
G01*
G37*
G36*
G01*
X140520000Y-105971250D02*
X140520000Y-105458750D01*
G75*
G02*
X140738750Y-105240000I218750J0D01*
G01*
X141176250Y-105240000D01*
G75*
G02*
X141395000Y-105458750I0J-218750D01*
G01*
X141395000Y-105971250D01*
G75*
G02*
X141176250Y-106190000I-218750J0D01*
G01*
X140738750Y-106190000D01*
G75*
G02*
X140520000Y-105971250I0J218750D01*
G01*
G37*
%TD*%
%TO.C,R27*%
G36*
G01*
X169743750Y-119850000D02*
X170256250Y-119850000D01*
G75*
G02*
X170475000Y-120068750I0J-218750D01*
G01*
X170475000Y-120506250D01*
G75*
G02*
X170256250Y-120725000I-218750J0D01*
G01*
X169743750Y-120725000D01*
G75*
G02*
X169525000Y-120506250I0J218750D01*
G01*
X169525000Y-120068750D01*
G75*
G02*
X169743750Y-119850000I218750J0D01*
G01*
G37*
G36*
G01*
X169743750Y-118275000D02*
X170256250Y-118275000D01*
G75*
G02*
X170475000Y-118493750I0J-218750D01*
G01*
X170475000Y-118931250D01*
G75*
G02*
X170256250Y-119150000I-218750J0D01*
G01*
X169743750Y-119150000D01*
G75*
G02*
X169525000Y-118931250I0J218750D01*
G01*
X169525000Y-118493750D01*
G75*
G02*
X169743750Y-118275000I218750J0D01*
G01*
G37*
%TD*%
%TO.C,R25*%
G36*
G01*
X159493750Y-107100000D02*
X160006250Y-107100000D01*
G75*
G02*
X160225000Y-107318750I0J-218750D01*
G01*
X160225000Y-107756250D01*
G75*
G02*
X160006250Y-107975000I-218750J0D01*
G01*
X159493750Y-107975000D01*
G75*
G02*
X159275000Y-107756250I0J218750D01*
G01*
X159275000Y-107318750D01*
G75*
G02*
X159493750Y-107100000I218750J0D01*
G01*
G37*
G36*
G01*
X159493750Y-105525000D02*
X160006250Y-105525000D01*
G75*
G02*
X160225000Y-105743750I0J-218750D01*
G01*
X160225000Y-106181250D01*
G75*
G02*
X160006250Y-106400000I-218750J0D01*
G01*
X159493750Y-106400000D01*
G75*
G02*
X159275000Y-106181250I0J218750D01*
G01*
X159275000Y-105743750D01*
G75*
G02*
X159493750Y-105525000I218750J0D01*
G01*
G37*
%TD*%
D27*
%TO.C,Q3*%
X157000000Y-105750000D03*
X157950000Y-107750000D03*
X156050000Y-107750000D03*
%TD*%
%TO.C,R23*%
G36*
G01*
X159743750Y-119850000D02*
X160256250Y-119850000D01*
G75*
G02*
X160475000Y-120068750I0J-218750D01*
G01*
X160475000Y-120506250D01*
G75*
G02*
X160256250Y-120725000I-218750J0D01*
G01*
X159743750Y-120725000D01*
G75*
G02*
X159525000Y-120506250I0J218750D01*
G01*
X159525000Y-120068750D01*
G75*
G02*
X159743750Y-119850000I218750J0D01*
G01*
G37*
G36*
G01*
X159743750Y-118275000D02*
X160256250Y-118275000D01*
G75*
G02*
X160475000Y-118493750I0J-218750D01*
G01*
X160475000Y-118931250D01*
G75*
G02*
X160256250Y-119150000I-218750J0D01*
G01*
X159743750Y-119150000D01*
G75*
G02*
X159525000Y-118931250I0J218750D01*
G01*
X159525000Y-118493750D01*
G75*
G02*
X159743750Y-118275000I218750J0D01*
G01*
G37*
%TD*%
D28*
%TO.C,U2*%
X144945000Y-98017500D03*
X144945000Y-102617500D03*
X144945000Y-100317500D03*
D29*
X151245000Y-100317500D03*
%TD*%
D30*
%TO.C,U1*%
X158500000Y-77410000D03*
X158500000Y-78680000D03*
X158500000Y-79950000D03*
X158500000Y-81220000D03*
X158500000Y-82490000D03*
X158500000Y-83760000D03*
X158500000Y-85030000D03*
X158500000Y-86300000D03*
X158500000Y-87570000D03*
X158500000Y-88840000D03*
X158500000Y-90110000D03*
X158500000Y-91380000D03*
X158500000Y-92650000D03*
X158500000Y-93920000D03*
D31*
X155715000Y-94920000D03*
X154445000Y-94920000D03*
X153175000Y-94920000D03*
X151905000Y-94920000D03*
X150635000Y-94920000D03*
X149365000Y-94920000D03*
X148095000Y-94920000D03*
X146825000Y-94920000D03*
X145555000Y-94920000D03*
X144285000Y-94920000D03*
D30*
X141500000Y-93920000D03*
X141500000Y-92650000D03*
X141500000Y-91380000D03*
X141500000Y-90110000D03*
X141500000Y-88840000D03*
X141500000Y-87570000D03*
X141500000Y-86300000D03*
X141500000Y-85030000D03*
X141500000Y-83760000D03*
X141500000Y-82490000D03*
X141500000Y-81220000D03*
X141500000Y-79950000D03*
X141500000Y-78680000D03*
X141500000Y-77410000D03*
D32*
X149000000Y-84910000D03*
%TD*%
%TO.C,R19*%
G36*
G01*
X161600000Y-122756250D02*
X161600000Y-122243750D01*
G75*
G02*
X161818750Y-122025000I218750J0D01*
G01*
X162256250Y-122025000D01*
G75*
G02*
X162475000Y-122243750I0J-218750D01*
G01*
X162475000Y-122756250D01*
G75*
G02*
X162256250Y-122975000I-218750J0D01*
G01*
X161818750Y-122975000D01*
G75*
G02*
X161600000Y-122756250I0J218750D01*
G01*
G37*
G36*
G01*
X160025000Y-122756250D02*
X160025000Y-122243750D01*
G75*
G02*
X160243750Y-122025000I218750J0D01*
G01*
X160681250Y-122025000D01*
G75*
G02*
X160900000Y-122243750I0J-218750D01*
G01*
X160900000Y-122756250D01*
G75*
G02*
X160681250Y-122975000I-218750J0D01*
G01*
X160243750Y-122975000D01*
G75*
G02*
X160025000Y-122756250I0J218750D01*
G01*
G37*
%TD*%
%TO.C,R18*%
G36*
G01*
X164993750Y-125850000D02*
X165506250Y-125850000D01*
G75*
G02*
X165725000Y-126068750I0J-218750D01*
G01*
X165725000Y-126506250D01*
G75*
G02*
X165506250Y-126725000I-218750J0D01*
G01*
X164993750Y-126725000D01*
G75*
G02*
X164775000Y-126506250I0J218750D01*
G01*
X164775000Y-126068750D01*
G75*
G02*
X164993750Y-125850000I218750J0D01*
G01*
G37*
G36*
G01*
X164993750Y-124275000D02*
X165506250Y-124275000D01*
G75*
G02*
X165725000Y-124493750I0J-218750D01*
G01*
X165725000Y-124931250D01*
G75*
G02*
X165506250Y-125150000I-218750J0D01*
G01*
X164993750Y-125150000D01*
G75*
G02*
X164775000Y-124931250I0J218750D01*
G01*
X164775000Y-124493750D01*
G75*
G02*
X164993750Y-124275000I218750J0D01*
G01*
G37*
%TD*%
%TO.C,R17*%
G36*
G01*
X164993750Y-129100000D02*
X165506250Y-129100000D01*
G75*
G02*
X165725000Y-129318750I0J-218750D01*
G01*
X165725000Y-129756250D01*
G75*
G02*
X165506250Y-129975000I-218750J0D01*
G01*
X164993750Y-129975000D01*
G75*
G02*
X164775000Y-129756250I0J218750D01*
G01*
X164775000Y-129318750D01*
G75*
G02*
X164993750Y-129100000I218750J0D01*
G01*
G37*
G36*
G01*
X164993750Y-127525000D02*
X165506250Y-127525000D01*
G75*
G02*
X165725000Y-127743750I0J-218750D01*
G01*
X165725000Y-128181250D01*
G75*
G02*
X165506250Y-128400000I-218750J0D01*
G01*
X164993750Y-128400000D01*
G75*
G02*
X164775000Y-128181250I0J218750D01*
G01*
X164775000Y-127743750D01*
G75*
G02*
X164993750Y-127525000I218750J0D01*
G01*
G37*
%TD*%
%TO.C,R16*%
G36*
G01*
X164850000Y-122756250D02*
X164850000Y-122243750D01*
G75*
G02*
X165068750Y-122025000I218750J0D01*
G01*
X165506250Y-122025000D01*
G75*
G02*
X165725000Y-122243750I0J-218750D01*
G01*
X165725000Y-122756250D01*
G75*
G02*
X165506250Y-122975000I-218750J0D01*
G01*
X165068750Y-122975000D01*
G75*
G02*
X164850000Y-122756250I0J218750D01*
G01*
G37*
G36*
G01*
X163275000Y-122756250D02*
X163275000Y-122243750D01*
G75*
G02*
X163493750Y-122025000I218750J0D01*
G01*
X163931250Y-122025000D01*
G75*
G02*
X164150000Y-122243750I0J-218750D01*
G01*
X164150000Y-122756250D01*
G75*
G02*
X163931250Y-122975000I-218750J0D01*
G01*
X163493750Y-122975000D01*
G75*
G02*
X163275000Y-122756250I0J218750D01*
G01*
G37*
%TD*%
%TO.C,R15*%
G36*
G01*
X163100000Y-133006250D02*
X163100000Y-132493750D01*
G75*
G02*
X163318750Y-132275000I218750J0D01*
G01*
X163756250Y-132275000D01*
G75*
G02*
X163975000Y-132493750I0J-218750D01*
G01*
X163975000Y-133006250D01*
G75*
G02*
X163756250Y-133225000I-218750J0D01*
G01*
X163318750Y-133225000D01*
G75*
G02*
X163100000Y-133006250I0J218750D01*
G01*
G37*
G36*
G01*
X161525000Y-133006250D02*
X161525000Y-132493750D01*
G75*
G02*
X161743750Y-132275000I218750J0D01*
G01*
X162181250Y-132275000D01*
G75*
G02*
X162400000Y-132493750I0J-218750D01*
G01*
X162400000Y-133006250D01*
G75*
G02*
X162181250Y-133225000I-218750J0D01*
G01*
X161743750Y-133225000D01*
G75*
G02*
X161525000Y-133006250I0J218750D01*
G01*
G37*
%TD*%
%TO.C,R14*%
G36*
G01*
X159850000Y-133006250D02*
X159850000Y-132493750D01*
G75*
G02*
X160068750Y-132275000I218750J0D01*
G01*
X160506250Y-132275000D01*
G75*
G02*
X160725000Y-132493750I0J-218750D01*
G01*
X160725000Y-133006250D01*
G75*
G02*
X160506250Y-133225000I-218750J0D01*
G01*
X160068750Y-133225000D01*
G75*
G02*
X159850000Y-133006250I0J218750D01*
G01*
G37*
G36*
G01*
X158275000Y-133006250D02*
X158275000Y-132493750D01*
G75*
G02*
X158493750Y-132275000I218750J0D01*
G01*
X158931250Y-132275000D01*
G75*
G02*
X159150000Y-132493750I0J-218750D01*
G01*
X159150000Y-133006250D01*
G75*
G02*
X158931250Y-133225000I-218750J0D01*
G01*
X158493750Y-133225000D01*
G75*
G02*
X158275000Y-133006250I0J218750D01*
G01*
G37*
%TD*%
%TO.C,R13*%
G36*
G01*
X156493750Y-132350000D02*
X157006250Y-132350000D01*
G75*
G02*
X157225000Y-132568750I0J-218750D01*
G01*
X157225000Y-133006250D01*
G75*
G02*
X157006250Y-133225000I-218750J0D01*
G01*
X156493750Y-133225000D01*
G75*
G02*
X156275000Y-133006250I0J218750D01*
G01*
X156275000Y-132568750D01*
G75*
G02*
X156493750Y-132350000I218750J0D01*
G01*
G37*
G36*
G01*
X156493750Y-130775000D02*
X157006250Y-130775000D01*
G75*
G02*
X157225000Y-130993750I0J-218750D01*
G01*
X157225000Y-131431250D01*
G75*
G02*
X157006250Y-131650000I-218750J0D01*
G01*
X156493750Y-131650000D01*
G75*
G02*
X156275000Y-131431250I0J218750D01*
G01*
X156275000Y-130993750D01*
G75*
G02*
X156493750Y-130775000I218750J0D01*
G01*
G37*
%TD*%
%TO.C,R12*%
G36*
G01*
X146593750Y-124350000D02*
X147106250Y-124350000D01*
G75*
G02*
X147325000Y-124568750I0J-218750D01*
G01*
X147325000Y-125006250D01*
G75*
G02*
X147106250Y-125225000I-218750J0D01*
G01*
X146593750Y-125225000D01*
G75*
G02*
X146375000Y-125006250I0J218750D01*
G01*
X146375000Y-124568750D01*
G75*
G02*
X146593750Y-124350000I218750J0D01*
G01*
G37*
G36*
G01*
X146593750Y-122775000D02*
X147106250Y-122775000D01*
G75*
G02*
X147325000Y-122993750I0J-218750D01*
G01*
X147325000Y-123431250D01*
G75*
G02*
X147106250Y-123650000I-218750J0D01*
G01*
X146593750Y-123650000D01*
G75*
G02*
X146375000Y-123431250I0J218750D01*
G01*
X146375000Y-122993750D01*
G75*
G02*
X146593750Y-122775000I218750J0D01*
G01*
G37*
%TD*%
%TO.C,R11*%
G36*
G01*
X154100000Y-125006250D02*
X154100000Y-124493750D01*
G75*
G02*
X154318750Y-124275000I218750J0D01*
G01*
X154756250Y-124275000D01*
G75*
G02*
X154975000Y-124493750I0J-218750D01*
G01*
X154975000Y-125006250D01*
G75*
G02*
X154756250Y-125225000I-218750J0D01*
G01*
X154318750Y-125225000D01*
G75*
G02*
X154100000Y-125006250I0J218750D01*
G01*
G37*
G36*
G01*
X152525000Y-125006250D02*
X152525000Y-124493750D01*
G75*
G02*
X152743750Y-124275000I218750J0D01*
G01*
X153181250Y-124275000D01*
G75*
G02*
X153400000Y-124493750I0J-218750D01*
G01*
X153400000Y-125006250D01*
G75*
G02*
X153181250Y-125225000I-218750J0D01*
G01*
X152743750Y-125225000D01*
G75*
G02*
X152525000Y-125006250I0J218750D01*
G01*
G37*
%TD*%
%TO.C,R10*%
G36*
G01*
X139600000Y-111756250D02*
X139600000Y-111243750D01*
G75*
G02*
X139818750Y-111025000I218750J0D01*
G01*
X140256250Y-111025000D01*
G75*
G02*
X140475000Y-111243750I0J-218750D01*
G01*
X140475000Y-111756250D01*
G75*
G02*
X140256250Y-111975000I-218750J0D01*
G01*
X139818750Y-111975000D01*
G75*
G02*
X139600000Y-111756250I0J218750D01*
G01*
G37*
G36*
G01*
X138025000Y-111756250D02*
X138025000Y-111243750D01*
G75*
G02*
X138243750Y-111025000I218750J0D01*
G01*
X138681250Y-111025000D01*
G75*
G02*
X138900000Y-111243750I0J-218750D01*
G01*
X138900000Y-111756250D01*
G75*
G02*
X138681250Y-111975000I-218750J0D01*
G01*
X138243750Y-111975000D01*
G75*
G02*
X138025000Y-111756250I0J218750D01*
G01*
G37*
%TD*%
%TO.C,R9*%
G36*
G01*
X139600000Y-113756250D02*
X139600000Y-113243750D01*
G75*
G02*
X139818750Y-113025000I218750J0D01*
G01*
X140256250Y-113025000D01*
G75*
G02*
X140475000Y-113243750I0J-218750D01*
G01*
X140475000Y-113756250D01*
G75*
G02*
X140256250Y-113975000I-218750J0D01*
G01*
X139818750Y-113975000D01*
G75*
G02*
X139600000Y-113756250I0J218750D01*
G01*
G37*
G36*
G01*
X138025000Y-113756250D02*
X138025000Y-113243750D01*
G75*
G02*
X138243750Y-113025000I218750J0D01*
G01*
X138681250Y-113025000D01*
G75*
G02*
X138900000Y-113243750I0J-218750D01*
G01*
X138900000Y-113756250D01*
G75*
G02*
X138681250Y-113975000I-218750J0D01*
G01*
X138243750Y-113975000D01*
G75*
G02*
X138025000Y-113756250I0J218750D01*
G01*
G37*
%TD*%
%TO.C,R8*%
G36*
G01*
X162850000Y-109506250D02*
X162850000Y-108993750D01*
G75*
G02*
X163068750Y-108775000I218750J0D01*
G01*
X163506250Y-108775000D01*
G75*
G02*
X163725000Y-108993750I0J-218750D01*
G01*
X163725000Y-109506250D01*
G75*
G02*
X163506250Y-109725000I-218750J0D01*
G01*
X163068750Y-109725000D01*
G75*
G02*
X162850000Y-109506250I0J218750D01*
G01*
G37*
G36*
G01*
X161275000Y-109506250D02*
X161275000Y-108993750D01*
G75*
G02*
X161493750Y-108775000I218750J0D01*
G01*
X161931250Y-108775000D01*
G75*
G02*
X162150000Y-108993750I0J-218750D01*
G01*
X162150000Y-109506250D01*
G75*
G02*
X161931250Y-109725000I-218750J0D01*
G01*
X161493750Y-109725000D01*
G75*
G02*
X161275000Y-109506250I0J218750D01*
G01*
G37*
%TD*%
%TO.C,R7*%
G36*
G01*
X166637500Y-109506250D02*
X166637500Y-108993750D01*
G75*
G02*
X166856250Y-108775000I218750J0D01*
G01*
X167293750Y-108775000D01*
G75*
G02*
X167512500Y-108993750I0J-218750D01*
G01*
X167512500Y-109506250D01*
G75*
G02*
X167293750Y-109725000I-218750J0D01*
G01*
X166856250Y-109725000D01*
G75*
G02*
X166637500Y-109506250I0J218750D01*
G01*
G37*
G36*
G01*
X165062500Y-109506250D02*
X165062500Y-108993750D01*
G75*
G02*
X165281250Y-108775000I218750J0D01*
G01*
X165718750Y-108775000D01*
G75*
G02*
X165937500Y-108993750I0J-218750D01*
G01*
X165937500Y-109506250D01*
G75*
G02*
X165718750Y-109725000I-218750J0D01*
G01*
X165281250Y-109725000D01*
G75*
G02*
X165062500Y-109506250I0J218750D01*
G01*
G37*
%TD*%
%TO.C,R6*%
G36*
G01*
X159875000Y-124506250D02*
X159875000Y-123993750D01*
G75*
G02*
X160093750Y-123775000I218750J0D01*
G01*
X160531250Y-123775000D01*
G75*
G02*
X160750000Y-123993750I0J-218750D01*
G01*
X160750000Y-124506250D01*
G75*
G02*
X160531250Y-124725000I-218750J0D01*
G01*
X160093750Y-124725000D01*
G75*
G02*
X159875000Y-124506250I0J218750D01*
G01*
G37*
G36*
G01*
X158300000Y-124506250D02*
X158300000Y-123993750D01*
G75*
G02*
X158518750Y-123775000I218750J0D01*
G01*
X158956250Y-123775000D01*
G75*
G02*
X159175000Y-123993750I0J-218750D01*
G01*
X159175000Y-124506250D01*
G75*
G02*
X158956250Y-124725000I-218750J0D01*
G01*
X158518750Y-124725000D01*
G75*
G02*
X158300000Y-124506250I0J218750D01*
G01*
G37*
%TD*%
%TO.C,R5*%
G36*
G01*
X163137500Y-124506250D02*
X163137500Y-123993750D01*
G75*
G02*
X163356250Y-123775000I218750J0D01*
G01*
X163793750Y-123775000D01*
G75*
G02*
X164012500Y-123993750I0J-218750D01*
G01*
X164012500Y-124506250D01*
G75*
G02*
X163793750Y-124725000I-218750J0D01*
G01*
X163356250Y-124725000D01*
G75*
G02*
X163137500Y-124506250I0J218750D01*
G01*
G37*
G36*
G01*
X161562500Y-124506250D02*
X161562500Y-123993750D01*
G75*
G02*
X161781250Y-123775000I218750J0D01*
G01*
X162218750Y-123775000D01*
G75*
G02*
X162437500Y-123993750I0J-218750D01*
G01*
X162437500Y-124506250D01*
G75*
G02*
X162218750Y-124725000I-218750J0D01*
G01*
X161781250Y-124725000D01*
G75*
G02*
X161562500Y-124506250I0J218750D01*
G01*
G37*
%TD*%
%TO.C,R3*%
G36*
G01*
X149743750Y-119850000D02*
X150256250Y-119850000D01*
G75*
G02*
X150475000Y-120068750I0J-218750D01*
G01*
X150475000Y-120506250D01*
G75*
G02*
X150256250Y-120725000I-218750J0D01*
G01*
X149743750Y-120725000D01*
G75*
G02*
X149525000Y-120506250I0J218750D01*
G01*
X149525000Y-120068750D01*
G75*
G02*
X149743750Y-119850000I218750J0D01*
G01*
G37*
G36*
G01*
X149743750Y-118275000D02*
X150256250Y-118275000D01*
G75*
G02*
X150475000Y-118493750I0J-218750D01*
G01*
X150475000Y-118931250D01*
G75*
G02*
X150256250Y-119150000I-218750J0D01*
G01*
X149743750Y-119150000D01*
G75*
G02*
X149525000Y-118931250I0J218750D01*
G01*
X149525000Y-118493750D01*
G75*
G02*
X149743750Y-118275000I218750J0D01*
G01*
G37*
%TD*%
%TO.C,R1*%
G36*
G01*
X139743750Y-119850000D02*
X140256250Y-119850000D01*
G75*
G02*
X140475000Y-120068750I0J-218750D01*
G01*
X140475000Y-120506250D01*
G75*
G02*
X140256250Y-120725000I-218750J0D01*
G01*
X139743750Y-120725000D01*
G75*
G02*
X139525000Y-120506250I0J218750D01*
G01*
X139525000Y-120068750D01*
G75*
G02*
X139743750Y-119850000I218750J0D01*
G01*
G37*
G36*
G01*
X139743750Y-118275000D02*
X140256250Y-118275000D01*
G75*
G02*
X140475000Y-118493750I0J-218750D01*
G01*
X140475000Y-118931250D01*
G75*
G02*
X140256250Y-119150000I-218750J0D01*
G01*
X139743750Y-119150000D01*
G75*
G02*
X139525000Y-118931250I0J218750D01*
G01*
X139525000Y-118493750D01*
G75*
G02*
X139743750Y-118275000I218750J0D01*
G01*
G37*
%TD*%
D27*
%TO.C,Q2*%
X166250000Y-105750000D03*
X167200000Y-107750000D03*
X165300000Y-107750000D03*
%TD*%
%TO.C,Q1*%
X162500000Y-105750000D03*
X163450000Y-107750000D03*
X161550000Y-107750000D03*
%TD*%
D33*
%TO.C,D6*%
X137300000Y-128162500D03*
X137300000Y-132162500D03*
%TD*%
%TO.C,D5*%
G36*
G01*
X167400000Y-122243750D02*
X167400000Y-122756250D01*
G75*
G02*
X167181250Y-122975000I-218750J0D01*
G01*
X166743750Y-122975000D01*
G75*
G02*
X166525000Y-122756250I0J218750D01*
G01*
X166525000Y-122243750D01*
G75*
G02*
X166743750Y-122025000I218750J0D01*
G01*
X167181250Y-122025000D01*
G75*
G02*
X167400000Y-122243750I0J-218750D01*
G01*
G37*
G36*
G01*
X168975000Y-122243750D02*
X168975000Y-122756250D01*
G75*
G02*
X168756250Y-122975000I-218750J0D01*
G01*
X168318750Y-122975000D01*
G75*
G02*
X168100000Y-122756250I0J218750D01*
G01*
X168100000Y-122243750D01*
G75*
G02*
X168318750Y-122025000I218750J0D01*
G01*
X168756250Y-122025000D01*
G75*
G02*
X168975000Y-122243750I0J-218750D01*
G01*
G37*
%TD*%
%TO.C,D4*%
G36*
G01*
X167400000Y-125743750D02*
X167400000Y-126256250D01*
G75*
G02*
X167181250Y-126475000I-218750J0D01*
G01*
X166743750Y-126475000D01*
G75*
G02*
X166525000Y-126256250I0J218750D01*
G01*
X166525000Y-125743750D01*
G75*
G02*
X166743750Y-125525000I218750J0D01*
G01*
X167181250Y-125525000D01*
G75*
G02*
X167400000Y-125743750I0J-218750D01*
G01*
G37*
G36*
G01*
X168975000Y-125743750D02*
X168975000Y-126256250D01*
G75*
G02*
X168756250Y-126475000I-218750J0D01*
G01*
X168318750Y-126475000D01*
G75*
G02*
X168100000Y-126256250I0J218750D01*
G01*
X168100000Y-125743750D01*
G75*
G02*
X168318750Y-125525000I218750J0D01*
G01*
X168756250Y-125525000D01*
G75*
G02*
X168975000Y-125743750I0J-218750D01*
G01*
G37*
%TD*%
%TO.C,D2*%
X141745000Y-132162500D03*
X141745000Y-128162500D03*
%TD*%
%TO.C,D1*%
G36*
G01*
X167400000Y-123993750D02*
X167400000Y-124506250D01*
G75*
G02*
X167181250Y-124725000I-218750J0D01*
G01*
X166743750Y-124725000D01*
G75*
G02*
X166525000Y-124506250I0J218750D01*
G01*
X166525000Y-123993750D01*
G75*
G02*
X166743750Y-123775000I218750J0D01*
G01*
X167181250Y-123775000D01*
G75*
G02*
X167400000Y-123993750I0J-218750D01*
G01*
G37*
G36*
G01*
X168975000Y-123993750D02*
X168975000Y-124506250D01*
G75*
G02*
X168756250Y-124725000I-218750J0D01*
G01*
X168318750Y-124725000D01*
G75*
G02*
X168100000Y-124506250I0J218750D01*
G01*
X168100000Y-123993750D01*
G75*
G02*
X168318750Y-123775000I218750J0D01*
G01*
X168756250Y-123775000D01*
G75*
G02*
X168975000Y-123993750I0J-218750D01*
G01*
G37*
%TD*%
%TO.C,C8*%
G36*
G01*
X156493750Y-129100000D02*
X157006250Y-129100000D01*
G75*
G02*
X157225000Y-129318750I0J-218750D01*
G01*
X157225000Y-129756250D01*
G75*
G02*
X157006250Y-129975000I-218750J0D01*
G01*
X156493750Y-129975000D01*
G75*
G02*
X156275000Y-129756250I0J218750D01*
G01*
X156275000Y-129318750D01*
G75*
G02*
X156493750Y-129100000I218750J0D01*
G01*
G37*
G36*
G01*
X156493750Y-127525000D02*
X157006250Y-127525000D01*
G75*
G02*
X157225000Y-127743750I0J-218750D01*
G01*
X157225000Y-128181250D01*
G75*
G02*
X157006250Y-128400000I-218750J0D01*
G01*
X156493750Y-128400000D01*
G75*
G02*
X156275000Y-128181250I0J218750D01*
G01*
X156275000Y-127743750D01*
G75*
G02*
X156493750Y-127525000I218750J0D01*
G01*
G37*
%TD*%
%TO.C,C6*%
G36*
G01*
X147993750Y-106100000D02*
X148506250Y-106100000D01*
G75*
G02*
X148725000Y-106318750I0J-218750D01*
G01*
X148725000Y-106756250D01*
G75*
G02*
X148506250Y-106975000I-218750J0D01*
G01*
X147993750Y-106975000D01*
G75*
G02*
X147775000Y-106756250I0J218750D01*
G01*
X147775000Y-106318750D01*
G75*
G02*
X147993750Y-106100000I218750J0D01*
G01*
G37*
G36*
G01*
X147993750Y-104525000D02*
X148506250Y-104525000D01*
G75*
G02*
X148725000Y-104743750I0J-218750D01*
G01*
X148725000Y-105181250D01*
G75*
G02*
X148506250Y-105400000I-218750J0D01*
G01*
X147993750Y-105400000D01*
G75*
G02*
X147775000Y-105181250I0J218750D01*
G01*
X147775000Y-104743750D01*
G75*
G02*
X147993750Y-104525000I218750J0D01*
G01*
G37*
%TD*%
%TO.C,C5*%
G36*
G01*
X144663750Y-106065000D02*
X145176250Y-106065000D01*
G75*
G02*
X145395000Y-106283750I0J-218750D01*
G01*
X145395000Y-106721250D01*
G75*
G02*
X145176250Y-106940000I-218750J0D01*
G01*
X144663750Y-106940000D01*
G75*
G02*
X144445000Y-106721250I0J218750D01*
G01*
X144445000Y-106283750D01*
G75*
G02*
X144663750Y-106065000I218750J0D01*
G01*
G37*
G36*
G01*
X144663750Y-104490000D02*
X145176250Y-104490000D01*
G75*
G02*
X145395000Y-104708750I0J-218750D01*
G01*
X145395000Y-105146250D01*
G75*
G02*
X145176250Y-105365000I-218750J0D01*
G01*
X144663750Y-105365000D01*
G75*
G02*
X144445000Y-105146250I0J218750D01*
G01*
X144445000Y-104708750D01*
G75*
G02*
X144663750Y-104490000I218750J0D01*
G01*
G37*
%TD*%
%TO.C,C3*%
G36*
G01*
X156493750Y-125850000D02*
X157006250Y-125850000D01*
G75*
G02*
X157225000Y-126068750I0J-218750D01*
G01*
X157225000Y-126506250D01*
G75*
G02*
X157006250Y-126725000I-218750J0D01*
G01*
X156493750Y-126725000D01*
G75*
G02*
X156275000Y-126506250I0J218750D01*
G01*
X156275000Y-126068750D01*
G75*
G02*
X156493750Y-125850000I218750J0D01*
G01*
G37*
G36*
G01*
X156493750Y-124275000D02*
X157006250Y-124275000D01*
G75*
G02*
X157225000Y-124493750I0J-218750D01*
G01*
X157225000Y-124931250D01*
G75*
G02*
X157006250Y-125150000I-218750J0D01*
G01*
X156493750Y-125150000D01*
G75*
G02*
X156275000Y-124931250I0J218750D01*
G01*
X156275000Y-124493750D01*
G75*
G02*
X156493750Y-124275000I218750J0D01*
G01*
G37*
%TD*%
%TO.C,C2*%
G36*
G01*
X164993750Y-132350000D02*
X165506250Y-132350000D01*
G75*
G02*
X165725000Y-132568750I0J-218750D01*
G01*
X165725000Y-133006250D01*
G75*
G02*
X165506250Y-133225000I-218750J0D01*
G01*
X164993750Y-133225000D01*
G75*
G02*
X164775000Y-133006250I0J218750D01*
G01*
X164775000Y-132568750D01*
G75*
G02*
X164993750Y-132350000I218750J0D01*
G01*
G37*
G36*
G01*
X164993750Y-130775000D02*
X165506250Y-130775000D01*
G75*
G02*
X165725000Y-130993750I0J-218750D01*
G01*
X165725000Y-131431250D01*
G75*
G02*
X165506250Y-131650000I-218750J0D01*
G01*
X164993750Y-131650000D01*
G75*
G02*
X164775000Y-131431250I0J218750D01*
G01*
X164775000Y-130993750D01*
G75*
G02*
X164993750Y-130775000I218750J0D01*
G01*
G37*
%TD*%
M02*
