%TF.GenerationSoftware,KiCad,Pcbnew,(5.1.6-0-10_14)*%
%TF.CreationDate,2020-09-14T20:33:51+02:00*%
%TF.ProjectId,Co2-Sensor,436f322d-5365-46e7-936f-722e6b696361,rev?*%
%TF.SameCoordinates,Original*%
%TF.FileFunction,Copper,L2,Bot*%
%TF.FilePolarity,Positive*%
%FSLAX46Y46*%
G04 Gerber Fmt 4.6, Leading zero omitted, Abs format (unit mm)*
G04 Created by KiCad (PCBNEW (5.1.6-0-10_14)) date 2020-09-14 20:33:51*
%MOMM*%
%LPD*%
G01*
G04 APERTURE LIST*
%TA.AperFunction,ComponentPad*%
%ADD10C,1.700000*%
%TD*%
%TA.AperFunction,ComponentPad*%
%ADD11R,1.700000X1.700000*%
%TD*%
%TA.AperFunction,ComponentPad*%
%ADD12O,1.000000X1.600000*%
%TD*%
%TA.AperFunction,ComponentPad*%
%ADD13O,1.000000X2.100000*%
%TD*%
%TA.AperFunction,ComponentPad*%
%ADD14O,1.700000X1.700000*%
%TD*%
%TA.AperFunction,ViaPad*%
%ADD15C,0.600000*%
%TD*%
%TA.AperFunction,Conductor*%
%ADD16C,0.200000*%
%TD*%
%TA.AperFunction,Conductor*%
%ADD17C,0.400000*%
%TD*%
%TA.AperFunction,Conductor*%
%ADD18C,0.127000*%
%TD*%
G04 APERTURE END LIST*
D10*
%TO.P,J2,7*%
%TO.N,GND*%
X149140000Y-108890000D03*
%TO.P,J2,6*%
%TO.N,Net-(J2-Pad6)*%
X146600000Y-108890000D03*
%TO.P,J2,5*%
%TO.N,Net-(J2-Pad5)*%
X144060000Y-108890000D03*
%TO.P,J2,4*%
%TO.N,/SDA*%
X141520000Y-108890000D03*
%TO.P,J2,3*%
%TO.N,/SCL*%
X138980000Y-108890000D03*
%TO.P,J2,2*%
%TO.N,GND*%
X136440000Y-108890000D03*
D11*
%TO.P,J2,1*%
%TO.N,+3V3*%
X133900000Y-108890000D03*
%TD*%
D12*
%TO.P,J5,S1*%
%TO.N,GND*%
X154320000Y-132575000D03*
X145680000Y-132575000D03*
D13*
X154320000Y-128395000D03*
X145680000Y-128395000D03*
%TD*%
D14*
%TO.P,J4,2*%
%TO.N,GND*%
X138070000Y-122460000D03*
D11*
%TO.P,J4,1*%
%TO.N,/VEXT*%
X138070000Y-125000000D03*
%TD*%
D10*
%TO.P,J1,7*%
%TO.N,/OLED_CS*%
X142380000Y-112700000D03*
%TO.P,J1,6*%
%TO.N,/OLED_DC*%
X144920000Y-112700000D03*
%TO.P,J1,5*%
%TO.N,/OLED_RESET*%
X147460000Y-112700000D03*
%TO.P,J1,4*%
%TO.N,/OLED_MOSI*%
X150000000Y-112700000D03*
%TO.P,J1,3*%
%TO.N,/OLED_CLK*%
X152540000Y-112700000D03*
%TO.P,J1,2*%
%TO.N,+3V3*%
X155080000Y-112700000D03*
D11*
%TO.P,J1,1*%
%TO.N,GND*%
X157620000Y-112700000D03*
%TD*%
D14*
%TO.P,J8,4*%
%TO.N,/SDA*%
X138070000Y-82855000D03*
%TO.P,J8,3*%
%TO.N,/SCL*%
X138070000Y-85395000D03*
%TO.P,J8,2*%
%TO.N,+3V3*%
X138070000Y-87935000D03*
D11*
%TO.P,J8,1*%
%TO.N,GND*%
X138070000Y-90475000D03*
%TD*%
D14*
%TO.P,J7,5*%
%TO.N,GND*%
X138070000Y-95555000D03*
%TO.P,J7,4*%
%TO.N,Net-(J7-Pad4)*%
X138070000Y-98095000D03*
%TO.P,J7,3*%
%TO.N,Net-(J7-Pad3)*%
X138070000Y-100635000D03*
%TO.P,J7,2*%
%TO.N,Net-(J7-Pad2)*%
X138070000Y-103175000D03*
D11*
%TO.P,J7,1*%
%TO.N,+5V*%
X138070000Y-105715000D03*
%TD*%
D14*
%TO.P,J6,4*%
%TO.N,/LED1_DATA*%
X161930000Y-103175000D03*
%TO.P,J6,3*%
%TO.N,/LED1_CLK*%
X161930000Y-100635000D03*
%TO.P,J6,2*%
%TO.N,Net-(C1-Pad1)*%
X161930000Y-98095000D03*
D11*
%TO.P,J6,1*%
%TO.N,GND*%
X161930000Y-95555000D03*
%TD*%
D14*
%TO.P,J3,4*%
%TO.N,/LED2_DATA*%
X161930000Y-90475000D03*
%TO.P,J3,3*%
%TO.N,/LED2_CLK*%
X161930000Y-87935000D03*
%TO.P,J3,2*%
%TO.N,Net-(C1-Pad1)*%
X161930000Y-85395000D03*
D11*
%TO.P,J3,1*%
%TO.N,GND*%
X161930000Y-82855000D03*
%TD*%
D15*
%TO.N,Net-(C2-Pad2)*%
X157750000Y-129527000D03*
X157750000Y-129527000D03*
X162850000Y-132750000D03*
%TO.N,GND*%
X158500000Y-126000000D03*
X163500000Y-126000000D03*
X163500000Y-131000000D03*
X156750000Y-128850000D03*
X165250000Y-131900000D03*
X165250000Y-128650000D03*
X153850000Y-125500000D03*
X146850000Y-124350000D03*
X156750000Y-125350000D03*
X138000000Y-119000000D03*
X132000000Y-119000000D03*
X142000000Y-119000000D03*
X148000000Y-119000000D03*
X152000000Y-119000000D03*
X158000000Y-119000000D03*
X162000000Y-119000000D03*
X168000000Y-119000000D03*
X168000000Y-119000000D03*
X150750000Y-122000000D03*
X150750000Y-122000000D03*
X167850000Y-126000000D03*
X167850000Y-124250000D03*
X167850000Y-122500000D03*
X134250000Y-77500000D03*
X161750000Y-78000000D03*
X161750000Y-78750000D03*
X161750000Y-79500000D03*
X161750000Y-79500000D03*
X157000000Y-77500000D03*
X149000000Y-87750000D03*
X149000000Y-82000000D03*
X152000000Y-84750000D03*
X146000000Y-84750000D03*
X141850000Y-98100000D03*
X136500000Y-111500000D03*
X133575000Y-112175000D03*
X133527000Y-113475000D03*
X144950000Y-105800000D03*
X148250000Y-105850000D03*
X158000000Y-108750000D03*
X154000000Y-107000000D03*
X137250000Y-79000000D03*
X137250000Y-78250000D03*
X137250000Y-79750000D03*
X140000000Y-77250000D03*
X143000000Y-77250000D03*
X143250000Y-95000000D03*
X146500000Y-98000000D03*
X146500000Y-97250000D03*
X146500000Y-98750000D03*
X159600000Y-132750000D03*
X130700000Y-108900000D03*
%TO.N,+3V3*%
X163000000Y-122473000D03*
X163000000Y-120500000D03*
X137300000Y-111747500D03*
X137300000Y-114002000D03*
%TO.N,/EN*%
X153750000Y-103250000D03*
X154500000Y-93000000D03*
%TO.N,/D+*%
X150777000Y-126750000D03*
X149723000Y-126750000D03*
%TO.N,Net-(J5-PadA5)*%
X148500000Y-129000000D03*
X146850000Y-126350000D03*
%TO.N,/~RTS*%
X161527000Y-125250000D03*
X160527000Y-110250000D03*
%TO.N,/~DTR*%
X159500000Y-125250000D03*
X161250000Y-110777000D03*
%TO.N,/TXD0*%
X162900000Y-124250000D03*
X160250000Y-81250000D03*
%TO.N,/RXD0*%
X159400000Y-124250000D03*
X157010000Y-82490000D03*
%TO.N,/IO2*%
X158750000Y-122500000D03*
X155750000Y-96500000D03*
X155750000Y-96500000D03*
%TO.N,/OLED_CS*%
X134125000Y-86665000D03*
%TO.N,/OLED_DC*%
X139847003Y-87935000D03*
%TO.N,/OLED_RESET*%
X135395000Y-89205000D03*
%TO.N,/OLED_MOSI*%
X136030000Y-91745000D03*
%TO.N,/OLED_CLK*%
X136665000Y-92380000D03*
%TO.N,/SPS30_RX*%
X141850000Y-105700000D03*
X150500000Y-89250000D03*
%TO.N,/SPS30_TX*%
X141850000Y-101900000D03*
X149750000Y-89250000D03*
%TO.N,/IO12*%
X152000000Y-109000000D03*
X151500000Y-92973000D03*
%TO.N,/IO13*%
X153000000Y-109000000D03*
X152500000Y-93000000D03*
%TO.N,/IO15*%
X154000000Y-109000000D03*
X153500000Y-93000000D03*
%TD*%
D16*
%TO.N,Net-(C2-Pad2)*%
X159627000Y-129527000D02*
X162850000Y-132750000D01*
X157750000Y-129527000D02*
X159627000Y-129527000D01*
%TO.N,GND*%
X165250000Y-128750000D02*
X165250000Y-128650000D01*
X153800000Y-125500000D02*
X153850000Y-125500000D01*
X146850000Y-124450000D02*
X146850000Y-124350000D01*
D17*
X145680000Y-130320000D02*
X136820000Y-130320000D01*
X145680000Y-132575000D02*
X145680000Y-130320000D01*
X145680000Y-130320000D02*
X145680000Y-128395000D01*
X136820000Y-130320000D02*
X136500000Y-130000000D01*
X136500000Y-130000000D02*
X136500000Y-122500000D01*
X138530000Y-122500000D02*
X138570000Y-122460000D01*
X136500000Y-122500000D02*
X138530000Y-122500000D01*
X145680000Y-130320000D02*
X154320000Y-130320000D01*
X154320000Y-130320000D02*
X154320000Y-132575000D01*
X154320000Y-128395000D02*
X154320000Y-130320000D01*
X165250000Y-128650000D02*
X163650000Y-128650000D01*
X163650000Y-128650000D02*
X163500000Y-128500000D01*
X163500000Y-131000000D02*
X163500000Y-128500000D01*
X164400000Y-131900000D02*
X163500000Y-131000000D01*
X165250000Y-131900000D02*
X164400000Y-131900000D01*
X156750000Y-127750000D02*
X158500000Y-126000000D01*
X156750000Y-128850000D02*
X156750000Y-127750000D01*
X158000000Y-125500000D02*
X158500000Y-126000000D01*
X156800000Y-125500000D02*
X158000000Y-125500000D01*
X153850000Y-125500000D02*
X156800000Y-125500000D01*
X144960000Y-122460000D02*
X146850000Y-124350000D01*
X138570000Y-122460000D02*
X144960000Y-122460000D01*
X162000000Y-119000000D02*
X168000000Y-119000000D01*
X158000000Y-119000000D02*
X152000000Y-119000000D01*
X142000000Y-119000000D02*
X148000000Y-119000000D01*
X138570000Y-119430000D02*
X139000000Y-119000000D01*
X138570000Y-122460000D02*
X138570000Y-119430000D01*
X139000000Y-119000000D02*
X142000000Y-119000000D01*
X138000000Y-119000000D02*
X139000000Y-119000000D01*
X150750000Y-122000000D02*
X150750000Y-119000000D01*
X150750000Y-119000000D02*
X148000000Y-119000000D01*
X152000000Y-119000000D02*
X150750000Y-119000000D01*
X167800000Y-125950000D02*
X167850000Y-126000000D01*
X167800000Y-124250000D02*
X167800000Y-125950000D01*
X167800000Y-124200000D02*
X167850000Y-124250000D01*
X167800000Y-122500000D02*
X167800000Y-124200000D01*
X163500000Y-126000000D02*
X167850000Y-126000000D01*
X161750000Y-79500000D02*
X161750000Y-78000000D01*
X142005000Y-95555000D02*
X142100000Y-95650000D01*
X141850000Y-95900000D02*
X142100000Y-95650000D01*
X138570000Y-95555000D02*
X138570000Y-90475000D01*
X153850000Y-127925000D02*
X154320000Y-128395000D01*
X153850000Y-125500000D02*
X153850000Y-127925000D01*
D16*
X157620000Y-118620000D02*
X158000000Y-119000000D01*
X157620000Y-112700000D02*
X157620000Y-118620000D01*
X133527000Y-112223000D02*
X133575000Y-112175000D01*
X133527000Y-113475000D02*
X133527000Y-112223000D01*
X133527000Y-118777000D02*
X133750000Y-119000000D01*
X133527000Y-113475000D02*
X133527000Y-118777000D01*
D17*
X133750000Y-119000000D02*
X132000000Y-119000000D01*
X138000000Y-119000000D02*
X133750000Y-119000000D01*
D16*
X134250000Y-111500000D02*
X133575000Y-112175000D01*
X136500000Y-111500000D02*
X134250000Y-111500000D01*
X144900000Y-105750000D02*
X144950000Y-105800000D01*
X144950000Y-105800000D02*
X146300000Y-105800000D01*
X148250000Y-105800000D02*
X146300000Y-105800000D01*
X156250000Y-107000000D02*
X158000000Y-108750000D01*
X154000000Y-107000000D02*
X156250000Y-107000000D01*
X157620000Y-109130000D02*
X158000000Y-108750000D01*
X157620000Y-112700000D02*
X157620000Y-109130000D01*
X158500000Y-126000000D02*
X159250000Y-126750000D01*
X159250000Y-126750000D02*
X163500000Y-126750000D01*
D17*
X163500000Y-126750000D02*
X163500000Y-126000000D01*
X163500000Y-128500000D02*
X163500000Y-126750000D01*
X137250000Y-79750000D02*
X137250000Y-77750000D01*
X137250000Y-77750000D02*
X137000000Y-77500000D01*
X134250000Y-77500000D02*
X137000000Y-77500000D01*
X140000000Y-77250000D02*
X143000000Y-77250000D01*
X137250000Y-77250000D02*
X137000000Y-77500000D01*
X140000000Y-77250000D02*
X137250000Y-77250000D01*
X141850000Y-96150000D02*
X141850000Y-95900000D01*
X141850000Y-98100000D02*
X141850000Y-96150000D01*
X140445000Y-95555000D02*
X142695000Y-95555000D01*
X142695000Y-95555000D02*
X143250000Y-95000000D01*
X138570000Y-95555000D02*
X140445000Y-95555000D01*
X140445000Y-95555000D02*
X142005000Y-95555000D01*
D16*
X159550000Y-132750000D02*
X159600000Y-132750000D01*
%TO.N,+3V3*%
X163000000Y-122473000D02*
X163000000Y-120500000D01*
X137300000Y-111747500D02*
X137300000Y-113970000D01*
X137300000Y-113970000D02*
X137300000Y-114002000D01*
%TO.N,/EN*%
X153500000Y-103000000D02*
X153750000Y-103250000D01*
X153500000Y-94000000D02*
X153500000Y-103000000D01*
X154500000Y-93000000D02*
X153500000Y-94000000D01*
%TO.N,/D+*%
X149723000Y-126750000D02*
X150777000Y-126750000D01*
%TO.N,Net-(J5-PadA5)*%
X146850000Y-127350000D02*
X148500000Y-129000000D01*
X146850000Y-126350000D02*
X146850000Y-127350000D01*
%TO.N,/~RTS*%
X162000000Y-124777000D02*
X161527000Y-125250000D01*
X163750000Y-124500000D02*
X163473000Y-124777000D01*
X163750000Y-123750000D02*
X163750000Y-124500000D01*
X163500000Y-123500000D02*
X163750000Y-123750000D01*
X160750000Y-123500000D02*
X163500000Y-123500000D01*
X163473000Y-124777000D02*
X162000000Y-124777000D01*
X160500000Y-123250000D02*
X160750000Y-123500000D01*
X160500000Y-111750000D02*
X160500000Y-123250000D01*
X160500000Y-111750000D02*
X160500000Y-110250000D01*
X160500000Y-110250000D02*
X160527000Y-110250000D01*
%TO.N,/~DTR*%
X160027001Y-125777001D02*
X161972999Y-125777001D01*
X161000000Y-122750000D02*
X161000000Y-115000000D01*
X164000000Y-123000000D02*
X161250000Y-123000000D01*
X164250000Y-123250000D02*
X164000000Y-123000000D01*
X164250000Y-125000000D02*
X164250000Y-123250000D01*
X161972999Y-125777001D02*
X162500000Y-125250000D01*
X162500000Y-125250000D02*
X164000000Y-125250000D01*
X164000000Y-125250000D02*
X164250000Y-125000000D01*
X161250000Y-123000000D02*
X161000000Y-122750000D01*
X159500000Y-125250000D02*
X160027001Y-125777001D01*
X161000000Y-111027000D02*
X161250000Y-110777000D01*
X161000000Y-115000000D02*
X161000000Y-111027000D01*
%TO.N,/TXD0*%
X162850000Y-124250000D02*
X162900000Y-124250000D01*
X160250000Y-124250000D02*
X161750000Y-124250000D01*
X160250000Y-81250000D02*
X160000000Y-81500000D01*
X161750000Y-124250000D02*
X162900000Y-124250000D01*
X160000000Y-81500000D02*
X160000000Y-124000000D01*
X160000000Y-124000000D02*
X160250000Y-124250000D01*
%TO.N,/RXD0*%
X159550000Y-124250000D02*
X159400000Y-124250000D01*
X159400000Y-124250000D02*
X159400000Y-124100000D01*
X159400000Y-124100000D02*
X159500000Y-124000000D01*
X159500000Y-124000000D02*
X159500000Y-108250000D01*
X159250000Y-82500000D02*
X157020000Y-82500000D01*
X159500000Y-82750000D02*
X159250000Y-82500000D01*
X159500000Y-108250000D02*
X159500000Y-82750000D01*
X157020000Y-82500000D02*
X157010000Y-82490000D01*
%TO.N,/IO2*%
X158750000Y-122500000D02*
X159000000Y-122250000D01*
X159000000Y-122250000D02*
X159000000Y-121500000D01*
X159000000Y-99750000D02*
X159000000Y-100000000D01*
X159000000Y-99500000D02*
X159000000Y-99750000D01*
X159000000Y-121500000D02*
X159000000Y-99500000D01*
X158750000Y-96500000D02*
X159000000Y-96750000D01*
X155750000Y-96500000D02*
X158750000Y-96500000D01*
X159000000Y-99500000D02*
X159000000Y-96750000D01*
%TO.N,/OLED_CS*%
X134125000Y-107302500D02*
X134125000Y-86665000D01*
X137300000Y-107620000D02*
X134442500Y-107620000D01*
X137617500Y-107937500D02*
X137300000Y-107620000D01*
X137617500Y-109525000D02*
X137617500Y-107937500D01*
X134442500Y-107620000D02*
X134125000Y-107302500D01*
X138252500Y-110160000D02*
X137617500Y-109525000D01*
X139840000Y-110160000D02*
X138252500Y-110160000D01*
X142380000Y-112700000D02*
X139840000Y-110160000D01*
%TO.N,/OLED_DC*%
X139847003Y-87307003D02*
X139847003Y-87935000D01*
X139205000Y-86665000D02*
X139847003Y-87307003D01*
X140157500Y-107302500D02*
X139997500Y-107142500D01*
X135395000Y-86665000D02*
X139205000Y-86665000D01*
X134760000Y-87300000D02*
X135395000Y-86665000D01*
X140157500Y-109525000D02*
X140157500Y-107302500D01*
X139997500Y-107142500D02*
X135235000Y-107142500D01*
X140792500Y-110160000D02*
X140157500Y-109525000D01*
X134760000Y-106667500D02*
X134760000Y-87300000D01*
X135235000Y-107142500D02*
X134760000Y-106667500D01*
X142380000Y-110160000D02*
X140792500Y-110160000D01*
X144920000Y-112700000D02*
X142380000Y-110160000D01*
%TO.N,/OLED_RESET*%
X142380000Y-107620000D02*
X141110000Y-107620000D01*
X147460000Y-112700000D02*
X144920000Y-110160000D01*
X144920000Y-110160000D02*
X143015000Y-110160000D01*
X142597001Y-107837001D02*
X142380000Y-107620000D01*
X143015000Y-110160000D02*
X142597001Y-109742001D01*
X142597001Y-109742001D02*
X142597001Y-107837001D01*
X141110000Y-107620000D02*
X139205000Y-105715000D01*
X139205000Y-105715000D02*
X139205000Y-104762500D01*
X139205000Y-104762500D02*
X138887500Y-104445000D01*
X138887500Y-104445000D02*
X135712500Y-104445000D01*
X135712500Y-104445000D02*
X135395000Y-104127500D01*
X135395000Y-104127500D02*
X135395000Y-89205000D01*
%TO.N,/OLED_MOSI*%
X141427500Y-106985000D02*
X139840000Y-105397500D01*
X145137001Y-107202001D02*
X144920000Y-106985000D01*
X139840000Y-105397500D02*
X139840000Y-104445000D01*
X145137001Y-109424501D02*
X145137001Y-107202001D01*
X145872500Y-110160000D02*
X145137001Y-109424501D01*
X144920000Y-106985000D02*
X141427500Y-106985000D01*
X147460000Y-110160000D02*
X145872500Y-110160000D01*
X150000000Y-112700000D02*
X147460000Y-110160000D01*
X139840000Y-102222500D02*
X139840000Y-104445000D01*
X139522500Y-101905000D02*
X139840000Y-102222500D01*
X136030000Y-101587500D02*
X136347500Y-101905000D01*
X136347500Y-101905000D02*
X139522500Y-101905000D01*
X136030000Y-91745000D02*
X136030000Y-101587500D01*
X139840000Y-102540000D02*
X139840000Y-105397500D01*
X139840000Y-102222500D02*
X139840000Y-102540000D01*
%TO.N,/OLED_CLK*%
X150288970Y-110448970D02*
X152540000Y-112700000D01*
X140475000Y-105397500D02*
X141427500Y-106350000D01*
X136982500Y-99365000D02*
X140157500Y-99365000D01*
X148441030Y-110448970D02*
X150288970Y-110448970D01*
X147777500Y-106667500D02*
X147777500Y-109785440D01*
X147460000Y-106350000D02*
X147777500Y-106667500D01*
X136665000Y-99047500D02*
X136982500Y-99365000D01*
X140475000Y-99682500D02*
X140475000Y-105397500D01*
X147777500Y-109785440D02*
X148441030Y-110448970D01*
X141427500Y-106350000D02*
X147460000Y-106350000D01*
X140157500Y-99365000D02*
X140475000Y-99682500D01*
X136665000Y-92380000D02*
X136665000Y-99047500D01*
D17*
%TO.N,/SPS30_RX*%
X141800000Y-105700000D02*
X141850000Y-105700000D01*
D16*
X141850000Y-105700000D02*
X150275000Y-97275000D01*
X150275000Y-91725000D02*
X150275000Y-90725000D01*
X150275000Y-97275000D02*
X150275000Y-91725000D01*
X150275000Y-89475000D02*
X150500000Y-89250000D01*
X150275000Y-91725000D02*
X150275000Y-89475000D01*
D17*
%TO.N,/SPS30_TX*%
X141800000Y-101900000D02*
X141850000Y-101900000D01*
D16*
X145100000Y-101900000D02*
X141850000Y-101900000D01*
X149750000Y-97250000D02*
X145100000Y-101900000D01*
X149750000Y-89250000D02*
X149750000Y-97250000D01*
%TO.N,/IO12*%
X152000000Y-109000000D02*
X152000000Y-107000000D01*
X152000000Y-107000000D02*
X152000000Y-97250000D01*
X152000000Y-93473000D02*
X151500000Y-92973000D01*
X152000000Y-97250000D02*
X152000000Y-93473000D01*
%TO.N,/IO13*%
X153000000Y-109000000D02*
X152500000Y-108500000D01*
X152500000Y-108500000D02*
X152500000Y-107000000D01*
X152500000Y-107000000D02*
X152500000Y-97000000D01*
X152500000Y-93750000D02*
X152500000Y-93000000D01*
X152500000Y-97000000D02*
X152500000Y-93750000D01*
X152500000Y-93750000D02*
X152500000Y-93250000D01*
%TO.N,/IO15*%
X154000000Y-109000000D02*
X153000000Y-108000000D01*
X153000000Y-108000000D02*
X153000000Y-107000000D01*
X153000000Y-107000000D02*
X153000000Y-97250000D01*
X153000000Y-93500000D02*
X153500000Y-93000000D01*
X153000000Y-97250000D02*
X153000000Y-93500000D01*
%TD*%
D18*
%TO.N,GND*%
G36*
X169592471Y-69394169D02*
G01*
X170184444Y-69568397D01*
X170731307Y-69854290D01*
X171212221Y-70240954D01*
X171608873Y-70713666D01*
X171906157Y-71254423D01*
X172092742Y-71842614D01*
X172163240Y-72471121D01*
X172163451Y-72501345D01*
X172163450Y-130483538D01*
X172101619Y-131114138D01*
X171923262Y-131704884D01*
X171633560Y-132249733D01*
X171243546Y-132727939D01*
X170768077Y-133121281D01*
X170225262Y-133414780D01*
X169635774Y-133597257D01*
X169006216Y-133663426D01*
X168999404Y-133663450D01*
X154510502Y-133663450D01*
X154510502Y-133588120D01*
X154632519Y-133630406D01*
X154766994Y-133583053D01*
X154896539Y-133482244D01*
X155003928Y-133358099D01*
X155085035Y-133215389D01*
X155136742Y-133059598D01*
X155157062Y-132896713D01*
X155070778Y-132765500D01*
X154510500Y-132765500D01*
X154510500Y-132785500D01*
X154129500Y-132785500D01*
X154129500Y-132765500D01*
X153569222Y-132765500D01*
X153482938Y-132896713D01*
X153503258Y-133059598D01*
X153554965Y-133215389D01*
X153636072Y-133358099D01*
X153743461Y-133482244D01*
X153873006Y-133583053D01*
X154007481Y-133630406D01*
X154129498Y-133588120D01*
X154129498Y-133663450D01*
X145870502Y-133663450D01*
X145870502Y-133588120D01*
X145992519Y-133630406D01*
X146126994Y-133583053D01*
X146256539Y-133482244D01*
X146363928Y-133358099D01*
X146445035Y-133215389D01*
X146496742Y-133059598D01*
X146517062Y-132896713D01*
X146430778Y-132765500D01*
X145870500Y-132765500D01*
X145870500Y-132785500D01*
X145489500Y-132785500D01*
X145489500Y-132765500D01*
X144929222Y-132765500D01*
X144842938Y-132896713D01*
X144863258Y-133059598D01*
X144914965Y-133215389D01*
X144996072Y-133358099D01*
X145103461Y-133482244D01*
X145233006Y-133583053D01*
X145367481Y-133630406D01*
X145489498Y-133588120D01*
X145489498Y-133663450D01*
X131016462Y-133663450D01*
X130385862Y-133601619D01*
X129795116Y-133423262D01*
X129250267Y-133133560D01*
X128772061Y-132743546D01*
X128378719Y-132268077D01*
X128085220Y-131725262D01*
X127902743Y-131135774D01*
X127836574Y-130506216D01*
X127836550Y-130499404D01*
X127836550Y-130311143D01*
X129082500Y-130311143D01*
X129082500Y-130688857D01*
X129156188Y-131059314D01*
X129300734Y-131408277D01*
X129510580Y-131722335D01*
X129777665Y-131989420D01*
X130091723Y-132199266D01*
X130440686Y-132343812D01*
X130811143Y-132417500D01*
X131188857Y-132417500D01*
X131559314Y-132343812D01*
X131777859Y-132253287D01*
X144842938Y-132253287D01*
X144929222Y-132384500D01*
X145489500Y-132384500D01*
X145489500Y-131561881D01*
X145870500Y-131561881D01*
X145870500Y-132384500D01*
X146430778Y-132384500D01*
X146517062Y-132253287D01*
X153482938Y-132253287D01*
X153569222Y-132384500D01*
X154129500Y-132384500D01*
X154129500Y-131561881D01*
X154510500Y-131561881D01*
X154510500Y-132384500D01*
X155070778Y-132384500D01*
X155157062Y-132253287D01*
X155136742Y-132090402D01*
X155085035Y-131934611D01*
X155003928Y-131791901D01*
X154896539Y-131667756D01*
X154766994Y-131566947D01*
X154632519Y-131519594D01*
X154510500Y-131561881D01*
X154129500Y-131561881D01*
X154007481Y-131519594D01*
X153873006Y-131566947D01*
X153743461Y-131667756D01*
X153636072Y-131791901D01*
X153554965Y-131934611D01*
X153503258Y-132090402D01*
X153482938Y-132253287D01*
X146517062Y-132253287D01*
X146496742Y-132090402D01*
X146445035Y-131934611D01*
X146363928Y-131791901D01*
X146256539Y-131667756D01*
X146126994Y-131566947D01*
X145992519Y-131519594D01*
X145870500Y-131561881D01*
X145489500Y-131561881D01*
X145367481Y-131519594D01*
X145233006Y-131566947D01*
X145103461Y-131667756D01*
X144996072Y-131791901D01*
X144914965Y-131934611D01*
X144863258Y-132090402D01*
X144842938Y-132253287D01*
X131777859Y-132253287D01*
X131908277Y-132199266D01*
X132222335Y-131989420D01*
X132489420Y-131722335D01*
X132699266Y-131408277D01*
X132843812Y-131059314D01*
X132917500Y-130688857D01*
X132917500Y-130311143D01*
X132843812Y-129940686D01*
X132699266Y-129591723D01*
X132489420Y-129277665D01*
X132222335Y-129010580D01*
X131908277Y-128800734D01*
X131559314Y-128656188D01*
X131203940Y-128585500D01*
X144862500Y-128585500D01*
X144862500Y-129135500D01*
X144915373Y-129291326D01*
X144997630Y-129433843D01*
X145106110Y-129557574D01*
X145236644Y-129657764D01*
X145367481Y-129700406D01*
X145489500Y-129658119D01*
X145489500Y-128585500D01*
X145870500Y-128585500D01*
X145870500Y-129658119D01*
X145992519Y-129700406D01*
X146123356Y-129657764D01*
X146253890Y-129557574D01*
X146362370Y-129433843D01*
X146444627Y-129291326D01*
X146497500Y-129135500D01*
X146497500Y-129095227D01*
X146540624Y-129199338D01*
X146610937Y-129304570D01*
X146700430Y-129394063D01*
X146805662Y-129464376D01*
X146922590Y-129512809D01*
X147046719Y-129537500D01*
X147173281Y-129537500D01*
X147297410Y-129512809D01*
X147414338Y-129464376D01*
X147519570Y-129394063D01*
X147609063Y-129304570D01*
X147679376Y-129199338D01*
X147727809Y-129082410D01*
X147752500Y-128958281D01*
X147752500Y-128842934D01*
X147882500Y-128972934D01*
X147882500Y-129060818D01*
X147906230Y-129180118D01*
X147952778Y-129292496D01*
X148020356Y-129393633D01*
X148106367Y-129479644D01*
X148207504Y-129547222D01*
X148319882Y-129593770D01*
X148439182Y-129617500D01*
X148560818Y-129617500D01*
X148680118Y-129593770D01*
X148792496Y-129547222D01*
X148893633Y-129479644D01*
X148979644Y-129393633D01*
X149047222Y-129292496D01*
X149093770Y-129180118D01*
X149117500Y-129060818D01*
X149117500Y-128939182D01*
X149096125Y-128831719D01*
X152247500Y-128831719D01*
X152247500Y-128958281D01*
X152272191Y-129082410D01*
X152320624Y-129199338D01*
X152390937Y-129304570D01*
X152480430Y-129394063D01*
X152585662Y-129464376D01*
X152702590Y-129512809D01*
X152826719Y-129537500D01*
X152953281Y-129537500D01*
X153077410Y-129512809D01*
X153194338Y-129464376D01*
X153299570Y-129394063D01*
X153389063Y-129304570D01*
X153459376Y-129199338D01*
X153502500Y-129095227D01*
X153502500Y-129135500D01*
X153555373Y-129291326D01*
X153637630Y-129433843D01*
X153746110Y-129557574D01*
X153876644Y-129657764D01*
X154007481Y-129700406D01*
X154129500Y-129658119D01*
X154129500Y-128585500D01*
X154510500Y-128585500D01*
X154510500Y-129658119D01*
X154632519Y-129700406D01*
X154763356Y-129657764D01*
X154893890Y-129557574D01*
X154974017Y-129466182D01*
X157132500Y-129466182D01*
X157132500Y-129587818D01*
X157156230Y-129707118D01*
X157202778Y-129819496D01*
X157270356Y-129920633D01*
X157356367Y-130006644D01*
X157457504Y-130074222D01*
X157569882Y-130120770D01*
X157689182Y-130144500D01*
X157810818Y-130144500D01*
X157930118Y-130120770D01*
X158042496Y-130074222D01*
X158143633Y-130006644D01*
X158205777Y-129944500D01*
X159454066Y-129944500D01*
X162232500Y-132722934D01*
X162232500Y-132810818D01*
X162256230Y-132930118D01*
X162302778Y-133042496D01*
X162370356Y-133143633D01*
X162456367Y-133229644D01*
X162557504Y-133297222D01*
X162669882Y-133343770D01*
X162789182Y-133367500D01*
X162910818Y-133367500D01*
X163030118Y-133343770D01*
X163142496Y-133297222D01*
X163243633Y-133229644D01*
X163329644Y-133143633D01*
X163397222Y-133042496D01*
X163443770Y-132930118D01*
X163467500Y-132810818D01*
X163467500Y-132689182D01*
X163443770Y-132569882D01*
X163397222Y-132457504D01*
X163329644Y-132356367D01*
X163243633Y-132270356D01*
X163142496Y-132202778D01*
X163030118Y-132156230D01*
X162910818Y-132132500D01*
X162822934Y-132132500D01*
X161001577Y-130311143D01*
X167082500Y-130311143D01*
X167082500Y-130688857D01*
X167156188Y-131059314D01*
X167300734Y-131408277D01*
X167510580Y-131722335D01*
X167777665Y-131989420D01*
X168091723Y-132199266D01*
X168440686Y-132343812D01*
X168811143Y-132417500D01*
X169188857Y-132417500D01*
X169559314Y-132343812D01*
X169908277Y-132199266D01*
X170222335Y-131989420D01*
X170489420Y-131722335D01*
X170699266Y-131408277D01*
X170843812Y-131059314D01*
X170917500Y-130688857D01*
X170917500Y-130311143D01*
X170843812Y-129940686D01*
X170699266Y-129591723D01*
X170489420Y-129277665D01*
X170222335Y-129010580D01*
X169908277Y-128800734D01*
X169559314Y-128656188D01*
X169188857Y-128582500D01*
X168811143Y-128582500D01*
X168440686Y-128656188D01*
X168091723Y-128800734D01*
X167777665Y-129010580D01*
X167510580Y-129277665D01*
X167300734Y-129591723D01*
X167156188Y-129940686D01*
X167082500Y-130311143D01*
X161001577Y-130311143D01*
X159936717Y-129246283D01*
X159923645Y-129230355D01*
X159860073Y-129178182D01*
X159787543Y-129139414D01*
X159708844Y-129115541D01*
X159647509Y-129109500D01*
X159647502Y-129109500D01*
X159627000Y-129107481D01*
X159606498Y-129109500D01*
X158205777Y-129109500D01*
X158143633Y-129047356D01*
X158042496Y-128979778D01*
X157930118Y-128933230D01*
X157810818Y-128909500D01*
X157689182Y-128909500D01*
X157569882Y-128933230D01*
X157457504Y-128979778D01*
X157356367Y-129047356D01*
X157270356Y-129133367D01*
X157202778Y-129234504D01*
X157156230Y-129346882D01*
X157132500Y-129466182D01*
X154974017Y-129466182D01*
X155002370Y-129433843D01*
X155084627Y-129291326D01*
X155137500Y-129135500D01*
X155137500Y-128585500D01*
X154510500Y-128585500D01*
X154129500Y-128585500D01*
X153502500Y-128585500D01*
X153502500Y-128694773D01*
X153459376Y-128590662D01*
X153389063Y-128485430D01*
X153299570Y-128395937D01*
X153194338Y-128325624D01*
X153077410Y-128277191D01*
X152953281Y-128252500D01*
X152826719Y-128252500D01*
X152702590Y-128277191D01*
X152585662Y-128325624D01*
X152480430Y-128395937D01*
X152390937Y-128485430D01*
X152320624Y-128590662D01*
X152272191Y-128707590D01*
X152247500Y-128831719D01*
X149096125Y-128831719D01*
X149093770Y-128819882D01*
X149047222Y-128707504D01*
X148979644Y-128606367D01*
X148893633Y-128520356D01*
X148792496Y-128452778D01*
X148680118Y-128406230D01*
X148560818Y-128382500D01*
X148472934Y-128382500D01*
X147744934Y-127654500D01*
X153502500Y-127654500D01*
X153502500Y-128204500D01*
X154129500Y-128204500D01*
X154129500Y-127131881D01*
X154510500Y-127131881D01*
X154510500Y-128204500D01*
X155137500Y-128204500D01*
X155137500Y-127654500D01*
X155084627Y-127498674D01*
X155002370Y-127356157D01*
X154893890Y-127232426D01*
X154763356Y-127132236D01*
X154632519Y-127089594D01*
X154510500Y-127131881D01*
X154129500Y-127131881D01*
X154007481Y-127089594D01*
X153876644Y-127132236D01*
X153746110Y-127232426D01*
X153637630Y-127356157D01*
X153555373Y-127498674D01*
X153502500Y-127654500D01*
X147744934Y-127654500D01*
X147267500Y-127177066D01*
X147267500Y-126805777D01*
X147329644Y-126743633D01*
X147366027Y-126689182D01*
X149105500Y-126689182D01*
X149105500Y-126810818D01*
X149129230Y-126930118D01*
X149175778Y-127042496D01*
X149243356Y-127143633D01*
X149329367Y-127229644D01*
X149430504Y-127297222D01*
X149542882Y-127343770D01*
X149662182Y-127367500D01*
X149783818Y-127367500D01*
X149903118Y-127343770D01*
X150015496Y-127297222D01*
X150116633Y-127229644D01*
X150178777Y-127167500D01*
X150321223Y-127167500D01*
X150383367Y-127229644D01*
X150484504Y-127297222D01*
X150596882Y-127343770D01*
X150716182Y-127367500D01*
X150837818Y-127367500D01*
X150957118Y-127343770D01*
X151069496Y-127297222D01*
X151170633Y-127229644D01*
X151256644Y-127143633D01*
X151324222Y-127042496D01*
X151370770Y-126930118D01*
X151394500Y-126810818D01*
X151394500Y-126689182D01*
X151370770Y-126569882D01*
X151324222Y-126457504D01*
X151256644Y-126356367D01*
X151170633Y-126270356D01*
X151069496Y-126202778D01*
X150957118Y-126156230D01*
X150837818Y-126132500D01*
X150716182Y-126132500D01*
X150596882Y-126156230D01*
X150484504Y-126202778D01*
X150383367Y-126270356D01*
X150321223Y-126332500D01*
X150178777Y-126332500D01*
X150116633Y-126270356D01*
X150015496Y-126202778D01*
X149903118Y-126156230D01*
X149783818Y-126132500D01*
X149662182Y-126132500D01*
X149542882Y-126156230D01*
X149430504Y-126202778D01*
X149329367Y-126270356D01*
X149243356Y-126356367D01*
X149175778Y-126457504D01*
X149129230Y-126569882D01*
X149105500Y-126689182D01*
X147366027Y-126689182D01*
X147397222Y-126642496D01*
X147443770Y-126530118D01*
X147467500Y-126410818D01*
X147467500Y-126289182D01*
X147443770Y-126169882D01*
X147397222Y-126057504D01*
X147329644Y-125956367D01*
X147243633Y-125870356D01*
X147142496Y-125802778D01*
X147030118Y-125756230D01*
X146910818Y-125732500D01*
X146789182Y-125732500D01*
X146669882Y-125756230D01*
X146557504Y-125802778D01*
X146456367Y-125870356D01*
X146370356Y-125956367D01*
X146302778Y-126057504D01*
X146256230Y-126169882D01*
X146232500Y-126289182D01*
X146232500Y-126410818D01*
X146256230Y-126530118D01*
X146302778Y-126642496D01*
X146370356Y-126743633D01*
X146432500Y-126805777D01*
X146432501Y-127329489D01*
X146430481Y-127350000D01*
X146438541Y-127431844D01*
X146462415Y-127510543D01*
X146501183Y-127583073D01*
X146540281Y-127630715D01*
X146540289Y-127630723D01*
X146553356Y-127646645D01*
X146569278Y-127659712D01*
X147162066Y-128252500D01*
X147046719Y-128252500D01*
X146922590Y-128277191D01*
X146805662Y-128325624D01*
X146700430Y-128395937D01*
X146610937Y-128485430D01*
X146540624Y-128590662D01*
X146497500Y-128694773D01*
X146497500Y-128585500D01*
X145870500Y-128585500D01*
X145489500Y-128585500D01*
X144862500Y-128585500D01*
X131203940Y-128585500D01*
X131188857Y-128582500D01*
X130811143Y-128582500D01*
X130440686Y-128656188D01*
X130091723Y-128800734D01*
X129777665Y-129010580D01*
X129510580Y-129277665D01*
X129300734Y-129591723D01*
X129156188Y-129940686D01*
X129082500Y-130311143D01*
X127836550Y-130311143D01*
X127836550Y-127654500D01*
X144862500Y-127654500D01*
X144862500Y-128204500D01*
X145489500Y-128204500D01*
X145489500Y-127131881D01*
X145870500Y-127131881D01*
X145870500Y-128204500D01*
X146497500Y-128204500D01*
X146497500Y-127654500D01*
X146444627Y-127498674D01*
X146362370Y-127356157D01*
X146253890Y-127232426D01*
X146123356Y-127132236D01*
X145992519Y-127089594D01*
X145870500Y-127131881D01*
X145489500Y-127131881D01*
X145367481Y-127089594D01*
X145236644Y-127132236D01*
X145106110Y-127232426D01*
X144997630Y-127356157D01*
X144915373Y-127498674D01*
X144862500Y-127654500D01*
X127836550Y-127654500D01*
X127836550Y-124150000D01*
X136900964Y-124150000D01*
X136900964Y-125850000D01*
X136907094Y-125912241D01*
X136925249Y-125972090D01*
X136954731Y-126027247D01*
X136994407Y-126075593D01*
X137042753Y-126115269D01*
X137097910Y-126144751D01*
X137157759Y-126162906D01*
X137220000Y-126169036D01*
X138920000Y-126169036D01*
X138982241Y-126162906D01*
X139042090Y-126144751D01*
X139097247Y-126115269D01*
X139145593Y-126075593D01*
X139185269Y-126027247D01*
X139214751Y-125972090D01*
X139232906Y-125912241D01*
X139239036Y-125850000D01*
X139239036Y-124150000D01*
X139232906Y-124087759D01*
X139214751Y-124027910D01*
X139185269Y-123972753D01*
X139145593Y-123924407D01*
X139097247Y-123884731D01*
X139042090Y-123855249D01*
X138982241Y-123837094D01*
X138920000Y-123830964D01*
X137220000Y-123830964D01*
X137157759Y-123837094D01*
X137097910Y-123855249D01*
X137042753Y-123884731D01*
X136994407Y-123924407D01*
X136954731Y-123972753D01*
X136925249Y-124027910D01*
X136907094Y-124087759D01*
X136900964Y-124150000D01*
X127836550Y-124150000D01*
X127836550Y-122828344D01*
X136962129Y-122828344D01*
X137026150Y-122982931D01*
X137148226Y-123176528D01*
X137305725Y-123342589D01*
X137492595Y-123474733D01*
X137701654Y-123567881D01*
X137879500Y-123532488D01*
X137879500Y-122650500D01*
X138260500Y-122650500D01*
X138260500Y-123532488D01*
X138438346Y-123567881D01*
X138647405Y-123474733D01*
X138834275Y-123342589D01*
X138991774Y-123176528D01*
X139113850Y-122982931D01*
X139177871Y-122828344D01*
X139141320Y-122650500D01*
X138260500Y-122650500D01*
X137879500Y-122650500D01*
X136998680Y-122650500D01*
X136962129Y-122828344D01*
X127836550Y-122828344D01*
X127836550Y-122091656D01*
X136962129Y-122091656D01*
X136998680Y-122269500D01*
X137879500Y-122269500D01*
X137879500Y-121387512D01*
X138260500Y-121387512D01*
X138260500Y-122269500D01*
X139141320Y-122269500D01*
X139177871Y-122091656D01*
X139113850Y-121937069D01*
X138991774Y-121743472D01*
X138834275Y-121577411D01*
X138647405Y-121445267D01*
X138438346Y-121352119D01*
X138260500Y-121387512D01*
X137879500Y-121387512D01*
X137701654Y-121352119D01*
X137492595Y-121445267D01*
X137305725Y-121577411D01*
X137148226Y-121743472D01*
X137026150Y-121937069D01*
X136962129Y-122091656D01*
X127836550Y-122091656D01*
X127836550Y-112030841D01*
X129382500Y-112030841D01*
X129382500Y-112369159D01*
X129448503Y-112700976D01*
X129577971Y-113013541D01*
X129765931Y-113294842D01*
X130005158Y-113534069D01*
X130286459Y-113722029D01*
X130599024Y-113851497D01*
X130930841Y-113917500D01*
X131269159Y-113917500D01*
X131600976Y-113851497D01*
X131913541Y-113722029D01*
X132194842Y-113534069D01*
X132434069Y-113294842D01*
X132622029Y-113013541D01*
X132751497Y-112700976D01*
X132817500Y-112369159D01*
X132817500Y-112030841D01*
X132751497Y-111699024D01*
X132746385Y-111686682D01*
X136682500Y-111686682D01*
X136682500Y-111808318D01*
X136706230Y-111927618D01*
X136752778Y-112039996D01*
X136820356Y-112141133D01*
X136882500Y-112203277D01*
X136882501Y-113546222D01*
X136820356Y-113608367D01*
X136752778Y-113709504D01*
X136706230Y-113821882D01*
X136682500Y-113941182D01*
X136682500Y-114062818D01*
X136706230Y-114182118D01*
X136752778Y-114294496D01*
X136820356Y-114395633D01*
X136906367Y-114481644D01*
X137007504Y-114549222D01*
X137119882Y-114595770D01*
X137239182Y-114619500D01*
X137360818Y-114619500D01*
X137480118Y-114595770D01*
X137592496Y-114549222D01*
X137693633Y-114481644D01*
X137779644Y-114395633D01*
X137847222Y-114294496D01*
X137893770Y-114182118D01*
X137917500Y-114062818D01*
X137917500Y-113941182D01*
X137893770Y-113821882D01*
X137847222Y-113709504D01*
X137779644Y-113608367D01*
X137717500Y-113546223D01*
X137717500Y-112203277D01*
X137779644Y-112141133D01*
X137847222Y-112039996D01*
X137893770Y-111927618D01*
X137917500Y-111808318D01*
X137917500Y-111686682D01*
X137893770Y-111567382D01*
X137847222Y-111455004D01*
X137779644Y-111353867D01*
X137693633Y-111267856D01*
X137592496Y-111200278D01*
X137480118Y-111153730D01*
X137360818Y-111130000D01*
X137239182Y-111130000D01*
X137119882Y-111153730D01*
X137007504Y-111200278D01*
X136906367Y-111267856D01*
X136820356Y-111353867D01*
X136752778Y-111455004D01*
X136706230Y-111567382D01*
X136682500Y-111686682D01*
X132746385Y-111686682D01*
X132622029Y-111386459D01*
X132434069Y-111105158D01*
X132194842Y-110865931D01*
X131913541Y-110677971D01*
X131600976Y-110548503D01*
X131269159Y-110482500D01*
X130930841Y-110482500D01*
X130599024Y-110548503D01*
X130286459Y-110677971D01*
X130005158Y-110865931D01*
X129765931Y-111105158D01*
X129577971Y-111386459D01*
X129448503Y-111699024D01*
X129382500Y-112030841D01*
X127836550Y-112030841D01*
X127836550Y-108040000D01*
X132730964Y-108040000D01*
X132730964Y-109740000D01*
X132737094Y-109802241D01*
X132755249Y-109862090D01*
X132784731Y-109917247D01*
X132824407Y-109965593D01*
X132872753Y-110005269D01*
X132927910Y-110034751D01*
X132987759Y-110052906D01*
X133050000Y-110059036D01*
X134750000Y-110059036D01*
X134812241Y-110052906D01*
X134872090Y-110034751D01*
X134927247Y-110005269D01*
X134975593Y-109965593D01*
X135015269Y-109917247D01*
X135044751Y-109862090D01*
X135062906Y-109802241D01*
X135069036Y-109740000D01*
X135069036Y-108805004D01*
X135269933Y-108805004D01*
X135275834Y-109034907D01*
X135326474Y-109259240D01*
X135391525Y-109416290D01*
X135543702Y-109516890D01*
X136170592Y-108890000D01*
X135543702Y-108263110D01*
X135391525Y-108363710D01*
X135308998Y-108578369D01*
X135269933Y-108805004D01*
X135069036Y-108805004D01*
X135069036Y-108040000D01*
X135068790Y-108037500D01*
X135856908Y-108037500D01*
X136440000Y-108620592D01*
X136454142Y-108606450D01*
X136723550Y-108875858D01*
X136709408Y-108890000D01*
X136723550Y-108904142D01*
X136454142Y-109173550D01*
X136440000Y-109159408D01*
X135813110Y-109786298D01*
X135913710Y-109938475D01*
X136128369Y-110021002D01*
X136355004Y-110060067D01*
X136584907Y-110054166D01*
X136809240Y-110003526D01*
X136966290Y-109938475D01*
X137066889Y-109786300D01*
X137134619Y-109854030D01*
X137255409Y-109733240D01*
X137260092Y-109742001D01*
X137268683Y-109758073D01*
X137307781Y-109805715D01*
X137307784Y-109805718D01*
X137320855Y-109821645D01*
X137336783Y-109834717D01*
X137942781Y-110440715D01*
X137955855Y-110456645D01*
X137971783Y-110469717D01*
X137971785Y-110469719D01*
X138019427Y-110508818D01*
X138091956Y-110547586D01*
X138170656Y-110571459D01*
X138231991Y-110577500D01*
X138231998Y-110577500D01*
X138252500Y-110579519D01*
X138273002Y-110577500D01*
X139667066Y-110577500D01*
X141313500Y-112223934D01*
X141257366Y-112359453D01*
X141212500Y-112585011D01*
X141212500Y-112814989D01*
X141257366Y-113040547D01*
X141345375Y-113253019D01*
X141473144Y-113444238D01*
X141635762Y-113606856D01*
X141826981Y-113734625D01*
X142039453Y-113822634D01*
X142265011Y-113867500D01*
X142494989Y-113867500D01*
X142720547Y-113822634D01*
X142933019Y-113734625D01*
X143124238Y-113606856D01*
X143286856Y-113444238D01*
X143414625Y-113253019D01*
X143502634Y-113040547D01*
X143547500Y-112814989D01*
X143547500Y-112585011D01*
X143502634Y-112359453D01*
X143414625Y-112146981D01*
X143286856Y-111955762D01*
X143124238Y-111793144D01*
X142933019Y-111665375D01*
X142720547Y-111577366D01*
X142494989Y-111532500D01*
X142265011Y-111532500D01*
X142039453Y-111577366D01*
X141903934Y-111633500D01*
X140847934Y-110577500D01*
X142207066Y-110577500D01*
X143853500Y-112223934D01*
X143797366Y-112359453D01*
X143752500Y-112585011D01*
X143752500Y-112814989D01*
X143797366Y-113040547D01*
X143885375Y-113253019D01*
X144013144Y-113444238D01*
X144175762Y-113606856D01*
X144366981Y-113734625D01*
X144579453Y-113822634D01*
X144805011Y-113867500D01*
X145034989Y-113867500D01*
X145260547Y-113822634D01*
X145473019Y-113734625D01*
X145664238Y-113606856D01*
X145826856Y-113444238D01*
X145954625Y-113253019D01*
X146042634Y-113040547D01*
X146087500Y-112814989D01*
X146087500Y-112585011D01*
X146042634Y-112359453D01*
X145954625Y-112146981D01*
X145826856Y-111955762D01*
X145664238Y-111793144D01*
X145473019Y-111665375D01*
X145260547Y-111577366D01*
X145034989Y-111532500D01*
X144805011Y-111532500D01*
X144579453Y-111577366D01*
X144443934Y-111633500D01*
X143387934Y-110577500D01*
X144747066Y-110577500D01*
X146393500Y-112223934D01*
X146337366Y-112359453D01*
X146292500Y-112585011D01*
X146292500Y-112814989D01*
X146337366Y-113040547D01*
X146425375Y-113253019D01*
X146553144Y-113444238D01*
X146715762Y-113606856D01*
X146906981Y-113734625D01*
X147119453Y-113822634D01*
X147345011Y-113867500D01*
X147574989Y-113867500D01*
X147800547Y-113822634D01*
X148013019Y-113734625D01*
X148204238Y-113606856D01*
X148366856Y-113444238D01*
X148494625Y-113253019D01*
X148582634Y-113040547D01*
X148627500Y-112814989D01*
X148627500Y-112585011D01*
X148582634Y-112359453D01*
X148494625Y-112146981D01*
X148366856Y-111955762D01*
X148204238Y-111793144D01*
X148013019Y-111665375D01*
X147800547Y-111577366D01*
X147574989Y-111532500D01*
X147345011Y-111532500D01*
X147119453Y-111577366D01*
X146983934Y-111633500D01*
X145927934Y-110577500D01*
X147287066Y-110577500D01*
X148933500Y-112223934D01*
X148877366Y-112359453D01*
X148832500Y-112585011D01*
X148832500Y-112814989D01*
X148877366Y-113040547D01*
X148965375Y-113253019D01*
X149093144Y-113444238D01*
X149255762Y-113606856D01*
X149446981Y-113734625D01*
X149659453Y-113822634D01*
X149885011Y-113867500D01*
X150114989Y-113867500D01*
X150340547Y-113822634D01*
X150553019Y-113734625D01*
X150744238Y-113606856D01*
X150906856Y-113444238D01*
X151034625Y-113253019D01*
X151122634Y-113040547D01*
X151167500Y-112814989D01*
X151167500Y-112585011D01*
X151122634Y-112359453D01*
X151034625Y-112146981D01*
X150906856Y-111955762D01*
X150744238Y-111793144D01*
X150553019Y-111665375D01*
X150340547Y-111577366D01*
X150114989Y-111532500D01*
X149885011Y-111532500D01*
X149659453Y-111577366D01*
X149523934Y-111633500D01*
X148756904Y-110866470D01*
X150116036Y-110866470D01*
X151473500Y-112223934D01*
X151417366Y-112359453D01*
X151372500Y-112585011D01*
X151372500Y-112814989D01*
X151417366Y-113040547D01*
X151505375Y-113253019D01*
X151633144Y-113444238D01*
X151795762Y-113606856D01*
X151986981Y-113734625D01*
X152199453Y-113822634D01*
X152425011Y-113867500D01*
X152654989Y-113867500D01*
X152880547Y-113822634D01*
X153093019Y-113734625D01*
X153284238Y-113606856D01*
X153446856Y-113444238D01*
X153574625Y-113253019D01*
X153662634Y-113040547D01*
X153707500Y-112814989D01*
X153707500Y-112585011D01*
X153912500Y-112585011D01*
X153912500Y-112814989D01*
X153957366Y-113040547D01*
X154045375Y-113253019D01*
X154173144Y-113444238D01*
X154335762Y-113606856D01*
X154526981Y-113734625D01*
X154739453Y-113822634D01*
X154965011Y-113867500D01*
X155194989Y-113867500D01*
X155420547Y-113822634D01*
X155633019Y-113734625D01*
X155824238Y-113606856D01*
X155881094Y-113550000D01*
X156450964Y-113550000D01*
X156457094Y-113612241D01*
X156475249Y-113672090D01*
X156504731Y-113727247D01*
X156544407Y-113775593D01*
X156592753Y-113815269D01*
X156647910Y-113844751D01*
X156707759Y-113862906D01*
X156770000Y-113869036D01*
X157350125Y-113867500D01*
X157429500Y-113788125D01*
X157429500Y-112890500D01*
X156531875Y-112890500D01*
X156452500Y-112969875D01*
X156450964Y-113550000D01*
X155881094Y-113550000D01*
X155986856Y-113444238D01*
X156114625Y-113253019D01*
X156202634Y-113040547D01*
X156247500Y-112814989D01*
X156247500Y-112585011D01*
X156202634Y-112359453D01*
X156114625Y-112146981D01*
X155986856Y-111955762D01*
X155881094Y-111850000D01*
X156450964Y-111850000D01*
X156452500Y-112430125D01*
X156531875Y-112509500D01*
X157429500Y-112509500D01*
X157429500Y-111611875D01*
X157350125Y-111532500D01*
X156770000Y-111530964D01*
X156707759Y-111537094D01*
X156647910Y-111555249D01*
X156592753Y-111584731D01*
X156544407Y-111624407D01*
X156504731Y-111672753D01*
X156475249Y-111727910D01*
X156457094Y-111787759D01*
X156450964Y-111850000D01*
X155881094Y-111850000D01*
X155824238Y-111793144D01*
X155633019Y-111665375D01*
X155420547Y-111577366D01*
X155194989Y-111532500D01*
X154965011Y-111532500D01*
X154739453Y-111577366D01*
X154526981Y-111665375D01*
X154335762Y-111793144D01*
X154173144Y-111955762D01*
X154045375Y-112146981D01*
X153957366Y-112359453D01*
X153912500Y-112585011D01*
X153707500Y-112585011D01*
X153662634Y-112359453D01*
X153574625Y-112146981D01*
X153446856Y-111955762D01*
X153284238Y-111793144D01*
X153093019Y-111665375D01*
X152880547Y-111577366D01*
X152654989Y-111532500D01*
X152425011Y-111532500D01*
X152199453Y-111577366D01*
X152063934Y-111633500D01*
X150598687Y-110168253D01*
X150585615Y-110152325D01*
X150522043Y-110100152D01*
X150449513Y-110061384D01*
X150370814Y-110037511D01*
X150309479Y-110031470D01*
X150309472Y-110031470D01*
X150288970Y-110029451D01*
X150268468Y-110031470D01*
X149385449Y-110031470D01*
X149509240Y-110003526D01*
X149666290Y-109938475D01*
X149766890Y-109786298D01*
X149140000Y-109159408D01*
X148513110Y-109786298D01*
X148613710Y-109938475D01*
X148828369Y-110021002D01*
X148889099Y-110031470D01*
X148613965Y-110031470D01*
X148195000Y-109612506D01*
X148195000Y-109484694D01*
X148243702Y-109516890D01*
X148870592Y-108890000D01*
X149409408Y-108890000D01*
X150036298Y-109516890D01*
X150188475Y-109416290D01*
X150271002Y-109201631D01*
X150310067Y-108974996D01*
X150304166Y-108745093D01*
X150253526Y-108520760D01*
X150188475Y-108363710D01*
X150036298Y-108263110D01*
X149409408Y-108890000D01*
X148870592Y-108890000D01*
X148243702Y-108263110D01*
X148195000Y-108295306D01*
X148195000Y-107993702D01*
X148513110Y-107993702D01*
X149140000Y-108620592D01*
X149766890Y-107993702D01*
X149666290Y-107841525D01*
X149451631Y-107758998D01*
X149224996Y-107719933D01*
X148995093Y-107725834D01*
X148770760Y-107776474D01*
X148613710Y-107841525D01*
X148513110Y-107993702D01*
X148195000Y-107993702D01*
X148195000Y-106688002D01*
X148197019Y-106667500D01*
X148195000Y-106646998D01*
X148195000Y-106646991D01*
X148188959Y-106585656D01*
X148165086Y-106506957D01*
X148126318Y-106434427D01*
X148074145Y-106370855D01*
X148058218Y-106357784D01*
X147769717Y-106069283D01*
X147756645Y-106053355D01*
X147693073Y-106001182D01*
X147620543Y-105962414D01*
X147541844Y-105938541D01*
X147480509Y-105932500D01*
X147480502Y-105932500D01*
X147460000Y-105930481D01*
X147439498Y-105932500D01*
X142422073Y-105932500D01*
X142443770Y-105880118D01*
X142467500Y-105760818D01*
X142467500Y-105672934D01*
X150555718Y-97584716D01*
X150571645Y-97571645D01*
X150623818Y-97508073D01*
X150662586Y-97435543D01*
X150686459Y-97356844D01*
X150692500Y-97295509D01*
X150692500Y-97295500D01*
X150694519Y-97275001D01*
X150692500Y-97254502D01*
X150692500Y-92912182D01*
X150882500Y-92912182D01*
X150882500Y-93033818D01*
X150906230Y-93153118D01*
X150952778Y-93265496D01*
X151020356Y-93366633D01*
X151106367Y-93452644D01*
X151207504Y-93520222D01*
X151319882Y-93566770D01*
X151439182Y-93590500D01*
X151527066Y-93590500D01*
X151582501Y-93645935D01*
X151582500Y-97270508D01*
X151582501Y-97270518D01*
X151582500Y-107020508D01*
X151582501Y-107020518D01*
X151582500Y-108544223D01*
X151520356Y-108606367D01*
X151452778Y-108707504D01*
X151406230Y-108819882D01*
X151382500Y-108939182D01*
X151382500Y-109060818D01*
X151406230Y-109180118D01*
X151452778Y-109292496D01*
X151520356Y-109393633D01*
X151606367Y-109479644D01*
X151707504Y-109547222D01*
X151819882Y-109593770D01*
X151939182Y-109617500D01*
X152060818Y-109617500D01*
X152180118Y-109593770D01*
X152292496Y-109547222D01*
X152393633Y-109479644D01*
X152479644Y-109393633D01*
X152500000Y-109363168D01*
X152520356Y-109393633D01*
X152606367Y-109479644D01*
X152707504Y-109547222D01*
X152819882Y-109593770D01*
X152939182Y-109617500D01*
X153060818Y-109617500D01*
X153180118Y-109593770D01*
X153292496Y-109547222D01*
X153393633Y-109479644D01*
X153479644Y-109393633D01*
X153500000Y-109363168D01*
X153520356Y-109393633D01*
X153606367Y-109479644D01*
X153707504Y-109547222D01*
X153819882Y-109593770D01*
X153939182Y-109617500D01*
X154060818Y-109617500D01*
X154180118Y-109593770D01*
X154292496Y-109547222D01*
X154393633Y-109479644D01*
X154479644Y-109393633D01*
X154547222Y-109292496D01*
X154593770Y-109180118D01*
X154617500Y-109060818D01*
X154617500Y-108939182D01*
X154593770Y-108819882D01*
X154547222Y-108707504D01*
X154479644Y-108606367D01*
X154393633Y-108520356D01*
X154292496Y-108452778D01*
X154180118Y-108406230D01*
X154060818Y-108382500D01*
X153972934Y-108382500D01*
X153417500Y-107827066D01*
X153417500Y-103770492D01*
X153457504Y-103797222D01*
X153569882Y-103843770D01*
X153689182Y-103867500D01*
X153810818Y-103867500D01*
X153930118Y-103843770D01*
X154042496Y-103797222D01*
X154143633Y-103729644D01*
X154229644Y-103643633D01*
X154297222Y-103542496D01*
X154343770Y-103430118D01*
X154367500Y-103310818D01*
X154367500Y-103189182D01*
X154343770Y-103069882D01*
X154297222Y-102957504D01*
X154229644Y-102856367D01*
X154143633Y-102770356D01*
X154042496Y-102702778D01*
X153930118Y-102656230D01*
X153917500Y-102653720D01*
X153917500Y-96439182D01*
X155132500Y-96439182D01*
X155132500Y-96560818D01*
X155156230Y-96680118D01*
X155202778Y-96792496D01*
X155270356Y-96893633D01*
X155356367Y-96979644D01*
X155457504Y-97047222D01*
X155569882Y-97093770D01*
X155689182Y-97117500D01*
X155810818Y-97117500D01*
X155930118Y-97093770D01*
X156042496Y-97047222D01*
X156143633Y-96979644D01*
X156205777Y-96917500D01*
X158577066Y-96917500D01*
X158582501Y-96922934D01*
X158582500Y-99479491D01*
X158582500Y-100020509D01*
X158582501Y-100020519D01*
X158582500Y-111552340D01*
X158532241Y-111537094D01*
X158470000Y-111530964D01*
X157889875Y-111532500D01*
X157810500Y-111611875D01*
X157810500Y-112509500D01*
X157830500Y-112509500D01*
X157830500Y-112890500D01*
X157810500Y-112890500D01*
X157810500Y-113788125D01*
X157889875Y-113867500D01*
X158470000Y-113869036D01*
X158532241Y-113862906D01*
X158582500Y-113847660D01*
X158582500Y-121520508D01*
X158582501Y-121520518D01*
X158582500Y-121903720D01*
X158569882Y-121906230D01*
X158457504Y-121952778D01*
X158356367Y-122020356D01*
X158270356Y-122106367D01*
X158202778Y-122207504D01*
X158156230Y-122319882D01*
X158132500Y-122439182D01*
X158132500Y-122560818D01*
X158156230Y-122680118D01*
X158202778Y-122792496D01*
X158270356Y-122893633D01*
X158356367Y-122979644D01*
X158457504Y-123047222D01*
X158569882Y-123093770D01*
X158689182Y-123117500D01*
X158810818Y-123117500D01*
X158930118Y-123093770D01*
X159042496Y-123047222D01*
X159082500Y-123020492D01*
X159082500Y-123719485D01*
X159006367Y-123770356D01*
X158920356Y-123856367D01*
X158852778Y-123957504D01*
X158806230Y-124069882D01*
X158782500Y-124189182D01*
X158782500Y-124310818D01*
X158806230Y-124430118D01*
X158852778Y-124542496D01*
X158920356Y-124643633D01*
X159006367Y-124729644D01*
X159090717Y-124786006D01*
X159020356Y-124856367D01*
X158952778Y-124957504D01*
X158906230Y-125069882D01*
X158882500Y-125189182D01*
X158882500Y-125310818D01*
X158906230Y-125430118D01*
X158952778Y-125542496D01*
X159020356Y-125643633D01*
X159106367Y-125729644D01*
X159207504Y-125797222D01*
X159319882Y-125843770D01*
X159439182Y-125867500D01*
X159527065Y-125867500D01*
X159717288Y-126057723D01*
X159730356Y-126073646D01*
X159746278Y-126086713D01*
X159746285Y-126086720D01*
X159772322Y-126108087D01*
X159793928Y-126125819D01*
X159866458Y-126164587D01*
X159921283Y-126181218D01*
X159945156Y-126188460D01*
X159952699Y-126189203D01*
X160006492Y-126194501D01*
X160006499Y-126194501D01*
X160027001Y-126196520D01*
X160047503Y-126194501D01*
X161952497Y-126194501D01*
X161972999Y-126196520D01*
X161993501Y-126194501D01*
X161993508Y-126194501D01*
X162054843Y-126188460D01*
X162133542Y-126164587D01*
X162206072Y-126125819D01*
X162269644Y-126073646D01*
X162282716Y-126057718D01*
X162672935Y-125667500D01*
X163979498Y-125667500D01*
X164000000Y-125669519D01*
X164020502Y-125667500D01*
X164020509Y-125667500D01*
X164081844Y-125661459D01*
X164160543Y-125637586D01*
X164233073Y-125598818D01*
X164296645Y-125546645D01*
X164309719Y-125530715D01*
X164530713Y-125309720D01*
X164546645Y-125296645D01*
X164598818Y-125233073D01*
X164637586Y-125160543D01*
X164661459Y-125081844D01*
X164667500Y-125020509D01*
X164667500Y-125020500D01*
X164669519Y-125000001D01*
X164667500Y-124979502D01*
X164667500Y-123270498D01*
X164669519Y-123249999D01*
X164667500Y-123229500D01*
X164667500Y-123229491D01*
X164661459Y-123168156D01*
X164637586Y-123089457D01*
X164598818Y-123016927D01*
X164546645Y-122953355D01*
X164530712Y-122940279D01*
X164309717Y-122719283D01*
X164296645Y-122703355D01*
X164233073Y-122651182D01*
X164160543Y-122612414D01*
X164081844Y-122588541D01*
X164020509Y-122582500D01*
X164020502Y-122582500D01*
X164000000Y-122580481D01*
X163979498Y-122582500D01*
X163607817Y-122582500D01*
X163617500Y-122533818D01*
X163617500Y-122412182D01*
X163593770Y-122292882D01*
X163547222Y-122180504D01*
X163479644Y-122079367D01*
X163417500Y-122017223D01*
X163417500Y-120955777D01*
X163479644Y-120893633D01*
X163547222Y-120792496D01*
X163593770Y-120680118D01*
X163617500Y-120560818D01*
X163617500Y-120439182D01*
X163593770Y-120319882D01*
X163547222Y-120207504D01*
X163479644Y-120106367D01*
X163393633Y-120020356D01*
X163292496Y-119952778D01*
X163180118Y-119906230D01*
X163060818Y-119882500D01*
X162939182Y-119882500D01*
X162819882Y-119906230D01*
X162707504Y-119952778D01*
X162606367Y-120020356D01*
X162520356Y-120106367D01*
X162452778Y-120207504D01*
X162406230Y-120319882D01*
X162382500Y-120439182D01*
X162382500Y-120560818D01*
X162406230Y-120680118D01*
X162452778Y-120792496D01*
X162520356Y-120893633D01*
X162582501Y-120955778D01*
X162582500Y-122017223D01*
X162520356Y-122079367D01*
X162452778Y-122180504D01*
X162406230Y-122292882D01*
X162382500Y-122412182D01*
X162382500Y-122533818D01*
X162392183Y-122582500D01*
X161422933Y-122582500D01*
X161417500Y-122577066D01*
X161417500Y-112030841D01*
X167382500Y-112030841D01*
X167382500Y-112369159D01*
X167448503Y-112700976D01*
X167577971Y-113013541D01*
X167765931Y-113294842D01*
X168005158Y-113534069D01*
X168286459Y-113722029D01*
X168599024Y-113851497D01*
X168930841Y-113917500D01*
X169269159Y-113917500D01*
X169600976Y-113851497D01*
X169913541Y-113722029D01*
X170194842Y-113534069D01*
X170434069Y-113294842D01*
X170622029Y-113013541D01*
X170751497Y-112700976D01*
X170817500Y-112369159D01*
X170817500Y-112030841D01*
X170751497Y-111699024D01*
X170622029Y-111386459D01*
X170434069Y-111105158D01*
X170194842Y-110865931D01*
X169913541Y-110677971D01*
X169600976Y-110548503D01*
X169269159Y-110482500D01*
X168930841Y-110482500D01*
X168599024Y-110548503D01*
X168286459Y-110677971D01*
X168005158Y-110865931D01*
X167765931Y-111105158D01*
X167577971Y-111386459D01*
X167448503Y-111699024D01*
X167382500Y-112030841D01*
X161417500Y-112030841D01*
X161417500Y-111373280D01*
X161430118Y-111370770D01*
X161542496Y-111324222D01*
X161643633Y-111256644D01*
X161729644Y-111170633D01*
X161797222Y-111069496D01*
X161843770Y-110957118D01*
X161867500Y-110837818D01*
X161867500Y-110716182D01*
X161843770Y-110596882D01*
X161797222Y-110484504D01*
X161729644Y-110383367D01*
X161643633Y-110297356D01*
X161542496Y-110229778D01*
X161430118Y-110183230D01*
X161310818Y-110159500D01*
X161189182Y-110159500D01*
X161140521Y-110169179D01*
X161120770Y-110069882D01*
X161074222Y-109957504D01*
X161006644Y-109856367D01*
X160920633Y-109770356D01*
X160819496Y-109702778D01*
X160707118Y-109656230D01*
X160587818Y-109632500D01*
X160466182Y-109632500D01*
X160417500Y-109642183D01*
X160417500Y-103060011D01*
X160762500Y-103060011D01*
X160762500Y-103289989D01*
X160807366Y-103515547D01*
X160895375Y-103728019D01*
X161023144Y-103919238D01*
X161185762Y-104081856D01*
X161376981Y-104209625D01*
X161589453Y-104297634D01*
X161815011Y-104342500D01*
X162044989Y-104342500D01*
X162270547Y-104297634D01*
X162483019Y-104209625D01*
X162674238Y-104081856D01*
X162836856Y-103919238D01*
X162964625Y-103728019D01*
X163052634Y-103515547D01*
X163097500Y-103289989D01*
X163097500Y-103060011D01*
X163052634Y-102834453D01*
X162964625Y-102621981D01*
X162836856Y-102430762D01*
X162674238Y-102268144D01*
X162483019Y-102140375D01*
X162270547Y-102052366D01*
X162044989Y-102007500D01*
X161815011Y-102007500D01*
X161589453Y-102052366D01*
X161376981Y-102140375D01*
X161185762Y-102268144D01*
X161023144Y-102430762D01*
X160895375Y-102621981D01*
X160807366Y-102834453D01*
X160762500Y-103060011D01*
X160417500Y-103060011D01*
X160417500Y-100520011D01*
X160762500Y-100520011D01*
X160762500Y-100749989D01*
X160807366Y-100975547D01*
X160895375Y-101188019D01*
X161023144Y-101379238D01*
X161185762Y-101541856D01*
X161376981Y-101669625D01*
X161589453Y-101757634D01*
X161815011Y-101802500D01*
X162044989Y-101802500D01*
X162270547Y-101757634D01*
X162483019Y-101669625D01*
X162674238Y-101541856D01*
X162836856Y-101379238D01*
X162964625Y-101188019D01*
X163052634Y-100975547D01*
X163097500Y-100749989D01*
X163097500Y-100520011D01*
X163052634Y-100294453D01*
X162964625Y-100081981D01*
X162836856Y-99890762D01*
X162674238Y-99728144D01*
X162483019Y-99600375D01*
X162270547Y-99512366D01*
X162044989Y-99467500D01*
X161815011Y-99467500D01*
X161589453Y-99512366D01*
X161376981Y-99600375D01*
X161185762Y-99728144D01*
X161023144Y-99890762D01*
X160895375Y-100081981D01*
X160807366Y-100294453D01*
X160762500Y-100520011D01*
X160417500Y-100520011D01*
X160417500Y-97980011D01*
X160762500Y-97980011D01*
X160762500Y-98209989D01*
X160807366Y-98435547D01*
X160895375Y-98648019D01*
X161023144Y-98839238D01*
X161185762Y-99001856D01*
X161376981Y-99129625D01*
X161589453Y-99217634D01*
X161815011Y-99262500D01*
X162044989Y-99262500D01*
X162270547Y-99217634D01*
X162483019Y-99129625D01*
X162674238Y-99001856D01*
X162836856Y-98839238D01*
X162964625Y-98648019D01*
X163052634Y-98435547D01*
X163097500Y-98209989D01*
X163097500Y-97980011D01*
X163052634Y-97754453D01*
X162964625Y-97541981D01*
X162836856Y-97350762D01*
X162674238Y-97188144D01*
X162483019Y-97060375D01*
X162270547Y-96972366D01*
X162044989Y-96927500D01*
X161815011Y-96927500D01*
X161589453Y-96972366D01*
X161376981Y-97060375D01*
X161185762Y-97188144D01*
X161023144Y-97350762D01*
X160895375Y-97541981D01*
X160807366Y-97754453D01*
X160762500Y-97980011D01*
X160417500Y-97980011D01*
X160417500Y-96405000D01*
X160760964Y-96405000D01*
X160767094Y-96467241D01*
X160785249Y-96527090D01*
X160814731Y-96582247D01*
X160854407Y-96630593D01*
X160902753Y-96670269D01*
X160957910Y-96699751D01*
X161017759Y-96717906D01*
X161080000Y-96724036D01*
X161660125Y-96722500D01*
X161739500Y-96643125D01*
X161739500Y-95745500D01*
X162120500Y-95745500D01*
X162120500Y-96643125D01*
X162199875Y-96722500D01*
X162780000Y-96724036D01*
X162842241Y-96717906D01*
X162902090Y-96699751D01*
X162957247Y-96670269D01*
X163005593Y-96630593D01*
X163045269Y-96582247D01*
X163074751Y-96527090D01*
X163092906Y-96467241D01*
X163099036Y-96405000D01*
X163097500Y-95824875D01*
X163018125Y-95745500D01*
X162120500Y-95745500D01*
X161739500Y-95745500D01*
X160841875Y-95745500D01*
X160762500Y-95824875D01*
X160760964Y-96405000D01*
X160417500Y-96405000D01*
X160417500Y-94705000D01*
X160760964Y-94705000D01*
X160762500Y-95285125D01*
X160841875Y-95364500D01*
X161739500Y-95364500D01*
X161739500Y-94466875D01*
X162120500Y-94466875D01*
X162120500Y-95364500D01*
X163018125Y-95364500D01*
X163097500Y-95285125D01*
X163099036Y-94705000D01*
X163092906Y-94642759D01*
X163074751Y-94582910D01*
X163045269Y-94527753D01*
X163005593Y-94479407D01*
X162957247Y-94439731D01*
X162902090Y-94410249D01*
X162842241Y-94392094D01*
X162780000Y-94385964D01*
X162199875Y-94387500D01*
X162120500Y-94466875D01*
X161739500Y-94466875D01*
X161660125Y-94387500D01*
X161080000Y-94385964D01*
X161017759Y-94392094D01*
X160957910Y-94410249D01*
X160902753Y-94439731D01*
X160854407Y-94479407D01*
X160814731Y-94527753D01*
X160785249Y-94582910D01*
X160767094Y-94642759D01*
X160760964Y-94705000D01*
X160417500Y-94705000D01*
X160417500Y-90360011D01*
X160762500Y-90360011D01*
X160762500Y-90589989D01*
X160807366Y-90815547D01*
X160895375Y-91028019D01*
X161023144Y-91219238D01*
X161185762Y-91381856D01*
X161376981Y-91509625D01*
X161589453Y-91597634D01*
X161815011Y-91642500D01*
X162044989Y-91642500D01*
X162270547Y-91597634D01*
X162483019Y-91509625D01*
X162674238Y-91381856D01*
X162836856Y-91219238D01*
X162964625Y-91028019D01*
X163052634Y-90815547D01*
X163097500Y-90589989D01*
X163097500Y-90360011D01*
X163052634Y-90134453D01*
X162964625Y-89921981D01*
X162836856Y-89730762D01*
X162674238Y-89568144D01*
X162483019Y-89440375D01*
X162270547Y-89352366D01*
X162044989Y-89307500D01*
X161815011Y-89307500D01*
X161589453Y-89352366D01*
X161376981Y-89440375D01*
X161185762Y-89568144D01*
X161023144Y-89730762D01*
X160895375Y-89921981D01*
X160807366Y-90134453D01*
X160762500Y-90360011D01*
X160417500Y-90360011D01*
X160417500Y-87820011D01*
X160762500Y-87820011D01*
X160762500Y-88049989D01*
X160807366Y-88275547D01*
X160895375Y-88488019D01*
X161023144Y-88679238D01*
X161185762Y-88841856D01*
X161376981Y-88969625D01*
X161589453Y-89057634D01*
X161815011Y-89102500D01*
X162044989Y-89102500D01*
X162270547Y-89057634D01*
X162483019Y-88969625D01*
X162674238Y-88841856D01*
X162836856Y-88679238D01*
X162964625Y-88488019D01*
X163052634Y-88275547D01*
X163097500Y-88049989D01*
X163097500Y-87820011D01*
X163052634Y-87594453D01*
X162964625Y-87381981D01*
X162836856Y-87190762D01*
X162674238Y-87028144D01*
X162483019Y-86900375D01*
X162270547Y-86812366D01*
X162044989Y-86767500D01*
X161815011Y-86767500D01*
X161589453Y-86812366D01*
X161376981Y-86900375D01*
X161185762Y-87028144D01*
X161023144Y-87190762D01*
X160895375Y-87381981D01*
X160807366Y-87594453D01*
X160762500Y-87820011D01*
X160417500Y-87820011D01*
X160417500Y-85280011D01*
X160762500Y-85280011D01*
X160762500Y-85509989D01*
X160807366Y-85735547D01*
X160895375Y-85948019D01*
X161023144Y-86139238D01*
X161185762Y-86301856D01*
X161376981Y-86429625D01*
X161589453Y-86517634D01*
X161815011Y-86562500D01*
X162044989Y-86562500D01*
X162270547Y-86517634D01*
X162483019Y-86429625D01*
X162674238Y-86301856D01*
X162836856Y-86139238D01*
X162964625Y-85948019D01*
X163052634Y-85735547D01*
X163097500Y-85509989D01*
X163097500Y-85280011D01*
X163052634Y-85054453D01*
X162964625Y-84841981D01*
X162836856Y-84650762D01*
X162674238Y-84488144D01*
X162483019Y-84360375D01*
X162270547Y-84272366D01*
X162044989Y-84227500D01*
X161815011Y-84227500D01*
X161589453Y-84272366D01*
X161376981Y-84360375D01*
X161185762Y-84488144D01*
X161023144Y-84650762D01*
X160895375Y-84841981D01*
X160807366Y-85054453D01*
X160762500Y-85280011D01*
X160417500Y-85280011D01*
X160417500Y-83705000D01*
X160760964Y-83705000D01*
X160767094Y-83767241D01*
X160785249Y-83827090D01*
X160814731Y-83882247D01*
X160854407Y-83930593D01*
X160902753Y-83970269D01*
X160957910Y-83999751D01*
X161017759Y-84017906D01*
X161080000Y-84024036D01*
X161660125Y-84022500D01*
X161739500Y-83943125D01*
X161739500Y-83045500D01*
X162120500Y-83045500D01*
X162120500Y-83943125D01*
X162199875Y-84022500D01*
X162780000Y-84024036D01*
X162842241Y-84017906D01*
X162902090Y-83999751D01*
X162957247Y-83970269D01*
X163005593Y-83930593D01*
X163045269Y-83882247D01*
X163074751Y-83827090D01*
X163092906Y-83767241D01*
X163099036Y-83705000D01*
X163097500Y-83124875D01*
X163018125Y-83045500D01*
X162120500Y-83045500D01*
X161739500Y-83045500D01*
X160841875Y-83045500D01*
X160762500Y-83124875D01*
X160760964Y-83705000D01*
X160417500Y-83705000D01*
X160417500Y-82005000D01*
X160760964Y-82005000D01*
X160762500Y-82585125D01*
X160841875Y-82664500D01*
X161739500Y-82664500D01*
X161739500Y-81766875D01*
X162120500Y-81766875D01*
X162120500Y-82664500D01*
X163018125Y-82664500D01*
X163097500Y-82585125D01*
X163099036Y-82005000D01*
X163092906Y-81942759D01*
X163074751Y-81882910D01*
X163045269Y-81827753D01*
X163005593Y-81779407D01*
X162957247Y-81739731D01*
X162902090Y-81710249D01*
X162842241Y-81692094D01*
X162780000Y-81685964D01*
X162199875Y-81687500D01*
X162120500Y-81766875D01*
X161739500Y-81766875D01*
X161660125Y-81687500D01*
X161080000Y-81685964D01*
X161017759Y-81692094D01*
X160957910Y-81710249D01*
X160902753Y-81739731D01*
X160854407Y-81779407D01*
X160814731Y-81827753D01*
X160785249Y-81882910D01*
X160767094Y-81942759D01*
X160760964Y-82005000D01*
X160417500Y-82005000D01*
X160417500Y-81846280D01*
X160430118Y-81843770D01*
X160542496Y-81797222D01*
X160643633Y-81729644D01*
X160729644Y-81643633D01*
X160797222Y-81542496D01*
X160843770Y-81430118D01*
X160867500Y-81310818D01*
X160867500Y-81189182D01*
X160843770Y-81069882D01*
X160797222Y-80957504D01*
X160729644Y-80856367D01*
X160643633Y-80770356D01*
X160542496Y-80702778D01*
X160430118Y-80656230D01*
X160310818Y-80632500D01*
X160189182Y-80632500D01*
X160069882Y-80656230D01*
X159957504Y-80702778D01*
X159856367Y-80770356D01*
X159770356Y-80856367D01*
X159702778Y-80957504D01*
X159656230Y-81069882D01*
X159632500Y-81189182D01*
X159632500Y-81301880D01*
X159612414Y-81339458D01*
X159588541Y-81418157D01*
X159582500Y-81479492D01*
X159582500Y-81479498D01*
X159580481Y-81500000D01*
X159582500Y-81520502D01*
X159582500Y-82242066D01*
X159559717Y-82219283D01*
X159546645Y-82203355D01*
X159483073Y-82151182D01*
X159410543Y-82112414D01*
X159331844Y-82088541D01*
X159270509Y-82082500D01*
X159270502Y-82082500D01*
X159250000Y-82080481D01*
X159229498Y-82082500D01*
X157475777Y-82082500D01*
X157403633Y-82010356D01*
X157302496Y-81942778D01*
X157190118Y-81896230D01*
X157070818Y-81872500D01*
X156949182Y-81872500D01*
X156829882Y-81896230D01*
X156717504Y-81942778D01*
X156616367Y-82010356D01*
X156530356Y-82096367D01*
X156462778Y-82197504D01*
X156416230Y-82309882D01*
X156392500Y-82429182D01*
X156392500Y-82550818D01*
X156416230Y-82670118D01*
X156462778Y-82782496D01*
X156530356Y-82883633D01*
X156616367Y-82969644D01*
X156717504Y-83037222D01*
X156829882Y-83083770D01*
X156949182Y-83107500D01*
X157070818Y-83107500D01*
X157190118Y-83083770D01*
X157302496Y-83037222D01*
X157403633Y-82969644D01*
X157455777Y-82917500D01*
X159077066Y-82917500D01*
X159082501Y-82922934D01*
X159082500Y-96242067D01*
X159059717Y-96219283D01*
X159046645Y-96203355D01*
X158983073Y-96151182D01*
X158910543Y-96112414D01*
X158831844Y-96088541D01*
X158770509Y-96082500D01*
X158770502Y-96082500D01*
X158750000Y-96080481D01*
X158729498Y-96082500D01*
X156205777Y-96082500D01*
X156143633Y-96020356D01*
X156042496Y-95952778D01*
X155930118Y-95906230D01*
X155810818Y-95882500D01*
X155689182Y-95882500D01*
X155569882Y-95906230D01*
X155457504Y-95952778D01*
X155356367Y-96020356D01*
X155270356Y-96106367D01*
X155202778Y-96207504D01*
X155156230Y-96319882D01*
X155132500Y-96439182D01*
X153917500Y-96439182D01*
X153917500Y-94172934D01*
X154472934Y-93617500D01*
X154560818Y-93617500D01*
X154680118Y-93593770D01*
X154792496Y-93547222D01*
X154893633Y-93479644D01*
X154979644Y-93393633D01*
X155047222Y-93292496D01*
X155093770Y-93180118D01*
X155117500Y-93060818D01*
X155117500Y-92939182D01*
X155093770Y-92819882D01*
X155047222Y-92707504D01*
X154979644Y-92606367D01*
X154893633Y-92520356D01*
X154792496Y-92452778D01*
X154680118Y-92406230D01*
X154560818Y-92382500D01*
X154439182Y-92382500D01*
X154319882Y-92406230D01*
X154207504Y-92452778D01*
X154106367Y-92520356D01*
X154020356Y-92606367D01*
X154000000Y-92636832D01*
X153979644Y-92606367D01*
X153893633Y-92520356D01*
X153792496Y-92452778D01*
X153680118Y-92406230D01*
X153560818Y-92382500D01*
X153439182Y-92382500D01*
X153319882Y-92406230D01*
X153207504Y-92452778D01*
X153106367Y-92520356D01*
X153020356Y-92606367D01*
X153000000Y-92636832D01*
X152979644Y-92606367D01*
X152893633Y-92520356D01*
X152792496Y-92452778D01*
X152680118Y-92406230D01*
X152560818Y-92382500D01*
X152439182Y-92382500D01*
X152319882Y-92406230D01*
X152207504Y-92452778D01*
X152106367Y-92520356D01*
X152020356Y-92606367D01*
X152009020Y-92623332D01*
X151979644Y-92579367D01*
X151893633Y-92493356D01*
X151792496Y-92425778D01*
X151680118Y-92379230D01*
X151560818Y-92355500D01*
X151439182Y-92355500D01*
X151319882Y-92379230D01*
X151207504Y-92425778D01*
X151106367Y-92493356D01*
X151020356Y-92579367D01*
X150952778Y-92680504D01*
X150906230Y-92792882D01*
X150882500Y-92912182D01*
X150692500Y-92912182D01*
X150692500Y-89838641D01*
X150792496Y-89797222D01*
X150893633Y-89729644D01*
X150979644Y-89643633D01*
X151047222Y-89542496D01*
X151093770Y-89430118D01*
X151117500Y-89310818D01*
X151117500Y-89189182D01*
X151093770Y-89069882D01*
X151047222Y-88957504D01*
X150979644Y-88856367D01*
X150893633Y-88770356D01*
X150792496Y-88702778D01*
X150680118Y-88656230D01*
X150560818Y-88632500D01*
X150439182Y-88632500D01*
X150319882Y-88656230D01*
X150207504Y-88702778D01*
X150125000Y-88757906D01*
X150042496Y-88702778D01*
X149930118Y-88656230D01*
X149810818Y-88632500D01*
X149689182Y-88632500D01*
X149569882Y-88656230D01*
X149457504Y-88702778D01*
X149356367Y-88770356D01*
X149270356Y-88856367D01*
X149202778Y-88957504D01*
X149156230Y-89069882D01*
X149132500Y-89189182D01*
X149132500Y-89310818D01*
X149156230Y-89430118D01*
X149202778Y-89542496D01*
X149270356Y-89643633D01*
X149332500Y-89705777D01*
X149332501Y-97077064D01*
X144927066Y-101482500D01*
X142305777Y-101482500D01*
X142243633Y-101420356D01*
X142142496Y-101352778D01*
X142030118Y-101306230D01*
X141910818Y-101282500D01*
X141789182Y-101282500D01*
X141669882Y-101306230D01*
X141557504Y-101352778D01*
X141456367Y-101420356D01*
X141370356Y-101506367D01*
X141302778Y-101607504D01*
X141256230Y-101719882D01*
X141232500Y-101839182D01*
X141232500Y-101960818D01*
X141256230Y-102080118D01*
X141302778Y-102192496D01*
X141370356Y-102293633D01*
X141456367Y-102379644D01*
X141557504Y-102447222D01*
X141669882Y-102493770D01*
X141789182Y-102517500D01*
X141910818Y-102517500D01*
X142030118Y-102493770D01*
X142142496Y-102447222D01*
X142243633Y-102379644D01*
X142305777Y-102317500D01*
X144642066Y-102317500D01*
X141877066Y-105082500D01*
X141789182Y-105082500D01*
X141669882Y-105106230D01*
X141557504Y-105152778D01*
X141456367Y-105220356D01*
X141370356Y-105306367D01*
X141302778Y-105407504D01*
X141256230Y-105519882D01*
X141244879Y-105576945D01*
X140892500Y-105224566D01*
X140892500Y-99703002D01*
X140894519Y-99682500D01*
X140892500Y-99661998D01*
X140892500Y-99661991D01*
X140886459Y-99600656D01*
X140862586Y-99521957D01*
X140823818Y-99449427D01*
X140821698Y-99446844D01*
X140784719Y-99401785D01*
X140784717Y-99401783D01*
X140771645Y-99385855D01*
X140755718Y-99372784D01*
X140467217Y-99084283D01*
X140454145Y-99068355D01*
X140390573Y-99016182D01*
X140318043Y-98977414D01*
X140239344Y-98953541D01*
X140178009Y-98947500D01*
X140178002Y-98947500D01*
X140157500Y-98945481D01*
X140136998Y-98947500D01*
X138868594Y-98947500D01*
X138976856Y-98839238D01*
X139104625Y-98648019D01*
X139192634Y-98435547D01*
X139237500Y-98209989D01*
X139237500Y-97980011D01*
X139192634Y-97754453D01*
X139104625Y-97541981D01*
X138976856Y-97350762D01*
X138814238Y-97188144D01*
X138623019Y-97060375D01*
X138410547Y-96972366D01*
X138184989Y-96927500D01*
X137955011Y-96927500D01*
X137729453Y-96972366D01*
X137516981Y-97060375D01*
X137325762Y-97188144D01*
X137163144Y-97350762D01*
X137082500Y-97471454D01*
X137082500Y-96167295D01*
X137148226Y-96271528D01*
X137305725Y-96437589D01*
X137492595Y-96569733D01*
X137701654Y-96662881D01*
X137879500Y-96627488D01*
X137879500Y-95745500D01*
X138260500Y-95745500D01*
X138260500Y-96627488D01*
X138438346Y-96662881D01*
X138647405Y-96569733D01*
X138834275Y-96437589D01*
X138991774Y-96271528D01*
X139113850Y-96077931D01*
X139177871Y-95923344D01*
X139141320Y-95745500D01*
X138260500Y-95745500D01*
X137879500Y-95745500D01*
X137859500Y-95745500D01*
X137859500Y-95364500D01*
X137879500Y-95364500D01*
X137879500Y-94482512D01*
X138260500Y-94482512D01*
X138260500Y-95364500D01*
X139141320Y-95364500D01*
X139177871Y-95186656D01*
X139113850Y-95032069D01*
X138991774Y-94838472D01*
X138834275Y-94672411D01*
X138647405Y-94540267D01*
X138438346Y-94447119D01*
X138260500Y-94482512D01*
X137879500Y-94482512D01*
X137701654Y-94447119D01*
X137492595Y-94540267D01*
X137305725Y-94672411D01*
X137148226Y-94838472D01*
X137082500Y-94942705D01*
X137082500Y-92835777D01*
X137144644Y-92773633D01*
X137212222Y-92672496D01*
X137258770Y-92560118D01*
X137282500Y-92440818D01*
X137282500Y-92319182D01*
X137258770Y-92199882D01*
X137212222Y-92087504D01*
X137144644Y-91986367D01*
X137058633Y-91900356D01*
X136957496Y-91832778D01*
X136845118Y-91786230D01*
X136725818Y-91762500D01*
X136647500Y-91762500D01*
X136647500Y-91684182D01*
X136623770Y-91564882D01*
X136577222Y-91452504D01*
X136509644Y-91351367D01*
X136483277Y-91325000D01*
X136900964Y-91325000D01*
X136907094Y-91387241D01*
X136925249Y-91447090D01*
X136954731Y-91502247D01*
X136994407Y-91550593D01*
X137042753Y-91590269D01*
X137097910Y-91619751D01*
X137157759Y-91637906D01*
X137220000Y-91644036D01*
X137800125Y-91642500D01*
X137879500Y-91563125D01*
X137879500Y-90665500D01*
X138260500Y-90665500D01*
X138260500Y-91563125D01*
X138339875Y-91642500D01*
X138920000Y-91644036D01*
X138982241Y-91637906D01*
X139042090Y-91619751D01*
X139097247Y-91590269D01*
X139145593Y-91550593D01*
X139185269Y-91502247D01*
X139214751Y-91447090D01*
X139232906Y-91387241D01*
X139239036Y-91325000D01*
X139237500Y-90744875D01*
X139158125Y-90665500D01*
X138260500Y-90665500D01*
X137879500Y-90665500D01*
X136981875Y-90665500D01*
X136902500Y-90744875D01*
X136900964Y-91325000D01*
X136483277Y-91325000D01*
X136423633Y-91265356D01*
X136322496Y-91197778D01*
X136210118Y-91151230D01*
X136090818Y-91127500D01*
X135969182Y-91127500D01*
X135849882Y-91151230D01*
X135812500Y-91166714D01*
X135812500Y-89660777D01*
X135848277Y-89625000D01*
X136900964Y-89625000D01*
X136902500Y-90205125D01*
X136981875Y-90284500D01*
X137879500Y-90284500D01*
X137879500Y-89386875D01*
X138260500Y-89386875D01*
X138260500Y-90284500D01*
X139158125Y-90284500D01*
X139237500Y-90205125D01*
X139239036Y-89625000D01*
X139232906Y-89562759D01*
X139214751Y-89502910D01*
X139185269Y-89447753D01*
X139145593Y-89399407D01*
X139097247Y-89359731D01*
X139042090Y-89330249D01*
X138982241Y-89312094D01*
X138920000Y-89305964D01*
X138339875Y-89307500D01*
X138260500Y-89386875D01*
X137879500Y-89386875D01*
X137800125Y-89307500D01*
X137220000Y-89305964D01*
X137157759Y-89312094D01*
X137097910Y-89330249D01*
X137042753Y-89359731D01*
X136994407Y-89399407D01*
X136954731Y-89447753D01*
X136925249Y-89502910D01*
X136907094Y-89562759D01*
X136900964Y-89625000D01*
X135848277Y-89625000D01*
X135874644Y-89598633D01*
X135942222Y-89497496D01*
X135988770Y-89385118D01*
X136012500Y-89265818D01*
X136012500Y-89144182D01*
X135988770Y-89024882D01*
X135942222Y-88912504D01*
X135874644Y-88811367D01*
X135788633Y-88725356D01*
X135687496Y-88657778D01*
X135575118Y-88611230D01*
X135455818Y-88587500D01*
X135334182Y-88587500D01*
X135214882Y-88611230D01*
X135177500Y-88626714D01*
X135177500Y-87472934D01*
X135567934Y-87082500D01*
X137271406Y-87082500D01*
X137163144Y-87190762D01*
X137035375Y-87381981D01*
X136947366Y-87594453D01*
X136902500Y-87820011D01*
X136902500Y-88049989D01*
X136947366Y-88275547D01*
X137035375Y-88488019D01*
X137163144Y-88679238D01*
X137325762Y-88841856D01*
X137516981Y-88969625D01*
X137729453Y-89057634D01*
X137955011Y-89102500D01*
X138184989Y-89102500D01*
X138410547Y-89057634D01*
X138623019Y-88969625D01*
X138814238Y-88841856D01*
X138976856Y-88679238D01*
X139104625Y-88488019D01*
X139192634Y-88275547D01*
X139237500Y-88049989D01*
X139237500Y-88036022D01*
X139253233Y-88115118D01*
X139299781Y-88227496D01*
X139367359Y-88328633D01*
X139453370Y-88414644D01*
X139554507Y-88482222D01*
X139666885Y-88528770D01*
X139786185Y-88552500D01*
X139907821Y-88552500D01*
X140027121Y-88528770D01*
X140139499Y-88482222D01*
X140240636Y-88414644D01*
X140326647Y-88328633D01*
X140394225Y-88227496D01*
X140440773Y-88115118D01*
X140464503Y-87995818D01*
X140464503Y-87874182D01*
X140440773Y-87754882D01*
X140394225Y-87642504D01*
X140326647Y-87541367D01*
X140264503Y-87479223D01*
X140264503Y-87327501D01*
X140266522Y-87307002D01*
X140264503Y-87286503D01*
X140264503Y-87286494D01*
X140258462Y-87225159D01*
X140234589Y-87146460D01*
X140195821Y-87073930D01*
X140143648Y-87010358D01*
X140127721Y-86997287D01*
X139514717Y-86384283D01*
X139501645Y-86368355D01*
X139438073Y-86316182D01*
X139365543Y-86277414D01*
X139286844Y-86253541D01*
X139225509Y-86247500D01*
X139225502Y-86247500D01*
X139205000Y-86245481D01*
X139184498Y-86247500D01*
X138868594Y-86247500D01*
X138976856Y-86139238D01*
X139104625Y-85948019D01*
X139192634Y-85735547D01*
X139237500Y-85509989D01*
X139237500Y-85280011D01*
X139192634Y-85054453D01*
X139104625Y-84841981D01*
X138976856Y-84650762D01*
X138814238Y-84488144D01*
X138623019Y-84360375D01*
X138410547Y-84272366D01*
X138184989Y-84227500D01*
X137955011Y-84227500D01*
X137729453Y-84272366D01*
X137516981Y-84360375D01*
X137325762Y-84488144D01*
X137163144Y-84650762D01*
X137035375Y-84841981D01*
X136947366Y-85054453D01*
X136902500Y-85280011D01*
X136902500Y-85509989D01*
X136947366Y-85735547D01*
X137035375Y-85948019D01*
X137163144Y-86139238D01*
X137271406Y-86247500D01*
X135415502Y-86247500D01*
X135395000Y-86245481D01*
X135374498Y-86247500D01*
X135374491Y-86247500D01*
X135313156Y-86253541D01*
X135234456Y-86277414D01*
X135188729Y-86301856D01*
X135161927Y-86316182D01*
X135098355Y-86368355D01*
X135085283Y-86384283D01*
X134742190Y-86727376D01*
X134742500Y-86725818D01*
X134742500Y-86604182D01*
X134718770Y-86484882D01*
X134672222Y-86372504D01*
X134604644Y-86271367D01*
X134518633Y-86185356D01*
X134417496Y-86117778D01*
X134305118Y-86071230D01*
X134185818Y-86047500D01*
X134064182Y-86047500D01*
X133944882Y-86071230D01*
X133832504Y-86117778D01*
X133731367Y-86185356D01*
X133645356Y-86271367D01*
X133577778Y-86372504D01*
X133531230Y-86484882D01*
X133507500Y-86604182D01*
X133507500Y-86725818D01*
X133531230Y-86845118D01*
X133577778Y-86957496D01*
X133645356Y-87058633D01*
X133707501Y-87120778D01*
X133707500Y-107281998D01*
X133705481Y-107302500D01*
X133707500Y-107323002D01*
X133707500Y-107323008D01*
X133710042Y-107348818D01*
X133713541Y-107384344D01*
X133717216Y-107396459D01*
X133737414Y-107463042D01*
X133773250Y-107530086D01*
X133776183Y-107535573D01*
X133815281Y-107583215D01*
X133815284Y-107583218D01*
X133828355Y-107599145D01*
X133844283Y-107612217D01*
X133953030Y-107720964D01*
X133050000Y-107720964D01*
X132987759Y-107727094D01*
X132927910Y-107745249D01*
X132872753Y-107774731D01*
X132824407Y-107814407D01*
X132784731Y-107862753D01*
X132755249Y-107917910D01*
X132737094Y-107977759D01*
X132730964Y-108040000D01*
X127836550Y-108040000D01*
X127836550Y-82740011D01*
X136902500Y-82740011D01*
X136902500Y-82969989D01*
X136947366Y-83195547D01*
X137035375Y-83408019D01*
X137163144Y-83599238D01*
X137325762Y-83761856D01*
X137516981Y-83889625D01*
X137729453Y-83977634D01*
X137955011Y-84022500D01*
X138184989Y-84022500D01*
X138410547Y-83977634D01*
X138623019Y-83889625D01*
X138814238Y-83761856D01*
X138976856Y-83599238D01*
X139104625Y-83408019D01*
X139192634Y-83195547D01*
X139237500Y-82969989D01*
X139237500Y-82740011D01*
X139192634Y-82514453D01*
X139104625Y-82301981D01*
X138976856Y-82110762D01*
X138814238Y-81948144D01*
X138623019Y-81820375D01*
X138410547Y-81732366D01*
X138184989Y-81687500D01*
X137955011Y-81687500D01*
X137729453Y-81732366D01*
X137516981Y-81820375D01*
X137325762Y-81948144D01*
X137163144Y-82110762D01*
X137035375Y-82301981D01*
X136947366Y-82514453D01*
X136902500Y-82740011D01*
X127836550Y-82740011D01*
X127836550Y-79030841D01*
X129382500Y-79030841D01*
X129382500Y-79369159D01*
X129448503Y-79700976D01*
X129577971Y-80013541D01*
X129765931Y-80294842D01*
X130005158Y-80534069D01*
X130286459Y-80722029D01*
X130599024Y-80851497D01*
X130930841Y-80917500D01*
X131269159Y-80917500D01*
X131600976Y-80851497D01*
X131913541Y-80722029D01*
X132194842Y-80534069D01*
X132434069Y-80294842D01*
X132622029Y-80013541D01*
X132751497Y-79700976D01*
X132817500Y-79369159D01*
X132817500Y-79030841D01*
X167382500Y-79030841D01*
X167382500Y-79369159D01*
X167448503Y-79700976D01*
X167577971Y-80013541D01*
X167765931Y-80294842D01*
X168005158Y-80534069D01*
X168286459Y-80722029D01*
X168599024Y-80851497D01*
X168930841Y-80917500D01*
X169269159Y-80917500D01*
X169600976Y-80851497D01*
X169913541Y-80722029D01*
X170194842Y-80534069D01*
X170434069Y-80294842D01*
X170622029Y-80013541D01*
X170751497Y-79700976D01*
X170817500Y-79369159D01*
X170817500Y-79030841D01*
X170751497Y-78699024D01*
X170622029Y-78386459D01*
X170434069Y-78105158D01*
X170194842Y-77865931D01*
X169913541Y-77677971D01*
X169600976Y-77548503D01*
X169269159Y-77482500D01*
X168930841Y-77482500D01*
X168599024Y-77548503D01*
X168286459Y-77677971D01*
X168005158Y-77865931D01*
X167765931Y-78105158D01*
X167577971Y-78386459D01*
X167448503Y-78699024D01*
X167382500Y-79030841D01*
X132817500Y-79030841D01*
X132751497Y-78699024D01*
X132622029Y-78386459D01*
X132434069Y-78105158D01*
X132194842Y-77865931D01*
X131913541Y-77677971D01*
X131600976Y-77548503D01*
X131269159Y-77482500D01*
X130930841Y-77482500D01*
X130599024Y-77548503D01*
X130286459Y-77677971D01*
X130005158Y-77865931D01*
X129765931Y-78105158D01*
X129577971Y-78386459D01*
X129448503Y-78699024D01*
X129382500Y-79030841D01*
X127836550Y-79030841D01*
X127836550Y-72516463D01*
X127856681Y-72311143D01*
X129082500Y-72311143D01*
X129082500Y-72688857D01*
X129156188Y-73059314D01*
X129300734Y-73408277D01*
X129510580Y-73722335D01*
X129777665Y-73989420D01*
X130091723Y-74199266D01*
X130440686Y-74343812D01*
X130811143Y-74417500D01*
X131188857Y-74417500D01*
X131559314Y-74343812D01*
X131908277Y-74199266D01*
X132222335Y-73989420D01*
X132489420Y-73722335D01*
X132699266Y-73408277D01*
X132843812Y-73059314D01*
X132917500Y-72688857D01*
X132917500Y-72311143D01*
X132843812Y-71940686D01*
X132699266Y-71591723D01*
X132489420Y-71277665D01*
X132222335Y-71010580D01*
X131908277Y-70800734D01*
X131559314Y-70656188D01*
X131188857Y-70582500D01*
X130811143Y-70582500D01*
X130440686Y-70656188D01*
X130091723Y-70800734D01*
X129777665Y-71010580D01*
X129510580Y-71277665D01*
X129300734Y-71591723D01*
X129156188Y-71940686D01*
X129082500Y-72311143D01*
X127856681Y-72311143D01*
X127898381Y-71885863D01*
X128076737Y-71295118D01*
X128366440Y-70750266D01*
X128756454Y-70272061D01*
X129231922Y-69878720D01*
X129774742Y-69585219D01*
X130364226Y-69402743D01*
X130977924Y-69338241D01*
X131592471Y-69394169D01*
X132184444Y-69568397D01*
X132731307Y-69854290D01*
X133212221Y-70240954D01*
X133608873Y-70713666D01*
X133906157Y-71254423D01*
X134092742Y-71842614D01*
X134163240Y-72471121D01*
X134163454Y-72501803D01*
X134163537Y-72525605D01*
X134165023Y-72540231D01*
X134164920Y-72554937D01*
X134165379Y-72559613D01*
X134236781Y-73238952D01*
X134242907Y-73268796D01*
X134248630Y-73298795D01*
X134249988Y-73303293D01*
X134451980Y-73955825D01*
X134463777Y-73983888D01*
X134475227Y-74012227D01*
X134477433Y-74016376D01*
X134802322Y-74617247D01*
X134819393Y-74642554D01*
X134836082Y-74668058D01*
X134839052Y-74671700D01*
X135274464Y-75198023D01*
X135296106Y-75219514D01*
X135317450Y-75241310D01*
X135321071Y-75244306D01*
X135850421Y-75676032D01*
X135875817Y-75692905D01*
X135900996Y-75710145D01*
X135905129Y-75712380D01*
X136508253Y-76033067D01*
X136536422Y-76044677D01*
X136564491Y-76056707D01*
X136568980Y-76058097D01*
X137222906Y-76255529D01*
X137252804Y-76261448D01*
X137282665Y-76267795D01*
X137287338Y-76268287D01*
X137967158Y-76334944D01*
X137967165Y-76334944D01*
X137983471Y-76336550D01*
X162016529Y-76336550D01*
X162017112Y-76336493D01*
X162025605Y-76336463D01*
X162040231Y-76334977D01*
X162054937Y-76335080D01*
X162059613Y-76334621D01*
X162738952Y-76263219D01*
X162768796Y-76257093D01*
X162798795Y-76251370D01*
X162803293Y-76250012D01*
X163455825Y-76048020D01*
X163483888Y-76036223D01*
X163512227Y-76024773D01*
X163516376Y-76022567D01*
X164117247Y-75697678D01*
X164142554Y-75680607D01*
X164168058Y-75663918D01*
X164171700Y-75660948D01*
X164698023Y-75225536D01*
X164719514Y-75203894D01*
X164741310Y-75182550D01*
X164744306Y-75178929D01*
X165176032Y-74649579D01*
X165192905Y-74624183D01*
X165210145Y-74599004D01*
X165212380Y-74594871D01*
X165533067Y-73991747D01*
X165544677Y-73963578D01*
X165556707Y-73935509D01*
X165558097Y-73931020D01*
X165755529Y-73277094D01*
X165761448Y-73247196D01*
X165767795Y-73217335D01*
X165768287Y-73212662D01*
X165834944Y-72532842D01*
X165856681Y-72311143D01*
X167082500Y-72311143D01*
X167082500Y-72688857D01*
X167156188Y-73059314D01*
X167300734Y-73408277D01*
X167510580Y-73722335D01*
X167777665Y-73989420D01*
X168091723Y-74199266D01*
X168440686Y-74343812D01*
X168811143Y-74417500D01*
X169188857Y-74417500D01*
X169559314Y-74343812D01*
X169908277Y-74199266D01*
X170222335Y-73989420D01*
X170489420Y-73722335D01*
X170699266Y-73408277D01*
X170843812Y-73059314D01*
X170917500Y-72688857D01*
X170917500Y-72311143D01*
X170843812Y-71940686D01*
X170699266Y-71591723D01*
X170489420Y-71277665D01*
X170222335Y-71010580D01*
X169908277Y-70800734D01*
X169559314Y-70656188D01*
X169188857Y-70582500D01*
X168811143Y-70582500D01*
X168440686Y-70656188D01*
X168091723Y-70800734D01*
X167777665Y-71010580D01*
X167510580Y-71277665D01*
X167300734Y-71591723D01*
X167156188Y-71940686D01*
X167082500Y-72311143D01*
X165856681Y-72311143D01*
X165898381Y-71885863D01*
X166076737Y-71295118D01*
X166366440Y-70750266D01*
X166756454Y-70272061D01*
X167231922Y-69878720D01*
X167774742Y-69585219D01*
X168364226Y-69402743D01*
X168977924Y-69338241D01*
X169592471Y-69394169D01*
G37*
X169592471Y-69394169D02*
X170184444Y-69568397D01*
X170731307Y-69854290D01*
X171212221Y-70240954D01*
X171608873Y-70713666D01*
X171906157Y-71254423D01*
X172092742Y-71842614D01*
X172163240Y-72471121D01*
X172163451Y-72501345D01*
X172163450Y-130483538D01*
X172101619Y-131114138D01*
X171923262Y-131704884D01*
X171633560Y-132249733D01*
X171243546Y-132727939D01*
X170768077Y-133121281D01*
X170225262Y-133414780D01*
X169635774Y-133597257D01*
X169006216Y-133663426D01*
X168999404Y-133663450D01*
X154510502Y-133663450D01*
X154510502Y-133588120D01*
X154632519Y-133630406D01*
X154766994Y-133583053D01*
X154896539Y-133482244D01*
X155003928Y-133358099D01*
X155085035Y-133215389D01*
X155136742Y-133059598D01*
X155157062Y-132896713D01*
X155070778Y-132765500D01*
X154510500Y-132765500D01*
X154510500Y-132785500D01*
X154129500Y-132785500D01*
X154129500Y-132765500D01*
X153569222Y-132765500D01*
X153482938Y-132896713D01*
X153503258Y-133059598D01*
X153554965Y-133215389D01*
X153636072Y-133358099D01*
X153743461Y-133482244D01*
X153873006Y-133583053D01*
X154007481Y-133630406D01*
X154129498Y-133588120D01*
X154129498Y-133663450D01*
X145870502Y-133663450D01*
X145870502Y-133588120D01*
X145992519Y-133630406D01*
X146126994Y-133583053D01*
X146256539Y-133482244D01*
X146363928Y-133358099D01*
X146445035Y-133215389D01*
X146496742Y-133059598D01*
X146517062Y-132896713D01*
X146430778Y-132765500D01*
X145870500Y-132765500D01*
X145870500Y-132785500D01*
X145489500Y-132785500D01*
X145489500Y-132765500D01*
X144929222Y-132765500D01*
X144842938Y-132896713D01*
X144863258Y-133059598D01*
X144914965Y-133215389D01*
X144996072Y-133358099D01*
X145103461Y-133482244D01*
X145233006Y-133583053D01*
X145367481Y-133630406D01*
X145489498Y-133588120D01*
X145489498Y-133663450D01*
X131016462Y-133663450D01*
X130385862Y-133601619D01*
X129795116Y-133423262D01*
X129250267Y-133133560D01*
X128772061Y-132743546D01*
X128378719Y-132268077D01*
X128085220Y-131725262D01*
X127902743Y-131135774D01*
X127836574Y-130506216D01*
X127836550Y-130499404D01*
X127836550Y-130311143D01*
X129082500Y-130311143D01*
X129082500Y-130688857D01*
X129156188Y-131059314D01*
X129300734Y-131408277D01*
X129510580Y-131722335D01*
X129777665Y-131989420D01*
X130091723Y-132199266D01*
X130440686Y-132343812D01*
X130811143Y-132417500D01*
X131188857Y-132417500D01*
X131559314Y-132343812D01*
X131777859Y-132253287D01*
X144842938Y-132253287D01*
X144929222Y-132384500D01*
X145489500Y-132384500D01*
X145489500Y-131561881D01*
X145870500Y-131561881D01*
X145870500Y-132384500D01*
X146430778Y-132384500D01*
X146517062Y-132253287D01*
X153482938Y-132253287D01*
X153569222Y-132384500D01*
X154129500Y-132384500D01*
X154129500Y-131561881D01*
X154510500Y-131561881D01*
X154510500Y-132384500D01*
X155070778Y-132384500D01*
X155157062Y-132253287D01*
X155136742Y-132090402D01*
X155085035Y-131934611D01*
X155003928Y-131791901D01*
X154896539Y-131667756D01*
X154766994Y-131566947D01*
X154632519Y-131519594D01*
X154510500Y-131561881D01*
X154129500Y-131561881D01*
X154007481Y-131519594D01*
X153873006Y-131566947D01*
X153743461Y-131667756D01*
X153636072Y-131791901D01*
X153554965Y-131934611D01*
X153503258Y-132090402D01*
X153482938Y-132253287D01*
X146517062Y-132253287D01*
X146496742Y-132090402D01*
X146445035Y-131934611D01*
X146363928Y-131791901D01*
X146256539Y-131667756D01*
X146126994Y-131566947D01*
X145992519Y-131519594D01*
X145870500Y-131561881D01*
X145489500Y-131561881D01*
X145367481Y-131519594D01*
X145233006Y-131566947D01*
X145103461Y-131667756D01*
X144996072Y-131791901D01*
X144914965Y-131934611D01*
X144863258Y-132090402D01*
X144842938Y-132253287D01*
X131777859Y-132253287D01*
X131908277Y-132199266D01*
X132222335Y-131989420D01*
X132489420Y-131722335D01*
X132699266Y-131408277D01*
X132843812Y-131059314D01*
X132917500Y-130688857D01*
X132917500Y-130311143D01*
X132843812Y-129940686D01*
X132699266Y-129591723D01*
X132489420Y-129277665D01*
X132222335Y-129010580D01*
X131908277Y-128800734D01*
X131559314Y-128656188D01*
X131203940Y-128585500D01*
X144862500Y-128585500D01*
X144862500Y-129135500D01*
X144915373Y-129291326D01*
X144997630Y-129433843D01*
X145106110Y-129557574D01*
X145236644Y-129657764D01*
X145367481Y-129700406D01*
X145489500Y-129658119D01*
X145489500Y-128585500D01*
X145870500Y-128585500D01*
X145870500Y-129658119D01*
X145992519Y-129700406D01*
X146123356Y-129657764D01*
X146253890Y-129557574D01*
X146362370Y-129433843D01*
X146444627Y-129291326D01*
X146497500Y-129135500D01*
X146497500Y-129095227D01*
X146540624Y-129199338D01*
X146610937Y-129304570D01*
X146700430Y-129394063D01*
X146805662Y-129464376D01*
X146922590Y-129512809D01*
X147046719Y-129537500D01*
X147173281Y-129537500D01*
X147297410Y-129512809D01*
X147414338Y-129464376D01*
X147519570Y-129394063D01*
X147609063Y-129304570D01*
X147679376Y-129199338D01*
X147727809Y-129082410D01*
X147752500Y-128958281D01*
X147752500Y-128842934D01*
X147882500Y-128972934D01*
X147882500Y-129060818D01*
X147906230Y-129180118D01*
X147952778Y-129292496D01*
X148020356Y-129393633D01*
X148106367Y-129479644D01*
X148207504Y-129547222D01*
X148319882Y-129593770D01*
X148439182Y-129617500D01*
X148560818Y-129617500D01*
X148680118Y-129593770D01*
X148792496Y-129547222D01*
X148893633Y-129479644D01*
X148979644Y-129393633D01*
X149047222Y-129292496D01*
X149093770Y-129180118D01*
X149117500Y-129060818D01*
X149117500Y-128939182D01*
X149096125Y-128831719D01*
X152247500Y-128831719D01*
X152247500Y-128958281D01*
X152272191Y-129082410D01*
X152320624Y-129199338D01*
X152390937Y-129304570D01*
X152480430Y-129394063D01*
X152585662Y-129464376D01*
X152702590Y-129512809D01*
X152826719Y-129537500D01*
X152953281Y-129537500D01*
X153077410Y-129512809D01*
X153194338Y-129464376D01*
X153299570Y-129394063D01*
X153389063Y-129304570D01*
X153459376Y-129199338D01*
X153502500Y-129095227D01*
X153502500Y-129135500D01*
X153555373Y-129291326D01*
X153637630Y-129433843D01*
X153746110Y-129557574D01*
X153876644Y-129657764D01*
X154007481Y-129700406D01*
X154129500Y-129658119D01*
X154129500Y-128585500D01*
X154510500Y-128585500D01*
X154510500Y-129658119D01*
X154632519Y-129700406D01*
X154763356Y-129657764D01*
X154893890Y-129557574D01*
X154974017Y-129466182D01*
X157132500Y-129466182D01*
X157132500Y-129587818D01*
X157156230Y-129707118D01*
X157202778Y-129819496D01*
X157270356Y-129920633D01*
X157356367Y-130006644D01*
X157457504Y-130074222D01*
X157569882Y-130120770D01*
X157689182Y-130144500D01*
X157810818Y-130144500D01*
X157930118Y-130120770D01*
X158042496Y-130074222D01*
X158143633Y-130006644D01*
X158205777Y-129944500D01*
X159454066Y-129944500D01*
X162232500Y-132722934D01*
X162232500Y-132810818D01*
X162256230Y-132930118D01*
X162302778Y-133042496D01*
X162370356Y-133143633D01*
X162456367Y-133229644D01*
X162557504Y-133297222D01*
X162669882Y-133343770D01*
X162789182Y-133367500D01*
X162910818Y-133367500D01*
X163030118Y-133343770D01*
X163142496Y-133297222D01*
X163243633Y-133229644D01*
X163329644Y-133143633D01*
X163397222Y-133042496D01*
X163443770Y-132930118D01*
X163467500Y-132810818D01*
X163467500Y-132689182D01*
X163443770Y-132569882D01*
X163397222Y-132457504D01*
X163329644Y-132356367D01*
X163243633Y-132270356D01*
X163142496Y-132202778D01*
X163030118Y-132156230D01*
X162910818Y-132132500D01*
X162822934Y-132132500D01*
X161001577Y-130311143D01*
X167082500Y-130311143D01*
X167082500Y-130688857D01*
X167156188Y-131059314D01*
X167300734Y-131408277D01*
X167510580Y-131722335D01*
X167777665Y-131989420D01*
X168091723Y-132199266D01*
X168440686Y-132343812D01*
X168811143Y-132417500D01*
X169188857Y-132417500D01*
X169559314Y-132343812D01*
X169908277Y-132199266D01*
X170222335Y-131989420D01*
X170489420Y-131722335D01*
X170699266Y-131408277D01*
X170843812Y-131059314D01*
X170917500Y-130688857D01*
X170917500Y-130311143D01*
X170843812Y-129940686D01*
X170699266Y-129591723D01*
X170489420Y-129277665D01*
X170222335Y-129010580D01*
X169908277Y-128800734D01*
X169559314Y-128656188D01*
X169188857Y-128582500D01*
X168811143Y-128582500D01*
X168440686Y-128656188D01*
X168091723Y-128800734D01*
X167777665Y-129010580D01*
X167510580Y-129277665D01*
X167300734Y-129591723D01*
X167156188Y-129940686D01*
X167082500Y-130311143D01*
X161001577Y-130311143D01*
X159936717Y-129246283D01*
X159923645Y-129230355D01*
X159860073Y-129178182D01*
X159787543Y-129139414D01*
X159708844Y-129115541D01*
X159647509Y-129109500D01*
X159647502Y-129109500D01*
X159627000Y-129107481D01*
X159606498Y-129109500D01*
X158205777Y-129109500D01*
X158143633Y-129047356D01*
X158042496Y-128979778D01*
X157930118Y-128933230D01*
X157810818Y-128909500D01*
X157689182Y-128909500D01*
X157569882Y-128933230D01*
X157457504Y-128979778D01*
X157356367Y-129047356D01*
X157270356Y-129133367D01*
X157202778Y-129234504D01*
X157156230Y-129346882D01*
X157132500Y-129466182D01*
X154974017Y-129466182D01*
X155002370Y-129433843D01*
X155084627Y-129291326D01*
X155137500Y-129135500D01*
X155137500Y-128585500D01*
X154510500Y-128585500D01*
X154129500Y-128585500D01*
X153502500Y-128585500D01*
X153502500Y-128694773D01*
X153459376Y-128590662D01*
X153389063Y-128485430D01*
X153299570Y-128395937D01*
X153194338Y-128325624D01*
X153077410Y-128277191D01*
X152953281Y-128252500D01*
X152826719Y-128252500D01*
X152702590Y-128277191D01*
X152585662Y-128325624D01*
X152480430Y-128395937D01*
X152390937Y-128485430D01*
X152320624Y-128590662D01*
X152272191Y-128707590D01*
X152247500Y-128831719D01*
X149096125Y-128831719D01*
X149093770Y-128819882D01*
X149047222Y-128707504D01*
X148979644Y-128606367D01*
X148893633Y-128520356D01*
X148792496Y-128452778D01*
X148680118Y-128406230D01*
X148560818Y-128382500D01*
X148472934Y-128382500D01*
X147744934Y-127654500D01*
X153502500Y-127654500D01*
X153502500Y-128204500D01*
X154129500Y-128204500D01*
X154129500Y-127131881D01*
X154510500Y-127131881D01*
X154510500Y-128204500D01*
X155137500Y-128204500D01*
X155137500Y-127654500D01*
X155084627Y-127498674D01*
X155002370Y-127356157D01*
X154893890Y-127232426D01*
X154763356Y-127132236D01*
X154632519Y-127089594D01*
X154510500Y-127131881D01*
X154129500Y-127131881D01*
X154007481Y-127089594D01*
X153876644Y-127132236D01*
X153746110Y-127232426D01*
X153637630Y-127356157D01*
X153555373Y-127498674D01*
X153502500Y-127654500D01*
X147744934Y-127654500D01*
X147267500Y-127177066D01*
X147267500Y-126805777D01*
X147329644Y-126743633D01*
X147366027Y-126689182D01*
X149105500Y-126689182D01*
X149105500Y-126810818D01*
X149129230Y-126930118D01*
X149175778Y-127042496D01*
X149243356Y-127143633D01*
X149329367Y-127229644D01*
X149430504Y-127297222D01*
X149542882Y-127343770D01*
X149662182Y-127367500D01*
X149783818Y-127367500D01*
X149903118Y-127343770D01*
X150015496Y-127297222D01*
X150116633Y-127229644D01*
X150178777Y-127167500D01*
X150321223Y-127167500D01*
X150383367Y-127229644D01*
X150484504Y-127297222D01*
X150596882Y-127343770D01*
X150716182Y-127367500D01*
X150837818Y-127367500D01*
X150957118Y-127343770D01*
X151069496Y-127297222D01*
X151170633Y-127229644D01*
X151256644Y-127143633D01*
X151324222Y-127042496D01*
X151370770Y-126930118D01*
X151394500Y-126810818D01*
X151394500Y-126689182D01*
X151370770Y-126569882D01*
X151324222Y-126457504D01*
X151256644Y-126356367D01*
X151170633Y-126270356D01*
X151069496Y-126202778D01*
X150957118Y-126156230D01*
X150837818Y-126132500D01*
X150716182Y-126132500D01*
X150596882Y-126156230D01*
X150484504Y-126202778D01*
X150383367Y-126270356D01*
X150321223Y-126332500D01*
X150178777Y-126332500D01*
X150116633Y-126270356D01*
X150015496Y-126202778D01*
X149903118Y-126156230D01*
X149783818Y-126132500D01*
X149662182Y-126132500D01*
X149542882Y-126156230D01*
X149430504Y-126202778D01*
X149329367Y-126270356D01*
X149243356Y-126356367D01*
X149175778Y-126457504D01*
X149129230Y-126569882D01*
X149105500Y-126689182D01*
X147366027Y-126689182D01*
X147397222Y-126642496D01*
X147443770Y-126530118D01*
X147467500Y-126410818D01*
X147467500Y-126289182D01*
X147443770Y-126169882D01*
X147397222Y-126057504D01*
X147329644Y-125956367D01*
X147243633Y-125870356D01*
X147142496Y-125802778D01*
X147030118Y-125756230D01*
X146910818Y-125732500D01*
X146789182Y-125732500D01*
X146669882Y-125756230D01*
X146557504Y-125802778D01*
X146456367Y-125870356D01*
X146370356Y-125956367D01*
X146302778Y-126057504D01*
X146256230Y-126169882D01*
X146232500Y-126289182D01*
X146232500Y-126410818D01*
X146256230Y-126530118D01*
X146302778Y-126642496D01*
X146370356Y-126743633D01*
X146432500Y-126805777D01*
X146432501Y-127329489D01*
X146430481Y-127350000D01*
X146438541Y-127431844D01*
X146462415Y-127510543D01*
X146501183Y-127583073D01*
X146540281Y-127630715D01*
X146540289Y-127630723D01*
X146553356Y-127646645D01*
X146569278Y-127659712D01*
X147162066Y-128252500D01*
X147046719Y-128252500D01*
X146922590Y-128277191D01*
X146805662Y-128325624D01*
X146700430Y-128395937D01*
X146610937Y-128485430D01*
X146540624Y-128590662D01*
X146497500Y-128694773D01*
X146497500Y-128585500D01*
X145870500Y-128585500D01*
X145489500Y-128585500D01*
X144862500Y-128585500D01*
X131203940Y-128585500D01*
X131188857Y-128582500D01*
X130811143Y-128582500D01*
X130440686Y-128656188D01*
X130091723Y-128800734D01*
X129777665Y-129010580D01*
X129510580Y-129277665D01*
X129300734Y-129591723D01*
X129156188Y-129940686D01*
X129082500Y-130311143D01*
X127836550Y-130311143D01*
X127836550Y-127654500D01*
X144862500Y-127654500D01*
X144862500Y-128204500D01*
X145489500Y-128204500D01*
X145489500Y-127131881D01*
X145870500Y-127131881D01*
X145870500Y-128204500D01*
X146497500Y-128204500D01*
X146497500Y-127654500D01*
X146444627Y-127498674D01*
X146362370Y-127356157D01*
X146253890Y-127232426D01*
X146123356Y-127132236D01*
X145992519Y-127089594D01*
X145870500Y-127131881D01*
X145489500Y-127131881D01*
X145367481Y-127089594D01*
X145236644Y-127132236D01*
X145106110Y-127232426D01*
X144997630Y-127356157D01*
X144915373Y-127498674D01*
X144862500Y-127654500D01*
X127836550Y-127654500D01*
X127836550Y-124150000D01*
X136900964Y-124150000D01*
X136900964Y-125850000D01*
X136907094Y-125912241D01*
X136925249Y-125972090D01*
X136954731Y-126027247D01*
X136994407Y-126075593D01*
X137042753Y-126115269D01*
X137097910Y-126144751D01*
X137157759Y-126162906D01*
X137220000Y-126169036D01*
X138920000Y-126169036D01*
X138982241Y-126162906D01*
X139042090Y-126144751D01*
X139097247Y-126115269D01*
X139145593Y-126075593D01*
X139185269Y-126027247D01*
X139214751Y-125972090D01*
X139232906Y-125912241D01*
X139239036Y-125850000D01*
X139239036Y-124150000D01*
X139232906Y-124087759D01*
X139214751Y-124027910D01*
X139185269Y-123972753D01*
X139145593Y-123924407D01*
X139097247Y-123884731D01*
X139042090Y-123855249D01*
X138982241Y-123837094D01*
X138920000Y-123830964D01*
X137220000Y-123830964D01*
X137157759Y-123837094D01*
X137097910Y-123855249D01*
X137042753Y-123884731D01*
X136994407Y-123924407D01*
X136954731Y-123972753D01*
X136925249Y-124027910D01*
X136907094Y-124087759D01*
X136900964Y-124150000D01*
X127836550Y-124150000D01*
X127836550Y-122828344D01*
X136962129Y-122828344D01*
X137026150Y-122982931D01*
X137148226Y-123176528D01*
X137305725Y-123342589D01*
X137492595Y-123474733D01*
X137701654Y-123567881D01*
X137879500Y-123532488D01*
X137879500Y-122650500D01*
X138260500Y-122650500D01*
X138260500Y-123532488D01*
X138438346Y-123567881D01*
X138647405Y-123474733D01*
X138834275Y-123342589D01*
X138991774Y-123176528D01*
X139113850Y-122982931D01*
X139177871Y-122828344D01*
X139141320Y-122650500D01*
X138260500Y-122650500D01*
X137879500Y-122650500D01*
X136998680Y-122650500D01*
X136962129Y-122828344D01*
X127836550Y-122828344D01*
X127836550Y-122091656D01*
X136962129Y-122091656D01*
X136998680Y-122269500D01*
X137879500Y-122269500D01*
X137879500Y-121387512D01*
X138260500Y-121387512D01*
X138260500Y-122269500D01*
X139141320Y-122269500D01*
X139177871Y-122091656D01*
X139113850Y-121937069D01*
X138991774Y-121743472D01*
X138834275Y-121577411D01*
X138647405Y-121445267D01*
X138438346Y-121352119D01*
X138260500Y-121387512D01*
X137879500Y-121387512D01*
X137701654Y-121352119D01*
X137492595Y-121445267D01*
X137305725Y-121577411D01*
X137148226Y-121743472D01*
X137026150Y-121937069D01*
X136962129Y-122091656D01*
X127836550Y-122091656D01*
X127836550Y-112030841D01*
X129382500Y-112030841D01*
X129382500Y-112369159D01*
X129448503Y-112700976D01*
X129577971Y-113013541D01*
X129765931Y-113294842D01*
X130005158Y-113534069D01*
X130286459Y-113722029D01*
X130599024Y-113851497D01*
X130930841Y-113917500D01*
X131269159Y-113917500D01*
X131600976Y-113851497D01*
X131913541Y-113722029D01*
X132194842Y-113534069D01*
X132434069Y-113294842D01*
X132622029Y-113013541D01*
X132751497Y-112700976D01*
X132817500Y-112369159D01*
X132817500Y-112030841D01*
X132751497Y-111699024D01*
X132746385Y-111686682D01*
X136682500Y-111686682D01*
X136682500Y-111808318D01*
X136706230Y-111927618D01*
X136752778Y-112039996D01*
X136820356Y-112141133D01*
X136882500Y-112203277D01*
X136882501Y-113546222D01*
X136820356Y-113608367D01*
X136752778Y-113709504D01*
X136706230Y-113821882D01*
X136682500Y-113941182D01*
X136682500Y-114062818D01*
X136706230Y-114182118D01*
X136752778Y-114294496D01*
X136820356Y-114395633D01*
X136906367Y-114481644D01*
X137007504Y-114549222D01*
X137119882Y-114595770D01*
X137239182Y-114619500D01*
X137360818Y-114619500D01*
X137480118Y-114595770D01*
X137592496Y-114549222D01*
X137693633Y-114481644D01*
X137779644Y-114395633D01*
X137847222Y-114294496D01*
X137893770Y-114182118D01*
X137917500Y-114062818D01*
X137917500Y-113941182D01*
X137893770Y-113821882D01*
X137847222Y-113709504D01*
X137779644Y-113608367D01*
X137717500Y-113546223D01*
X137717500Y-112203277D01*
X137779644Y-112141133D01*
X137847222Y-112039996D01*
X137893770Y-111927618D01*
X137917500Y-111808318D01*
X137917500Y-111686682D01*
X137893770Y-111567382D01*
X137847222Y-111455004D01*
X137779644Y-111353867D01*
X137693633Y-111267856D01*
X137592496Y-111200278D01*
X137480118Y-111153730D01*
X137360818Y-111130000D01*
X137239182Y-111130000D01*
X137119882Y-111153730D01*
X137007504Y-111200278D01*
X136906367Y-111267856D01*
X136820356Y-111353867D01*
X136752778Y-111455004D01*
X136706230Y-111567382D01*
X136682500Y-111686682D01*
X132746385Y-111686682D01*
X132622029Y-111386459D01*
X132434069Y-111105158D01*
X132194842Y-110865931D01*
X131913541Y-110677971D01*
X131600976Y-110548503D01*
X131269159Y-110482500D01*
X130930841Y-110482500D01*
X130599024Y-110548503D01*
X130286459Y-110677971D01*
X130005158Y-110865931D01*
X129765931Y-111105158D01*
X129577971Y-111386459D01*
X129448503Y-111699024D01*
X129382500Y-112030841D01*
X127836550Y-112030841D01*
X127836550Y-108040000D01*
X132730964Y-108040000D01*
X132730964Y-109740000D01*
X132737094Y-109802241D01*
X132755249Y-109862090D01*
X132784731Y-109917247D01*
X132824407Y-109965593D01*
X132872753Y-110005269D01*
X132927910Y-110034751D01*
X132987759Y-110052906D01*
X133050000Y-110059036D01*
X134750000Y-110059036D01*
X134812241Y-110052906D01*
X134872090Y-110034751D01*
X134927247Y-110005269D01*
X134975593Y-109965593D01*
X135015269Y-109917247D01*
X135044751Y-109862090D01*
X135062906Y-109802241D01*
X135069036Y-109740000D01*
X135069036Y-108805004D01*
X135269933Y-108805004D01*
X135275834Y-109034907D01*
X135326474Y-109259240D01*
X135391525Y-109416290D01*
X135543702Y-109516890D01*
X136170592Y-108890000D01*
X135543702Y-108263110D01*
X135391525Y-108363710D01*
X135308998Y-108578369D01*
X135269933Y-108805004D01*
X135069036Y-108805004D01*
X135069036Y-108040000D01*
X135068790Y-108037500D01*
X135856908Y-108037500D01*
X136440000Y-108620592D01*
X136454142Y-108606450D01*
X136723550Y-108875858D01*
X136709408Y-108890000D01*
X136723550Y-108904142D01*
X136454142Y-109173550D01*
X136440000Y-109159408D01*
X135813110Y-109786298D01*
X135913710Y-109938475D01*
X136128369Y-110021002D01*
X136355004Y-110060067D01*
X136584907Y-110054166D01*
X136809240Y-110003526D01*
X136966290Y-109938475D01*
X137066889Y-109786300D01*
X137134619Y-109854030D01*
X137255409Y-109733240D01*
X137260092Y-109742001D01*
X137268683Y-109758073D01*
X137307781Y-109805715D01*
X137307784Y-109805718D01*
X137320855Y-109821645D01*
X137336783Y-109834717D01*
X137942781Y-110440715D01*
X137955855Y-110456645D01*
X137971783Y-110469717D01*
X137971785Y-110469719D01*
X138019427Y-110508818D01*
X138091956Y-110547586D01*
X138170656Y-110571459D01*
X138231991Y-110577500D01*
X138231998Y-110577500D01*
X138252500Y-110579519D01*
X138273002Y-110577500D01*
X139667066Y-110577500D01*
X141313500Y-112223934D01*
X141257366Y-112359453D01*
X141212500Y-112585011D01*
X141212500Y-112814989D01*
X141257366Y-113040547D01*
X141345375Y-113253019D01*
X141473144Y-113444238D01*
X141635762Y-113606856D01*
X141826981Y-113734625D01*
X142039453Y-113822634D01*
X142265011Y-113867500D01*
X142494989Y-113867500D01*
X142720547Y-113822634D01*
X142933019Y-113734625D01*
X143124238Y-113606856D01*
X143286856Y-113444238D01*
X143414625Y-113253019D01*
X143502634Y-113040547D01*
X143547500Y-112814989D01*
X143547500Y-112585011D01*
X143502634Y-112359453D01*
X143414625Y-112146981D01*
X143286856Y-111955762D01*
X143124238Y-111793144D01*
X142933019Y-111665375D01*
X142720547Y-111577366D01*
X142494989Y-111532500D01*
X142265011Y-111532500D01*
X142039453Y-111577366D01*
X141903934Y-111633500D01*
X140847934Y-110577500D01*
X142207066Y-110577500D01*
X143853500Y-112223934D01*
X143797366Y-112359453D01*
X143752500Y-112585011D01*
X143752500Y-112814989D01*
X143797366Y-113040547D01*
X143885375Y-113253019D01*
X144013144Y-113444238D01*
X144175762Y-113606856D01*
X144366981Y-113734625D01*
X144579453Y-113822634D01*
X144805011Y-113867500D01*
X145034989Y-113867500D01*
X145260547Y-113822634D01*
X145473019Y-113734625D01*
X145664238Y-113606856D01*
X145826856Y-113444238D01*
X145954625Y-113253019D01*
X146042634Y-113040547D01*
X146087500Y-112814989D01*
X146087500Y-112585011D01*
X146042634Y-112359453D01*
X145954625Y-112146981D01*
X145826856Y-111955762D01*
X145664238Y-111793144D01*
X145473019Y-111665375D01*
X145260547Y-111577366D01*
X145034989Y-111532500D01*
X144805011Y-111532500D01*
X144579453Y-111577366D01*
X144443934Y-111633500D01*
X143387934Y-110577500D01*
X144747066Y-110577500D01*
X146393500Y-112223934D01*
X146337366Y-112359453D01*
X146292500Y-112585011D01*
X146292500Y-112814989D01*
X146337366Y-113040547D01*
X146425375Y-113253019D01*
X146553144Y-113444238D01*
X146715762Y-113606856D01*
X146906981Y-113734625D01*
X147119453Y-113822634D01*
X147345011Y-113867500D01*
X147574989Y-113867500D01*
X147800547Y-113822634D01*
X148013019Y-113734625D01*
X148204238Y-113606856D01*
X148366856Y-113444238D01*
X148494625Y-113253019D01*
X148582634Y-113040547D01*
X148627500Y-112814989D01*
X148627500Y-112585011D01*
X148582634Y-112359453D01*
X148494625Y-112146981D01*
X148366856Y-111955762D01*
X148204238Y-111793144D01*
X148013019Y-111665375D01*
X147800547Y-111577366D01*
X147574989Y-111532500D01*
X147345011Y-111532500D01*
X147119453Y-111577366D01*
X146983934Y-111633500D01*
X145927934Y-110577500D01*
X147287066Y-110577500D01*
X148933500Y-112223934D01*
X148877366Y-112359453D01*
X148832500Y-112585011D01*
X148832500Y-112814989D01*
X148877366Y-113040547D01*
X148965375Y-113253019D01*
X149093144Y-113444238D01*
X149255762Y-113606856D01*
X149446981Y-113734625D01*
X149659453Y-113822634D01*
X149885011Y-113867500D01*
X150114989Y-113867500D01*
X150340547Y-113822634D01*
X150553019Y-113734625D01*
X150744238Y-113606856D01*
X150906856Y-113444238D01*
X151034625Y-113253019D01*
X151122634Y-113040547D01*
X151167500Y-112814989D01*
X151167500Y-112585011D01*
X151122634Y-112359453D01*
X151034625Y-112146981D01*
X150906856Y-111955762D01*
X150744238Y-111793144D01*
X150553019Y-111665375D01*
X150340547Y-111577366D01*
X150114989Y-111532500D01*
X149885011Y-111532500D01*
X149659453Y-111577366D01*
X149523934Y-111633500D01*
X148756904Y-110866470D01*
X150116036Y-110866470D01*
X151473500Y-112223934D01*
X151417366Y-112359453D01*
X151372500Y-112585011D01*
X151372500Y-112814989D01*
X151417366Y-113040547D01*
X151505375Y-113253019D01*
X151633144Y-113444238D01*
X151795762Y-113606856D01*
X151986981Y-113734625D01*
X152199453Y-113822634D01*
X152425011Y-113867500D01*
X152654989Y-113867500D01*
X152880547Y-113822634D01*
X153093019Y-113734625D01*
X153284238Y-113606856D01*
X153446856Y-113444238D01*
X153574625Y-113253019D01*
X153662634Y-113040547D01*
X153707500Y-112814989D01*
X153707500Y-112585011D01*
X153912500Y-112585011D01*
X153912500Y-112814989D01*
X153957366Y-113040547D01*
X154045375Y-113253019D01*
X154173144Y-113444238D01*
X154335762Y-113606856D01*
X154526981Y-113734625D01*
X154739453Y-113822634D01*
X154965011Y-113867500D01*
X155194989Y-113867500D01*
X155420547Y-113822634D01*
X155633019Y-113734625D01*
X155824238Y-113606856D01*
X155881094Y-113550000D01*
X156450964Y-113550000D01*
X156457094Y-113612241D01*
X156475249Y-113672090D01*
X156504731Y-113727247D01*
X156544407Y-113775593D01*
X156592753Y-113815269D01*
X156647910Y-113844751D01*
X156707759Y-113862906D01*
X156770000Y-113869036D01*
X157350125Y-113867500D01*
X157429500Y-113788125D01*
X157429500Y-112890500D01*
X156531875Y-112890500D01*
X156452500Y-112969875D01*
X156450964Y-113550000D01*
X155881094Y-113550000D01*
X155986856Y-113444238D01*
X156114625Y-113253019D01*
X156202634Y-113040547D01*
X156247500Y-112814989D01*
X156247500Y-112585011D01*
X156202634Y-112359453D01*
X156114625Y-112146981D01*
X155986856Y-111955762D01*
X155881094Y-111850000D01*
X156450964Y-111850000D01*
X156452500Y-112430125D01*
X156531875Y-112509500D01*
X157429500Y-112509500D01*
X157429500Y-111611875D01*
X157350125Y-111532500D01*
X156770000Y-111530964D01*
X156707759Y-111537094D01*
X156647910Y-111555249D01*
X156592753Y-111584731D01*
X156544407Y-111624407D01*
X156504731Y-111672753D01*
X156475249Y-111727910D01*
X156457094Y-111787759D01*
X156450964Y-111850000D01*
X155881094Y-111850000D01*
X155824238Y-111793144D01*
X155633019Y-111665375D01*
X155420547Y-111577366D01*
X155194989Y-111532500D01*
X154965011Y-111532500D01*
X154739453Y-111577366D01*
X154526981Y-111665375D01*
X154335762Y-111793144D01*
X154173144Y-111955762D01*
X154045375Y-112146981D01*
X153957366Y-112359453D01*
X153912500Y-112585011D01*
X153707500Y-112585011D01*
X153662634Y-112359453D01*
X153574625Y-112146981D01*
X153446856Y-111955762D01*
X153284238Y-111793144D01*
X153093019Y-111665375D01*
X152880547Y-111577366D01*
X152654989Y-111532500D01*
X152425011Y-111532500D01*
X152199453Y-111577366D01*
X152063934Y-111633500D01*
X150598687Y-110168253D01*
X150585615Y-110152325D01*
X150522043Y-110100152D01*
X150449513Y-110061384D01*
X150370814Y-110037511D01*
X150309479Y-110031470D01*
X150309472Y-110031470D01*
X150288970Y-110029451D01*
X150268468Y-110031470D01*
X149385449Y-110031470D01*
X149509240Y-110003526D01*
X149666290Y-109938475D01*
X149766890Y-109786298D01*
X149140000Y-109159408D01*
X148513110Y-109786298D01*
X148613710Y-109938475D01*
X148828369Y-110021002D01*
X148889099Y-110031470D01*
X148613965Y-110031470D01*
X148195000Y-109612506D01*
X148195000Y-109484694D01*
X148243702Y-109516890D01*
X148870592Y-108890000D01*
X149409408Y-108890000D01*
X150036298Y-109516890D01*
X150188475Y-109416290D01*
X150271002Y-109201631D01*
X150310067Y-108974996D01*
X150304166Y-108745093D01*
X150253526Y-108520760D01*
X150188475Y-108363710D01*
X150036298Y-108263110D01*
X149409408Y-108890000D01*
X148870592Y-108890000D01*
X148243702Y-108263110D01*
X148195000Y-108295306D01*
X148195000Y-107993702D01*
X148513110Y-107993702D01*
X149140000Y-108620592D01*
X149766890Y-107993702D01*
X149666290Y-107841525D01*
X149451631Y-107758998D01*
X149224996Y-107719933D01*
X148995093Y-107725834D01*
X148770760Y-107776474D01*
X148613710Y-107841525D01*
X148513110Y-107993702D01*
X148195000Y-107993702D01*
X148195000Y-106688002D01*
X148197019Y-106667500D01*
X148195000Y-106646998D01*
X148195000Y-106646991D01*
X148188959Y-106585656D01*
X148165086Y-106506957D01*
X148126318Y-106434427D01*
X148074145Y-106370855D01*
X148058218Y-106357784D01*
X147769717Y-106069283D01*
X147756645Y-106053355D01*
X147693073Y-106001182D01*
X147620543Y-105962414D01*
X147541844Y-105938541D01*
X147480509Y-105932500D01*
X147480502Y-105932500D01*
X147460000Y-105930481D01*
X147439498Y-105932500D01*
X142422073Y-105932500D01*
X142443770Y-105880118D01*
X142467500Y-105760818D01*
X142467500Y-105672934D01*
X150555718Y-97584716D01*
X150571645Y-97571645D01*
X150623818Y-97508073D01*
X150662586Y-97435543D01*
X150686459Y-97356844D01*
X150692500Y-97295509D01*
X150692500Y-97295500D01*
X150694519Y-97275001D01*
X150692500Y-97254502D01*
X150692500Y-92912182D01*
X150882500Y-92912182D01*
X150882500Y-93033818D01*
X150906230Y-93153118D01*
X150952778Y-93265496D01*
X151020356Y-93366633D01*
X151106367Y-93452644D01*
X151207504Y-93520222D01*
X151319882Y-93566770D01*
X151439182Y-93590500D01*
X151527066Y-93590500D01*
X151582501Y-93645935D01*
X151582500Y-97270508D01*
X151582501Y-97270518D01*
X151582500Y-107020508D01*
X151582501Y-107020518D01*
X151582500Y-108544223D01*
X151520356Y-108606367D01*
X151452778Y-108707504D01*
X151406230Y-108819882D01*
X151382500Y-108939182D01*
X151382500Y-109060818D01*
X151406230Y-109180118D01*
X151452778Y-109292496D01*
X151520356Y-109393633D01*
X151606367Y-109479644D01*
X151707504Y-109547222D01*
X151819882Y-109593770D01*
X151939182Y-109617500D01*
X152060818Y-109617500D01*
X152180118Y-109593770D01*
X152292496Y-109547222D01*
X152393633Y-109479644D01*
X152479644Y-109393633D01*
X152500000Y-109363168D01*
X152520356Y-109393633D01*
X152606367Y-109479644D01*
X152707504Y-109547222D01*
X152819882Y-109593770D01*
X152939182Y-109617500D01*
X153060818Y-109617500D01*
X153180118Y-109593770D01*
X153292496Y-109547222D01*
X153393633Y-109479644D01*
X153479644Y-109393633D01*
X153500000Y-109363168D01*
X153520356Y-109393633D01*
X153606367Y-109479644D01*
X153707504Y-109547222D01*
X153819882Y-109593770D01*
X153939182Y-109617500D01*
X154060818Y-109617500D01*
X154180118Y-109593770D01*
X154292496Y-109547222D01*
X154393633Y-109479644D01*
X154479644Y-109393633D01*
X154547222Y-109292496D01*
X154593770Y-109180118D01*
X154617500Y-109060818D01*
X154617500Y-108939182D01*
X154593770Y-108819882D01*
X154547222Y-108707504D01*
X154479644Y-108606367D01*
X154393633Y-108520356D01*
X154292496Y-108452778D01*
X154180118Y-108406230D01*
X154060818Y-108382500D01*
X153972934Y-108382500D01*
X153417500Y-107827066D01*
X153417500Y-103770492D01*
X153457504Y-103797222D01*
X153569882Y-103843770D01*
X153689182Y-103867500D01*
X153810818Y-103867500D01*
X153930118Y-103843770D01*
X154042496Y-103797222D01*
X154143633Y-103729644D01*
X154229644Y-103643633D01*
X154297222Y-103542496D01*
X154343770Y-103430118D01*
X154367500Y-103310818D01*
X154367500Y-103189182D01*
X154343770Y-103069882D01*
X154297222Y-102957504D01*
X154229644Y-102856367D01*
X154143633Y-102770356D01*
X154042496Y-102702778D01*
X153930118Y-102656230D01*
X153917500Y-102653720D01*
X153917500Y-96439182D01*
X155132500Y-96439182D01*
X155132500Y-96560818D01*
X155156230Y-96680118D01*
X155202778Y-96792496D01*
X155270356Y-96893633D01*
X155356367Y-96979644D01*
X155457504Y-97047222D01*
X155569882Y-97093770D01*
X155689182Y-97117500D01*
X155810818Y-97117500D01*
X155930118Y-97093770D01*
X156042496Y-97047222D01*
X156143633Y-96979644D01*
X156205777Y-96917500D01*
X158577066Y-96917500D01*
X158582501Y-96922934D01*
X158582500Y-99479491D01*
X158582500Y-100020509D01*
X158582501Y-100020519D01*
X158582500Y-111552340D01*
X158532241Y-111537094D01*
X158470000Y-111530964D01*
X157889875Y-111532500D01*
X157810500Y-111611875D01*
X157810500Y-112509500D01*
X157830500Y-112509500D01*
X157830500Y-112890500D01*
X157810500Y-112890500D01*
X157810500Y-113788125D01*
X157889875Y-113867500D01*
X158470000Y-113869036D01*
X158532241Y-113862906D01*
X158582500Y-113847660D01*
X158582500Y-121520508D01*
X158582501Y-121520518D01*
X158582500Y-121903720D01*
X158569882Y-121906230D01*
X158457504Y-121952778D01*
X158356367Y-122020356D01*
X158270356Y-122106367D01*
X158202778Y-122207504D01*
X158156230Y-122319882D01*
X158132500Y-122439182D01*
X158132500Y-122560818D01*
X158156230Y-122680118D01*
X158202778Y-122792496D01*
X158270356Y-122893633D01*
X158356367Y-122979644D01*
X158457504Y-123047222D01*
X158569882Y-123093770D01*
X158689182Y-123117500D01*
X158810818Y-123117500D01*
X158930118Y-123093770D01*
X159042496Y-123047222D01*
X159082500Y-123020492D01*
X159082500Y-123719485D01*
X159006367Y-123770356D01*
X158920356Y-123856367D01*
X158852778Y-123957504D01*
X158806230Y-124069882D01*
X158782500Y-124189182D01*
X158782500Y-124310818D01*
X158806230Y-124430118D01*
X158852778Y-124542496D01*
X158920356Y-124643633D01*
X159006367Y-124729644D01*
X159090717Y-124786006D01*
X159020356Y-124856367D01*
X158952778Y-124957504D01*
X158906230Y-125069882D01*
X158882500Y-125189182D01*
X158882500Y-125310818D01*
X158906230Y-125430118D01*
X158952778Y-125542496D01*
X159020356Y-125643633D01*
X159106367Y-125729644D01*
X159207504Y-125797222D01*
X159319882Y-125843770D01*
X159439182Y-125867500D01*
X159527065Y-125867500D01*
X159717288Y-126057723D01*
X159730356Y-126073646D01*
X159746278Y-126086713D01*
X159746285Y-126086720D01*
X159772322Y-126108087D01*
X159793928Y-126125819D01*
X159866458Y-126164587D01*
X159921283Y-126181218D01*
X159945156Y-126188460D01*
X159952699Y-126189203D01*
X160006492Y-126194501D01*
X160006499Y-126194501D01*
X160027001Y-126196520D01*
X160047503Y-126194501D01*
X161952497Y-126194501D01*
X161972999Y-126196520D01*
X161993501Y-126194501D01*
X161993508Y-126194501D01*
X162054843Y-126188460D01*
X162133542Y-126164587D01*
X162206072Y-126125819D01*
X162269644Y-126073646D01*
X162282716Y-126057718D01*
X162672935Y-125667500D01*
X163979498Y-125667500D01*
X164000000Y-125669519D01*
X164020502Y-125667500D01*
X164020509Y-125667500D01*
X164081844Y-125661459D01*
X164160543Y-125637586D01*
X164233073Y-125598818D01*
X164296645Y-125546645D01*
X164309719Y-125530715D01*
X164530713Y-125309720D01*
X164546645Y-125296645D01*
X164598818Y-125233073D01*
X164637586Y-125160543D01*
X164661459Y-125081844D01*
X164667500Y-125020509D01*
X164667500Y-125020500D01*
X164669519Y-125000001D01*
X164667500Y-124979502D01*
X164667500Y-123270498D01*
X164669519Y-123249999D01*
X164667500Y-123229500D01*
X164667500Y-123229491D01*
X164661459Y-123168156D01*
X164637586Y-123089457D01*
X164598818Y-123016927D01*
X164546645Y-122953355D01*
X164530712Y-122940279D01*
X164309717Y-122719283D01*
X164296645Y-122703355D01*
X164233073Y-122651182D01*
X164160543Y-122612414D01*
X164081844Y-122588541D01*
X164020509Y-122582500D01*
X164020502Y-122582500D01*
X164000000Y-122580481D01*
X163979498Y-122582500D01*
X163607817Y-122582500D01*
X163617500Y-122533818D01*
X163617500Y-122412182D01*
X163593770Y-122292882D01*
X163547222Y-122180504D01*
X163479644Y-122079367D01*
X163417500Y-122017223D01*
X163417500Y-120955777D01*
X163479644Y-120893633D01*
X163547222Y-120792496D01*
X163593770Y-120680118D01*
X163617500Y-120560818D01*
X163617500Y-120439182D01*
X163593770Y-120319882D01*
X163547222Y-120207504D01*
X163479644Y-120106367D01*
X163393633Y-120020356D01*
X163292496Y-119952778D01*
X163180118Y-119906230D01*
X163060818Y-119882500D01*
X162939182Y-119882500D01*
X162819882Y-119906230D01*
X162707504Y-119952778D01*
X162606367Y-120020356D01*
X162520356Y-120106367D01*
X162452778Y-120207504D01*
X162406230Y-120319882D01*
X162382500Y-120439182D01*
X162382500Y-120560818D01*
X162406230Y-120680118D01*
X162452778Y-120792496D01*
X162520356Y-120893633D01*
X162582501Y-120955778D01*
X162582500Y-122017223D01*
X162520356Y-122079367D01*
X162452778Y-122180504D01*
X162406230Y-122292882D01*
X162382500Y-122412182D01*
X162382500Y-122533818D01*
X162392183Y-122582500D01*
X161422933Y-122582500D01*
X161417500Y-122577066D01*
X161417500Y-112030841D01*
X167382500Y-112030841D01*
X167382500Y-112369159D01*
X167448503Y-112700976D01*
X167577971Y-113013541D01*
X167765931Y-113294842D01*
X168005158Y-113534069D01*
X168286459Y-113722029D01*
X168599024Y-113851497D01*
X168930841Y-113917500D01*
X169269159Y-113917500D01*
X169600976Y-113851497D01*
X169913541Y-113722029D01*
X170194842Y-113534069D01*
X170434069Y-113294842D01*
X170622029Y-113013541D01*
X170751497Y-112700976D01*
X170817500Y-112369159D01*
X170817500Y-112030841D01*
X170751497Y-111699024D01*
X170622029Y-111386459D01*
X170434069Y-111105158D01*
X170194842Y-110865931D01*
X169913541Y-110677971D01*
X169600976Y-110548503D01*
X169269159Y-110482500D01*
X168930841Y-110482500D01*
X168599024Y-110548503D01*
X168286459Y-110677971D01*
X168005158Y-110865931D01*
X167765931Y-111105158D01*
X167577971Y-111386459D01*
X167448503Y-111699024D01*
X167382500Y-112030841D01*
X161417500Y-112030841D01*
X161417500Y-111373280D01*
X161430118Y-111370770D01*
X161542496Y-111324222D01*
X161643633Y-111256644D01*
X161729644Y-111170633D01*
X161797222Y-111069496D01*
X161843770Y-110957118D01*
X161867500Y-110837818D01*
X161867500Y-110716182D01*
X161843770Y-110596882D01*
X161797222Y-110484504D01*
X161729644Y-110383367D01*
X161643633Y-110297356D01*
X161542496Y-110229778D01*
X161430118Y-110183230D01*
X161310818Y-110159500D01*
X161189182Y-110159500D01*
X161140521Y-110169179D01*
X161120770Y-110069882D01*
X161074222Y-109957504D01*
X161006644Y-109856367D01*
X160920633Y-109770356D01*
X160819496Y-109702778D01*
X160707118Y-109656230D01*
X160587818Y-109632500D01*
X160466182Y-109632500D01*
X160417500Y-109642183D01*
X160417500Y-103060011D01*
X160762500Y-103060011D01*
X160762500Y-103289989D01*
X160807366Y-103515547D01*
X160895375Y-103728019D01*
X161023144Y-103919238D01*
X161185762Y-104081856D01*
X161376981Y-104209625D01*
X161589453Y-104297634D01*
X161815011Y-104342500D01*
X162044989Y-104342500D01*
X162270547Y-104297634D01*
X162483019Y-104209625D01*
X162674238Y-104081856D01*
X162836856Y-103919238D01*
X162964625Y-103728019D01*
X163052634Y-103515547D01*
X163097500Y-103289989D01*
X163097500Y-103060011D01*
X163052634Y-102834453D01*
X162964625Y-102621981D01*
X162836856Y-102430762D01*
X162674238Y-102268144D01*
X162483019Y-102140375D01*
X162270547Y-102052366D01*
X162044989Y-102007500D01*
X161815011Y-102007500D01*
X161589453Y-102052366D01*
X161376981Y-102140375D01*
X161185762Y-102268144D01*
X161023144Y-102430762D01*
X160895375Y-102621981D01*
X160807366Y-102834453D01*
X160762500Y-103060011D01*
X160417500Y-103060011D01*
X160417500Y-100520011D01*
X160762500Y-100520011D01*
X160762500Y-100749989D01*
X160807366Y-100975547D01*
X160895375Y-101188019D01*
X161023144Y-101379238D01*
X161185762Y-101541856D01*
X161376981Y-101669625D01*
X161589453Y-101757634D01*
X161815011Y-101802500D01*
X162044989Y-101802500D01*
X162270547Y-101757634D01*
X162483019Y-101669625D01*
X162674238Y-101541856D01*
X162836856Y-101379238D01*
X162964625Y-101188019D01*
X163052634Y-100975547D01*
X163097500Y-100749989D01*
X163097500Y-100520011D01*
X163052634Y-100294453D01*
X162964625Y-100081981D01*
X162836856Y-99890762D01*
X162674238Y-99728144D01*
X162483019Y-99600375D01*
X162270547Y-99512366D01*
X162044989Y-99467500D01*
X161815011Y-99467500D01*
X161589453Y-99512366D01*
X161376981Y-99600375D01*
X161185762Y-99728144D01*
X161023144Y-99890762D01*
X160895375Y-100081981D01*
X160807366Y-100294453D01*
X160762500Y-100520011D01*
X160417500Y-100520011D01*
X160417500Y-97980011D01*
X160762500Y-97980011D01*
X160762500Y-98209989D01*
X160807366Y-98435547D01*
X160895375Y-98648019D01*
X161023144Y-98839238D01*
X161185762Y-99001856D01*
X161376981Y-99129625D01*
X161589453Y-99217634D01*
X161815011Y-99262500D01*
X162044989Y-99262500D01*
X162270547Y-99217634D01*
X162483019Y-99129625D01*
X162674238Y-99001856D01*
X162836856Y-98839238D01*
X162964625Y-98648019D01*
X163052634Y-98435547D01*
X163097500Y-98209989D01*
X163097500Y-97980011D01*
X163052634Y-97754453D01*
X162964625Y-97541981D01*
X162836856Y-97350762D01*
X162674238Y-97188144D01*
X162483019Y-97060375D01*
X162270547Y-96972366D01*
X162044989Y-96927500D01*
X161815011Y-96927500D01*
X161589453Y-96972366D01*
X161376981Y-97060375D01*
X161185762Y-97188144D01*
X161023144Y-97350762D01*
X160895375Y-97541981D01*
X160807366Y-97754453D01*
X160762500Y-97980011D01*
X160417500Y-97980011D01*
X160417500Y-96405000D01*
X160760964Y-96405000D01*
X160767094Y-96467241D01*
X160785249Y-96527090D01*
X160814731Y-96582247D01*
X160854407Y-96630593D01*
X160902753Y-96670269D01*
X160957910Y-96699751D01*
X161017759Y-96717906D01*
X161080000Y-96724036D01*
X161660125Y-96722500D01*
X161739500Y-96643125D01*
X161739500Y-95745500D01*
X162120500Y-95745500D01*
X162120500Y-96643125D01*
X162199875Y-96722500D01*
X162780000Y-96724036D01*
X162842241Y-96717906D01*
X162902090Y-96699751D01*
X162957247Y-96670269D01*
X163005593Y-96630593D01*
X163045269Y-96582247D01*
X163074751Y-96527090D01*
X163092906Y-96467241D01*
X163099036Y-96405000D01*
X163097500Y-95824875D01*
X163018125Y-95745500D01*
X162120500Y-95745500D01*
X161739500Y-95745500D01*
X160841875Y-95745500D01*
X160762500Y-95824875D01*
X160760964Y-96405000D01*
X160417500Y-96405000D01*
X160417500Y-94705000D01*
X160760964Y-94705000D01*
X160762500Y-95285125D01*
X160841875Y-95364500D01*
X161739500Y-95364500D01*
X161739500Y-94466875D01*
X162120500Y-94466875D01*
X162120500Y-95364500D01*
X163018125Y-95364500D01*
X163097500Y-95285125D01*
X163099036Y-94705000D01*
X163092906Y-94642759D01*
X163074751Y-94582910D01*
X163045269Y-94527753D01*
X163005593Y-94479407D01*
X162957247Y-94439731D01*
X162902090Y-94410249D01*
X162842241Y-94392094D01*
X162780000Y-94385964D01*
X162199875Y-94387500D01*
X162120500Y-94466875D01*
X161739500Y-94466875D01*
X161660125Y-94387500D01*
X161080000Y-94385964D01*
X161017759Y-94392094D01*
X160957910Y-94410249D01*
X160902753Y-94439731D01*
X160854407Y-94479407D01*
X160814731Y-94527753D01*
X160785249Y-94582910D01*
X160767094Y-94642759D01*
X160760964Y-94705000D01*
X160417500Y-94705000D01*
X160417500Y-90360011D01*
X160762500Y-90360011D01*
X160762500Y-90589989D01*
X160807366Y-90815547D01*
X160895375Y-91028019D01*
X161023144Y-91219238D01*
X161185762Y-91381856D01*
X161376981Y-91509625D01*
X161589453Y-91597634D01*
X161815011Y-91642500D01*
X162044989Y-91642500D01*
X162270547Y-91597634D01*
X162483019Y-91509625D01*
X162674238Y-91381856D01*
X162836856Y-91219238D01*
X162964625Y-91028019D01*
X163052634Y-90815547D01*
X163097500Y-90589989D01*
X163097500Y-90360011D01*
X163052634Y-90134453D01*
X162964625Y-89921981D01*
X162836856Y-89730762D01*
X162674238Y-89568144D01*
X162483019Y-89440375D01*
X162270547Y-89352366D01*
X162044989Y-89307500D01*
X161815011Y-89307500D01*
X161589453Y-89352366D01*
X161376981Y-89440375D01*
X161185762Y-89568144D01*
X161023144Y-89730762D01*
X160895375Y-89921981D01*
X160807366Y-90134453D01*
X160762500Y-90360011D01*
X160417500Y-90360011D01*
X160417500Y-87820011D01*
X160762500Y-87820011D01*
X160762500Y-88049989D01*
X160807366Y-88275547D01*
X160895375Y-88488019D01*
X161023144Y-88679238D01*
X161185762Y-88841856D01*
X161376981Y-88969625D01*
X161589453Y-89057634D01*
X161815011Y-89102500D01*
X162044989Y-89102500D01*
X162270547Y-89057634D01*
X162483019Y-88969625D01*
X162674238Y-88841856D01*
X162836856Y-88679238D01*
X162964625Y-88488019D01*
X163052634Y-88275547D01*
X163097500Y-88049989D01*
X163097500Y-87820011D01*
X163052634Y-87594453D01*
X162964625Y-87381981D01*
X162836856Y-87190762D01*
X162674238Y-87028144D01*
X162483019Y-86900375D01*
X162270547Y-86812366D01*
X162044989Y-86767500D01*
X161815011Y-86767500D01*
X161589453Y-86812366D01*
X161376981Y-86900375D01*
X161185762Y-87028144D01*
X161023144Y-87190762D01*
X160895375Y-87381981D01*
X160807366Y-87594453D01*
X160762500Y-87820011D01*
X160417500Y-87820011D01*
X160417500Y-85280011D01*
X160762500Y-85280011D01*
X160762500Y-85509989D01*
X160807366Y-85735547D01*
X160895375Y-85948019D01*
X161023144Y-86139238D01*
X161185762Y-86301856D01*
X161376981Y-86429625D01*
X161589453Y-86517634D01*
X161815011Y-86562500D01*
X162044989Y-86562500D01*
X162270547Y-86517634D01*
X162483019Y-86429625D01*
X162674238Y-86301856D01*
X162836856Y-86139238D01*
X162964625Y-85948019D01*
X163052634Y-85735547D01*
X163097500Y-85509989D01*
X163097500Y-85280011D01*
X163052634Y-85054453D01*
X162964625Y-84841981D01*
X162836856Y-84650762D01*
X162674238Y-84488144D01*
X162483019Y-84360375D01*
X162270547Y-84272366D01*
X162044989Y-84227500D01*
X161815011Y-84227500D01*
X161589453Y-84272366D01*
X161376981Y-84360375D01*
X161185762Y-84488144D01*
X161023144Y-84650762D01*
X160895375Y-84841981D01*
X160807366Y-85054453D01*
X160762500Y-85280011D01*
X160417500Y-85280011D01*
X160417500Y-83705000D01*
X160760964Y-83705000D01*
X160767094Y-83767241D01*
X160785249Y-83827090D01*
X160814731Y-83882247D01*
X160854407Y-83930593D01*
X160902753Y-83970269D01*
X160957910Y-83999751D01*
X161017759Y-84017906D01*
X161080000Y-84024036D01*
X161660125Y-84022500D01*
X161739500Y-83943125D01*
X161739500Y-83045500D01*
X162120500Y-83045500D01*
X162120500Y-83943125D01*
X162199875Y-84022500D01*
X162780000Y-84024036D01*
X162842241Y-84017906D01*
X162902090Y-83999751D01*
X162957247Y-83970269D01*
X163005593Y-83930593D01*
X163045269Y-83882247D01*
X163074751Y-83827090D01*
X163092906Y-83767241D01*
X163099036Y-83705000D01*
X163097500Y-83124875D01*
X163018125Y-83045500D01*
X162120500Y-83045500D01*
X161739500Y-83045500D01*
X160841875Y-83045500D01*
X160762500Y-83124875D01*
X160760964Y-83705000D01*
X160417500Y-83705000D01*
X160417500Y-82005000D01*
X160760964Y-82005000D01*
X160762500Y-82585125D01*
X160841875Y-82664500D01*
X161739500Y-82664500D01*
X161739500Y-81766875D01*
X162120500Y-81766875D01*
X162120500Y-82664500D01*
X163018125Y-82664500D01*
X163097500Y-82585125D01*
X163099036Y-82005000D01*
X163092906Y-81942759D01*
X163074751Y-81882910D01*
X163045269Y-81827753D01*
X163005593Y-81779407D01*
X162957247Y-81739731D01*
X162902090Y-81710249D01*
X162842241Y-81692094D01*
X162780000Y-81685964D01*
X162199875Y-81687500D01*
X162120500Y-81766875D01*
X161739500Y-81766875D01*
X161660125Y-81687500D01*
X161080000Y-81685964D01*
X161017759Y-81692094D01*
X160957910Y-81710249D01*
X160902753Y-81739731D01*
X160854407Y-81779407D01*
X160814731Y-81827753D01*
X160785249Y-81882910D01*
X160767094Y-81942759D01*
X160760964Y-82005000D01*
X160417500Y-82005000D01*
X160417500Y-81846280D01*
X160430118Y-81843770D01*
X160542496Y-81797222D01*
X160643633Y-81729644D01*
X160729644Y-81643633D01*
X160797222Y-81542496D01*
X160843770Y-81430118D01*
X160867500Y-81310818D01*
X160867500Y-81189182D01*
X160843770Y-81069882D01*
X160797222Y-80957504D01*
X160729644Y-80856367D01*
X160643633Y-80770356D01*
X160542496Y-80702778D01*
X160430118Y-80656230D01*
X160310818Y-80632500D01*
X160189182Y-80632500D01*
X160069882Y-80656230D01*
X159957504Y-80702778D01*
X159856367Y-80770356D01*
X159770356Y-80856367D01*
X159702778Y-80957504D01*
X159656230Y-81069882D01*
X159632500Y-81189182D01*
X159632500Y-81301880D01*
X159612414Y-81339458D01*
X159588541Y-81418157D01*
X159582500Y-81479492D01*
X159582500Y-81479498D01*
X159580481Y-81500000D01*
X159582500Y-81520502D01*
X159582500Y-82242066D01*
X159559717Y-82219283D01*
X159546645Y-82203355D01*
X159483073Y-82151182D01*
X159410543Y-82112414D01*
X159331844Y-82088541D01*
X159270509Y-82082500D01*
X159270502Y-82082500D01*
X159250000Y-82080481D01*
X159229498Y-82082500D01*
X157475777Y-82082500D01*
X157403633Y-82010356D01*
X157302496Y-81942778D01*
X157190118Y-81896230D01*
X157070818Y-81872500D01*
X156949182Y-81872500D01*
X156829882Y-81896230D01*
X156717504Y-81942778D01*
X156616367Y-82010356D01*
X156530356Y-82096367D01*
X156462778Y-82197504D01*
X156416230Y-82309882D01*
X156392500Y-82429182D01*
X156392500Y-82550818D01*
X156416230Y-82670118D01*
X156462778Y-82782496D01*
X156530356Y-82883633D01*
X156616367Y-82969644D01*
X156717504Y-83037222D01*
X156829882Y-83083770D01*
X156949182Y-83107500D01*
X157070818Y-83107500D01*
X157190118Y-83083770D01*
X157302496Y-83037222D01*
X157403633Y-82969644D01*
X157455777Y-82917500D01*
X159077066Y-82917500D01*
X159082501Y-82922934D01*
X159082500Y-96242067D01*
X159059717Y-96219283D01*
X159046645Y-96203355D01*
X158983073Y-96151182D01*
X158910543Y-96112414D01*
X158831844Y-96088541D01*
X158770509Y-96082500D01*
X158770502Y-96082500D01*
X158750000Y-96080481D01*
X158729498Y-96082500D01*
X156205777Y-96082500D01*
X156143633Y-96020356D01*
X156042496Y-95952778D01*
X155930118Y-95906230D01*
X155810818Y-95882500D01*
X155689182Y-95882500D01*
X155569882Y-95906230D01*
X155457504Y-95952778D01*
X155356367Y-96020356D01*
X155270356Y-96106367D01*
X155202778Y-96207504D01*
X155156230Y-96319882D01*
X155132500Y-96439182D01*
X153917500Y-96439182D01*
X153917500Y-94172934D01*
X154472934Y-93617500D01*
X154560818Y-93617500D01*
X154680118Y-93593770D01*
X154792496Y-93547222D01*
X154893633Y-93479644D01*
X154979644Y-93393633D01*
X155047222Y-93292496D01*
X155093770Y-93180118D01*
X155117500Y-93060818D01*
X155117500Y-92939182D01*
X155093770Y-92819882D01*
X155047222Y-92707504D01*
X154979644Y-92606367D01*
X154893633Y-92520356D01*
X154792496Y-92452778D01*
X154680118Y-92406230D01*
X154560818Y-92382500D01*
X154439182Y-92382500D01*
X154319882Y-92406230D01*
X154207504Y-92452778D01*
X154106367Y-92520356D01*
X154020356Y-92606367D01*
X154000000Y-92636832D01*
X153979644Y-92606367D01*
X153893633Y-92520356D01*
X153792496Y-92452778D01*
X153680118Y-92406230D01*
X153560818Y-92382500D01*
X153439182Y-92382500D01*
X153319882Y-92406230D01*
X153207504Y-92452778D01*
X153106367Y-92520356D01*
X153020356Y-92606367D01*
X153000000Y-92636832D01*
X152979644Y-92606367D01*
X152893633Y-92520356D01*
X152792496Y-92452778D01*
X152680118Y-92406230D01*
X152560818Y-92382500D01*
X152439182Y-92382500D01*
X152319882Y-92406230D01*
X152207504Y-92452778D01*
X152106367Y-92520356D01*
X152020356Y-92606367D01*
X152009020Y-92623332D01*
X151979644Y-92579367D01*
X151893633Y-92493356D01*
X151792496Y-92425778D01*
X151680118Y-92379230D01*
X151560818Y-92355500D01*
X151439182Y-92355500D01*
X151319882Y-92379230D01*
X151207504Y-92425778D01*
X151106367Y-92493356D01*
X151020356Y-92579367D01*
X150952778Y-92680504D01*
X150906230Y-92792882D01*
X150882500Y-92912182D01*
X150692500Y-92912182D01*
X150692500Y-89838641D01*
X150792496Y-89797222D01*
X150893633Y-89729644D01*
X150979644Y-89643633D01*
X151047222Y-89542496D01*
X151093770Y-89430118D01*
X151117500Y-89310818D01*
X151117500Y-89189182D01*
X151093770Y-89069882D01*
X151047222Y-88957504D01*
X150979644Y-88856367D01*
X150893633Y-88770356D01*
X150792496Y-88702778D01*
X150680118Y-88656230D01*
X150560818Y-88632500D01*
X150439182Y-88632500D01*
X150319882Y-88656230D01*
X150207504Y-88702778D01*
X150125000Y-88757906D01*
X150042496Y-88702778D01*
X149930118Y-88656230D01*
X149810818Y-88632500D01*
X149689182Y-88632500D01*
X149569882Y-88656230D01*
X149457504Y-88702778D01*
X149356367Y-88770356D01*
X149270356Y-88856367D01*
X149202778Y-88957504D01*
X149156230Y-89069882D01*
X149132500Y-89189182D01*
X149132500Y-89310818D01*
X149156230Y-89430118D01*
X149202778Y-89542496D01*
X149270356Y-89643633D01*
X149332500Y-89705777D01*
X149332501Y-97077064D01*
X144927066Y-101482500D01*
X142305777Y-101482500D01*
X142243633Y-101420356D01*
X142142496Y-101352778D01*
X142030118Y-101306230D01*
X141910818Y-101282500D01*
X141789182Y-101282500D01*
X141669882Y-101306230D01*
X141557504Y-101352778D01*
X141456367Y-101420356D01*
X141370356Y-101506367D01*
X141302778Y-101607504D01*
X141256230Y-101719882D01*
X141232500Y-101839182D01*
X141232500Y-101960818D01*
X141256230Y-102080118D01*
X141302778Y-102192496D01*
X141370356Y-102293633D01*
X141456367Y-102379644D01*
X141557504Y-102447222D01*
X141669882Y-102493770D01*
X141789182Y-102517500D01*
X141910818Y-102517500D01*
X142030118Y-102493770D01*
X142142496Y-102447222D01*
X142243633Y-102379644D01*
X142305777Y-102317500D01*
X144642066Y-102317500D01*
X141877066Y-105082500D01*
X141789182Y-105082500D01*
X141669882Y-105106230D01*
X141557504Y-105152778D01*
X141456367Y-105220356D01*
X141370356Y-105306367D01*
X141302778Y-105407504D01*
X141256230Y-105519882D01*
X141244879Y-105576945D01*
X140892500Y-105224566D01*
X140892500Y-99703002D01*
X140894519Y-99682500D01*
X140892500Y-99661998D01*
X140892500Y-99661991D01*
X140886459Y-99600656D01*
X140862586Y-99521957D01*
X140823818Y-99449427D01*
X140821698Y-99446844D01*
X140784719Y-99401785D01*
X140784717Y-99401783D01*
X140771645Y-99385855D01*
X140755718Y-99372784D01*
X140467217Y-99084283D01*
X140454145Y-99068355D01*
X140390573Y-99016182D01*
X140318043Y-98977414D01*
X140239344Y-98953541D01*
X140178009Y-98947500D01*
X140178002Y-98947500D01*
X140157500Y-98945481D01*
X140136998Y-98947500D01*
X138868594Y-98947500D01*
X138976856Y-98839238D01*
X139104625Y-98648019D01*
X139192634Y-98435547D01*
X139237500Y-98209989D01*
X139237500Y-97980011D01*
X139192634Y-97754453D01*
X139104625Y-97541981D01*
X138976856Y-97350762D01*
X138814238Y-97188144D01*
X138623019Y-97060375D01*
X138410547Y-96972366D01*
X138184989Y-96927500D01*
X137955011Y-96927500D01*
X137729453Y-96972366D01*
X137516981Y-97060375D01*
X137325762Y-97188144D01*
X137163144Y-97350762D01*
X137082500Y-97471454D01*
X137082500Y-96167295D01*
X137148226Y-96271528D01*
X137305725Y-96437589D01*
X137492595Y-96569733D01*
X137701654Y-96662881D01*
X137879500Y-96627488D01*
X137879500Y-95745500D01*
X138260500Y-95745500D01*
X138260500Y-96627488D01*
X138438346Y-96662881D01*
X138647405Y-96569733D01*
X138834275Y-96437589D01*
X138991774Y-96271528D01*
X139113850Y-96077931D01*
X139177871Y-95923344D01*
X139141320Y-95745500D01*
X138260500Y-95745500D01*
X137879500Y-95745500D01*
X137859500Y-95745500D01*
X137859500Y-95364500D01*
X137879500Y-95364500D01*
X137879500Y-94482512D01*
X138260500Y-94482512D01*
X138260500Y-95364500D01*
X139141320Y-95364500D01*
X139177871Y-95186656D01*
X139113850Y-95032069D01*
X138991774Y-94838472D01*
X138834275Y-94672411D01*
X138647405Y-94540267D01*
X138438346Y-94447119D01*
X138260500Y-94482512D01*
X137879500Y-94482512D01*
X137701654Y-94447119D01*
X137492595Y-94540267D01*
X137305725Y-94672411D01*
X137148226Y-94838472D01*
X137082500Y-94942705D01*
X137082500Y-92835777D01*
X137144644Y-92773633D01*
X137212222Y-92672496D01*
X137258770Y-92560118D01*
X137282500Y-92440818D01*
X137282500Y-92319182D01*
X137258770Y-92199882D01*
X137212222Y-92087504D01*
X137144644Y-91986367D01*
X137058633Y-91900356D01*
X136957496Y-91832778D01*
X136845118Y-91786230D01*
X136725818Y-91762500D01*
X136647500Y-91762500D01*
X136647500Y-91684182D01*
X136623770Y-91564882D01*
X136577222Y-91452504D01*
X136509644Y-91351367D01*
X136483277Y-91325000D01*
X136900964Y-91325000D01*
X136907094Y-91387241D01*
X136925249Y-91447090D01*
X136954731Y-91502247D01*
X136994407Y-91550593D01*
X137042753Y-91590269D01*
X137097910Y-91619751D01*
X137157759Y-91637906D01*
X137220000Y-91644036D01*
X137800125Y-91642500D01*
X137879500Y-91563125D01*
X137879500Y-90665500D01*
X138260500Y-90665500D01*
X138260500Y-91563125D01*
X138339875Y-91642500D01*
X138920000Y-91644036D01*
X138982241Y-91637906D01*
X139042090Y-91619751D01*
X139097247Y-91590269D01*
X139145593Y-91550593D01*
X139185269Y-91502247D01*
X139214751Y-91447090D01*
X139232906Y-91387241D01*
X139239036Y-91325000D01*
X139237500Y-90744875D01*
X139158125Y-90665500D01*
X138260500Y-90665500D01*
X137879500Y-90665500D01*
X136981875Y-90665500D01*
X136902500Y-90744875D01*
X136900964Y-91325000D01*
X136483277Y-91325000D01*
X136423633Y-91265356D01*
X136322496Y-91197778D01*
X136210118Y-91151230D01*
X136090818Y-91127500D01*
X135969182Y-91127500D01*
X135849882Y-91151230D01*
X135812500Y-91166714D01*
X135812500Y-89660777D01*
X135848277Y-89625000D01*
X136900964Y-89625000D01*
X136902500Y-90205125D01*
X136981875Y-90284500D01*
X137879500Y-90284500D01*
X137879500Y-89386875D01*
X138260500Y-89386875D01*
X138260500Y-90284500D01*
X139158125Y-90284500D01*
X139237500Y-90205125D01*
X139239036Y-89625000D01*
X139232906Y-89562759D01*
X139214751Y-89502910D01*
X139185269Y-89447753D01*
X139145593Y-89399407D01*
X139097247Y-89359731D01*
X139042090Y-89330249D01*
X138982241Y-89312094D01*
X138920000Y-89305964D01*
X138339875Y-89307500D01*
X138260500Y-89386875D01*
X137879500Y-89386875D01*
X137800125Y-89307500D01*
X137220000Y-89305964D01*
X137157759Y-89312094D01*
X137097910Y-89330249D01*
X137042753Y-89359731D01*
X136994407Y-89399407D01*
X136954731Y-89447753D01*
X136925249Y-89502910D01*
X136907094Y-89562759D01*
X136900964Y-89625000D01*
X135848277Y-89625000D01*
X135874644Y-89598633D01*
X135942222Y-89497496D01*
X135988770Y-89385118D01*
X136012500Y-89265818D01*
X136012500Y-89144182D01*
X135988770Y-89024882D01*
X135942222Y-88912504D01*
X135874644Y-88811367D01*
X135788633Y-88725356D01*
X135687496Y-88657778D01*
X135575118Y-88611230D01*
X135455818Y-88587500D01*
X135334182Y-88587500D01*
X135214882Y-88611230D01*
X135177500Y-88626714D01*
X135177500Y-87472934D01*
X135567934Y-87082500D01*
X137271406Y-87082500D01*
X137163144Y-87190762D01*
X137035375Y-87381981D01*
X136947366Y-87594453D01*
X136902500Y-87820011D01*
X136902500Y-88049989D01*
X136947366Y-88275547D01*
X137035375Y-88488019D01*
X137163144Y-88679238D01*
X137325762Y-88841856D01*
X137516981Y-88969625D01*
X137729453Y-89057634D01*
X137955011Y-89102500D01*
X138184989Y-89102500D01*
X138410547Y-89057634D01*
X138623019Y-88969625D01*
X138814238Y-88841856D01*
X138976856Y-88679238D01*
X139104625Y-88488019D01*
X139192634Y-88275547D01*
X139237500Y-88049989D01*
X139237500Y-88036022D01*
X139253233Y-88115118D01*
X139299781Y-88227496D01*
X139367359Y-88328633D01*
X139453370Y-88414644D01*
X139554507Y-88482222D01*
X139666885Y-88528770D01*
X139786185Y-88552500D01*
X139907821Y-88552500D01*
X140027121Y-88528770D01*
X140139499Y-88482222D01*
X140240636Y-88414644D01*
X140326647Y-88328633D01*
X140394225Y-88227496D01*
X140440773Y-88115118D01*
X140464503Y-87995818D01*
X140464503Y-87874182D01*
X140440773Y-87754882D01*
X140394225Y-87642504D01*
X140326647Y-87541367D01*
X140264503Y-87479223D01*
X140264503Y-87327501D01*
X140266522Y-87307002D01*
X140264503Y-87286503D01*
X140264503Y-87286494D01*
X140258462Y-87225159D01*
X140234589Y-87146460D01*
X140195821Y-87073930D01*
X140143648Y-87010358D01*
X140127721Y-86997287D01*
X139514717Y-86384283D01*
X139501645Y-86368355D01*
X139438073Y-86316182D01*
X139365543Y-86277414D01*
X139286844Y-86253541D01*
X139225509Y-86247500D01*
X139225502Y-86247500D01*
X139205000Y-86245481D01*
X139184498Y-86247500D01*
X138868594Y-86247500D01*
X138976856Y-86139238D01*
X139104625Y-85948019D01*
X139192634Y-85735547D01*
X139237500Y-85509989D01*
X139237500Y-85280011D01*
X139192634Y-85054453D01*
X139104625Y-84841981D01*
X138976856Y-84650762D01*
X138814238Y-84488144D01*
X138623019Y-84360375D01*
X138410547Y-84272366D01*
X138184989Y-84227500D01*
X137955011Y-84227500D01*
X137729453Y-84272366D01*
X137516981Y-84360375D01*
X137325762Y-84488144D01*
X137163144Y-84650762D01*
X137035375Y-84841981D01*
X136947366Y-85054453D01*
X136902500Y-85280011D01*
X136902500Y-85509989D01*
X136947366Y-85735547D01*
X137035375Y-85948019D01*
X137163144Y-86139238D01*
X137271406Y-86247500D01*
X135415502Y-86247500D01*
X135395000Y-86245481D01*
X135374498Y-86247500D01*
X135374491Y-86247500D01*
X135313156Y-86253541D01*
X135234456Y-86277414D01*
X135188729Y-86301856D01*
X135161927Y-86316182D01*
X135098355Y-86368355D01*
X135085283Y-86384283D01*
X134742190Y-86727376D01*
X134742500Y-86725818D01*
X134742500Y-86604182D01*
X134718770Y-86484882D01*
X134672222Y-86372504D01*
X134604644Y-86271367D01*
X134518633Y-86185356D01*
X134417496Y-86117778D01*
X134305118Y-86071230D01*
X134185818Y-86047500D01*
X134064182Y-86047500D01*
X133944882Y-86071230D01*
X133832504Y-86117778D01*
X133731367Y-86185356D01*
X133645356Y-86271367D01*
X133577778Y-86372504D01*
X133531230Y-86484882D01*
X133507500Y-86604182D01*
X133507500Y-86725818D01*
X133531230Y-86845118D01*
X133577778Y-86957496D01*
X133645356Y-87058633D01*
X133707501Y-87120778D01*
X133707500Y-107281998D01*
X133705481Y-107302500D01*
X133707500Y-107323002D01*
X133707500Y-107323008D01*
X133710042Y-107348818D01*
X133713541Y-107384344D01*
X133717216Y-107396459D01*
X133737414Y-107463042D01*
X133773250Y-107530086D01*
X133776183Y-107535573D01*
X133815281Y-107583215D01*
X133815284Y-107583218D01*
X133828355Y-107599145D01*
X133844283Y-107612217D01*
X133953030Y-107720964D01*
X133050000Y-107720964D01*
X132987759Y-107727094D01*
X132927910Y-107745249D01*
X132872753Y-107774731D01*
X132824407Y-107814407D01*
X132784731Y-107862753D01*
X132755249Y-107917910D01*
X132737094Y-107977759D01*
X132730964Y-108040000D01*
X127836550Y-108040000D01*
X127836550Y-82740011D01*
X136902500Y-82740011D01*
X136902500Y-82969989D01*
X136947366Y-83195547D01*
X137035375Y-83408019D01*
X137163144Y-83599238D01*
X137325762Y-83761856D01*
X137516981Y-83889625D01*
X137729453Y-83977634D01*
X137955011Y-84022500D01*
X138184989Y-84022500D01*
X138410547Y-83977634D01*
X138623019Y-83889625D01*
X138814238Y-83761856D01*
X138976856Y-83599238D01*
X139104625Y-83408019D01*
X139192634Y-83195547D01*
X139237500Y-82969989D01*
X139237500Y-82740011D01*
X139192634Y-82514453D01*
X139104625Y-82301981D01*
X138976856Y-82110762D01*
X138814238Y-81948144D01*
X138623019Y-81820375D01*
X138410547Y-81732366D01*
X138184989Y-81687500D01*
X137955011Y-81687500D01*
X137729453Y-81732366D01*
X137516981Y-81820375D01*
X137325762Y-81948144D01*
X137163144Y-82110762D01*
X137035375Y-82301981D01*
X136947366Y-82514453D01*
X136902500Y-82740011D01*
X127836550Y-82740011D01*
X127836550Y-79030841D01*
X129382500Y-79030841D01*
X129382500Y-79369159D01*
X129448503Y-79700976D01*
X129577971Y-80013541D01*
X129765931Y-80294842D01*
X130005158Y-80534069D01*
X130286459Y-80722029D01*
X130599024Y-80851497D01*
X130930841Y-80917500D01*
X131269159Y-80917500D01*
X131600976Y-80851497D01*
X131913541Y-80722029D01*
X132194842Y-80534069D01*
X132434069Y-80294842D01*
X132622029Y-80013541D01*
X132751497Y-79700976D01*
X132817500Y-79369159D01*
X132817500Y-79030841D01*
X167382500Y-79030841D01*
X167382500Y-79369159D01*
X167448503Y-79700976D01*
X167577971Y-80013541D01*
X167765931Y-80294842D01*
X168005158Y-80534069D01*
X168286459Y-80722029D01*
X168599024Y-80851497D01*
X168930841Y-80917500D01*
X169269159Y-80917500D01*
X169600976Y-80851497D01*
X169913541Y-80722029D01*
X170194842Y-80534069D01*
X170434069Y-80294842D01*
X170622029Y-80013541D01*
X170751497Y-79700976D01*
X170817500Y-79369159D01*
X170817500Y-79030841D01*
X170751497Y-78699024D01*
X170622029Y-78386459D01*
X170434069Y-78105158D01*
X170194842Y-77865931D01*
X169913541Y-77677971D01*
X169600976Y-77548503D01*
X169269159Y-77482500D01*
X168930841Y-77482500D01*
X168599024Y-77548503D01*
X168286459Y-77677971D01*
X168005158Y-77865931D01*
X167765931Y-78105158D01*
X167577971Y-78386459D01*
X167448503Y-78699024D01*
X167382500Y-79030841D01*
X132817500Y-79030841D01*
X132751497Y-78699024D01*
X132622029Y-78386459D01*
X132434069Y-78105158D01*
X132194842Y-77865931D01*
X131913541Y-77677971D01*
X131600976Y-77548503D01*
X131269159Y-77482500D01*
X130930841Y-77482500D01*
X130599024Y-77548503D01*
X130286459Y-77677971D01*
X130005158Y-77865931D01*
X129765931Y-78105158D01*
X129577971Y-78386459D01*
X129448503Y-78699024D01*
X129382500Y-79030841D01*
X127836550Y-79030841D01*
X127836550Y-72516463D01*
X127856681Y-72311143D01*
X129082500Y-72311143D01*
X129082500Y-72688857D01*
X129156188Y-73059314D01*
X129300734Y-73408277D01*
X129510580Y-73722335D01*
X129777665Y-73989420D01*
X130091723Y-74199266D01*
X130440686Y-74343812D01*
X130811143Y-74417500D01*
X131188857Y-74417500D01*
X131559314Y-74343812D01*
X131908277Y-74199266D01*
X132222335Y-73989420D01*
X132489420Y-73722335D01*
X132699266Y-73408277D01*
X132843812Y-73059314D01*
X132917500Y-72688857D01*
X132917500Y-72311143D01*
X132843812Y-71940686D01*
X132699266Y-71591723D01*
X132489420Y-71277665D01*
X132222335Y-71010580D01*
X131908277Y-70800734D01*
X131559314Y-70656188D01*
X131188857Y-70582500D01*
X130811143Y-70582500D01*
X130440686Y-70656188D01*
X130091723Y-70800734D01*
X129777665Y-71010580D01*
X129510580Y-71277665D01*
X129300734Y-71591723D01*
X129156188Y-71940686D01*
X129082500Y-72311143D01*
X127856681Y-72311143D01*
X127898381Y-71885863D01*
X128076737Y-71295118D01*
X128366440Y-70750266D01*
X128756454Y-70272061D01*
X129231922Y-69878720D01*
X129774742Y-69585219D01*
X130364226Y-69402743D01*
X130977924Y-69338241D01*
X131592471Y-69394169D01*
X132184444Y-69568397D01*
X132731307Y-69854290D01*
X133212221Y-70240954D01*
X133608873Y-70713666D01*
X133906157Y-71254423D01*
X134092742Y-71842614D01*
X134163240Y-72471121D01*
X134163454Y-72501803D01*
X134163537Y-72525605D01*
X134165023Y-72540231D01*
X134164920Y-72554937D01*
X134165379Y-72559613D01*
X134236781Y-73238952D01*
X134242907Y-73268796D01*
X134248630Y-73298795D01*
X134249988Y-73303293D01*
X134451980Y-73955825D01*
X134463777Y-73983888D01*
X134475227Y-74012227D01*
X134477433Y-74016376D01*
X134802322Y-74617247D01*
X134819393Y-74642554D01*
X134836082Y-74668058D01*
X134839052Y-74671700D01*
X135274464Y-75198023D01*
X135296106Y-75219514D01*
X135317450Y-75241310D01*
X135321071Y-75244306D01*
X135850421Y-75676032D01*
X135875817Y-75692905D01*
X135900996Y-75710145D01*
X135905129Y-75712380D01*
X136508253Y-76033067D01*
X136536422Y-76044677D01*
X136564491Y-76056707D01*
X136568980Y-76058097D01*
X137222906Y-76255529D01*
X137252804Y-76261448D01*
X137282665Y-76267795D01*
X137287338Y-76268287D01*
X137967158Y-76334944D01*
X137967165Y-76334944D01*
X137983471Y-76336550D01*
X162016529Y-76336550D01*
X162017112Y-76336493D01*
X162025605Y-76336463D01*
X162040231Y-76334977D01*
X162054937Y-76335080D01*
X162059613Y-76334621D01*
X162738952Y-76263219D01*
X162768796Y-76257093D01*
X162798795Y-76251370D01*
X162803293Y-76250012D01*
X163455825Y-76048020D01*
X163483888Y-76036223D01*
X163512227Y-76024773D01*
X163516376Y-76022567D01*
X164117247Y-75697678D01*
X164142554Y-75680607D01*
X164168058Y-75663918D01*
X164171700Y-75660948D01*
X164698023Y-75225536D01*
X164719514Y-75203894D01*
X164741310Y-75182550D01*
X164744306Y-75178929D01*
X165176032Y-74649579D01*
X165192905Y-74624183D01*
X165210145Y-74599004D01*
X165212380Y-74594871D01*
X165533067Y-73991747D01*
X165544677Y-73963578D01*
X165556707Y-73935509D01*
X165558097Y-73931020D01*
X165755529Y-73277094D01*
X165761448Y-73247196D01*
X165767795Y-73217335D01*
X165768287Y-73212662D01*
X165834944Y-72532842D01*
X165856681Y-72311143D01*
X167082500Y-72311143D01*
X167082500Y-72688857D01*
X167156188Y-73059314D01*
X167300734Y-73408277D01*
X167510580Y-73722335D01*
X167777665Y-73989420D01*
X168091723Y-74199266D01*
X168440686Y-74343812D01*
X168811143Y-74417500D01*
X169188857Y-74417500D01*
X169559314Y-74343812D01*
X169908277Y-74199266D01*
X170222335Y-73989420D01*
X170489420Y-73722335D01*
X170699266Y-73408277D01*
X170843812Y-73059314D01*
X170917500Y-72688857D01*
X170917500Y-72311143D01*
X170843812Y-71940686D01*
X170699266Y-71591723D01*
X170489420Y-71277665D01*
X170222335Y-71010580D01*
X169908277Y-70800734D01*
X169559314Y-70656188D01*
X169188857Y-70582500D01*
X168811143Y-70582500D01*
X168440686Y-70656188D01*
X168091723Y-70800734D01*
X167777665Y-71010580D01*
X167510580Y-71277665D01*
X167300734Y-71591723D01*
X167156188Y-71940686D01*
X167082500Y-72311143D01*
X165856681Y-72311143D01*
X165898381Y-71885863D01*
X166076737Y-71295118D01*
X166366440Y-70750266D01*
X166756454Y-70272061D01*
X167231922Y-69878720D01*
X167774742Y-69585219D01*
X168364226Y-69402743D01*
X168977924Y-69338241D01*
X169592471Y-69394169D01*
%TD*%
M02*
