%TF.GenerationSoftware,KiCad,Pcbnew,(5.1.7-0-10_14)*%
%TF.CreationDate,2020-10-15T21:04:02+02:00*%
%TF.ProjectId,Co2-Sensor,436f322d-5365-46e7-936f-722e6b696361,rev?*%
%TF.SameCoordinates,Original*%
%TF.FileFunction,Soldermask,Bot*%
%TF.FilePolarity,Negative*%
%FSLAX46Y46*%
G04 Gerber Fmt 4.6, Leading zero omitted, Abs format (unit mm)*
G04 Created by KiCad (PCBNEW (5.1.7-0-10_14)) date 2020-10-15 21:04:02*
%MOMM*%
%LPD*%
G01*
G04 APERTURE LIST*
%ADD10C,1.300000*%
%ADD11C,1.700000*%
%ADD12C,2.800000*%
%ADD13R,1.700000X1.700000*%
%ADD14R,2.500000X2.500000*%
%ADD15C,0.650000*%
%ADD16O,1.000000X1.600000*%
%ADD17O,1.000000X2.100000*%
%ADD18O,1.700000X1.700000*%
%ADD19C,3.200000*%
G04 APERTURE END LIST*
D10*
%TO.C,REF\u002A\u002A*%
X171000000Y-128000000D03*
%TD*%
%TO.C,REF\u002A\u002A*%
X129000000Y-128000000D03*
%TD*%
%TO.C,REF\u002A\u002A*%
X129000000Y-75000000D03*
%TD*%
%TO.C,REF\u002A\u002A*%
X171000000Y-75000000D03*
%TD*%
D11*
%TO.C,J1*%
X142380000Y-112700000D03*
X144920000Y-112700000D03*
X147460000Y-112700000D03*
D12*
X131100000Y-79200000D03*
X169100000Y-79200000D03*
X131100000Y-112200000D03*
X169100000Y-112200000D03*
D11*
X150000000Y-112700000D03*
X152540000Y-112700000D03*
X155080000Y-112700000D03*
D13*
X157620000Y-112700000D03*
%TD*%
D14*
%TO.C,TP8*%
X158000000Y-116000000D03*
%TD*%
%TO.C,TP7*%
X142000000Y-116000000D03*
%TD*%
%TO.C,TP6*%
X166000000Y-116000000D03*
%TD*%
%TO.C,TP5*%
X162000000Y-116000000D03*
%TD*%
%TO.C,TP4*%
X138000000Y-116000000D03*
%TD*%
%TO.C,TP3*%
X134000000Y-116000000D03*
%TD*%
%TO.C,TP2*%
X170000000Y-116000000D03*
%TD*%
%TO.C,TP1*%
X130000000Y-116000000D03*
%TD*%
D11*
%TO.C,J2*%
X149140000Y-108890000D03*
X146600000Y-108890000D03*
X144060000Y-108890000D03*
X141520000Y-108890000D03*
X138980000Y-108890000D03*
X136440000Y-108890000D03*
D13*
X133900000Y-108890000D03*
%TD*%
D15*
%TO.C,J5*%
X147110000Y-128895000D03*
X152890000Y-128895000D03*
D16*
X154320000Y-132575000D03*
X145680000Y-132575000D03*
D17*
X154320000Y-128395000D03*
X145680000Y-128395000D03*
%TD*%
D18*
%TO.C,J4*%
X138070000Y-122460000D03*
D13*
X138070000Y-125000000D03*
%TD*%
D19*
%TO.C,REF\u002A\u002A*%
X169000000Y-130500000D03*
%TD*%
%TO.C,REF\u002A\u002A*%
X131000000Y-130500000D03*
%TD*%
%TO.C,REF\u002A\u002A*%
X131000000Y-72500000D03*
%TD*%
%TO.C,REF\u002A\u002A*%
X169000000Y-72500000D03*
%TD*%
D18*
%TO.C,J8*%
X138070000Y-82855000D03*
X138070000Y-85395000D03*
X138070000Y-87935000D03*
D13*
X138070000Y-90475000D03*
%TD*%
D18*
%TO.C,J7*%
X138070000Y-95555000D03*
X138070000Y-98095000D03*
X138070000Y-100635000D03*
X138070000Y-103175000D03*
D13*
X138070000Y-105715000D03*
%TD*%
D18*
%TO.C,J6*%
X161930000Y-103175000D03*
X161930000Y-100635000D03*
X161930000Y-98095000D03*
D13*
X161930000Y-95555000D03*
%TD*%
D18*
%TO.C,J3*%
X161930000Y-90475000D03*
X161930000Y-87935000D03*
X161930000Y-85395000D03*
D13*
X161930000Y-82855000D03*
%TD*%
M02*
