%TF.GenerationSoftware,KiCad,Pcbnew,(5.1.6-0-10_14)*%
%TF.CreationDate,2020-09-14T20:33:51+02:00*%
%TF.ProjectId,Co2-Sensor,436f322d-5365-46e7-936f-722e6b696361,rev?*%
%TF.SameCoordinates,Original*%
%TF.FileFunction,Soldermask,Bot*%
%TF.FilePolarity,Negative*%
%FSLAX46Y46*%
G04 Gerber Fmt 4.6, Leading zero omitted, Abs format (unit mm)*
G04 Created by KiCad (PCBNEW (5.1.6-0-10_14)) date 2020-09-14 20:33:51*
%MOMM*%
%LPD*%
G01*
G04 APERTURE LIST*
%ADD10C,0.100000*%
G04 APERTURE END LIST*
D10*
G36*
X145778018Y-131782235D02*
G01*
X145815716Y-131793671D01*
X145872266Y-131810825D01*
X145959129Y-131857254D01*
X146035264Y-131919736D01*
X146097746Y-131995871D01*
X146144175Y-132082733D01*
X146161329Y-132139283D01*
X146172765Y-132176981D01*
X146180000Y-132250441D01*
X146180000Y-132899559D01*
X146172765Y-132973019D01*
X146161329Y-133010717D01*
X146144175Y-133067267D01*
X146097746Y-133154129D01*
X146035264Y-133230264D01*
X145959129Y-133292746D01*
X145872267Y-133339175D01*
X145815717Y-133356329D01*
X145778019Y-133367765D01*
X145680000Y-133377419D01*
X145581982Y-133367765D01*
X145544284Y-133356329D01*
X145487734Y-133339175D01*
X145400872Y-133292746D01*
X145324737Y-133230264D01*
X145262255Y-133154129D01*
X145215826Y-133067267D01*
X145205030Y-133031677D01*
X145187235Y-132973017D01*
X145180000Y-132899559D01*
X145180000Y-132250442D01*
X145187235Y-132176982D01*
X145198671Y-132139284D01*
X145215825Y-132082734D01*
X145262254Y-131995871D01*
X145324736Y-131919736D01*
X145400871Y-131857254D01*
X145487733Y-131810825D01*
X145544283Y-131793671D01*
X145581981Y-131782235D01*
X145680000Y-131772581D01*
X145778018Y-131782235D01*
G37*
G36*
X154418018Y-131782235D02*
G01*
X154455716Y-131793671D01*
X154512266Y-131810825D01*
X154599129Y-131857254D01*
X154675264Y-131919736D01*
X154737746Y-131995871D01*
X154784175Y-132082733D01*
X154801329Y-132139283D01*
X154812765Y-132176981D01*
X154820000Y-132250441D01*
X154820000Y-132899559D01*
X154812765Y-132973019D01*
X154801329Y-133010717D01*
X154784175Y-133067267D01*
X154737746Y-133154129D01*
X154675264Y-133230264D01*
X154599129Y-133292746D01*
X154512267Y-133339175D01*
X154455717Y-133356329D01*
X154418019Y-133367765D01*
X154320000Y-133377419D01*
X154221982Y-133367765D01*
X154184284Y-133356329D01*
X154127734Y-133339175D01*
X154040872Y-133292746D01*
X153964737Y-133230264D01*
X153902255Y-133154129D01*
X153855826Y-133067267D01*
X153845030Y-133031677D01*
X153827235Y-132973017D01*
X153820000Y-132899559D01*
X153820000Y-132250442D01*
X153827235Y-132176982D01*
X153838671Y-132139284D01*
X153855825Y-132082734D01*
X153902254Y-131995871D01*
X153964736Y-131919736D01*
X154040871Y-131857254D01*
X154127733Y-131810825D01*
X154184283Y-131793671D01*
X154221981Y-131782235D01*
X154320000Y-131772581D01*
X154418018Y-131782235D01*
G37*
G36*
X131293375Y-128927010D02*
G01*
X131466703Y-128961487D01*
X131757884Y-129082098D01*
X132019941Y-129257199D01*
X132242801Y-129480059D01*
X132417902Y-129742116D01*
X132538513Y-130033297D01*
X132600000Y-130342414D01*
X132600000Y-130657586D01*
X132538513Y-130966703D01*
X132417902Y-131257884D01*
X132242801Y-131519941D01*
X132019941Y-131742801D01*
X131757884Y-131917902D01*
X131466703Y-132038513D01*
X131312144Y-132069257D01*
X131157588Y-132100000D01*
X130842412Y-132100000D01*
X130687856Y-132069257D01*
X130533297Y-132038513D01*
X130242116Y-131917902D01*
X129980059Y-131742801D01*
X129757199Y-131519941D01*
X129582098Y-131257884D01*
X129461487Y-130966703D01*
X129400000Y-130657586D01*
X129400000Y-130342414D01*
X129461487Y-130033297D01*
X129582098Y-129742116D01*
X129757199Y-129480059D01*
X129980059Y-129257199D01*
X130242116Y-129082098D01*
X130533297Y-128961487D01*
X130706625Y-128927010D01*
X130842412Y-128900000D01*
X131157588Y-128900000D01*
X131293375Y-128927010D01*
G37*
G36*
X169293375Y-128927010D02*
G01*
X169466703Y-128961487D01*
X169757884Y-129082098D01*
X170019941Y-129257199D01*
X170242801Y-129480059D01*
X170417902Y-129742116D01*
X170538513Y-130033297D01*
X170600000Y-130342414D01*
X170600000Y-130657586D01*
X170538513Y-130966703D01*
X170417902Y-131257884D01*
X170242801Y-131519941D01*
X170019941Y-131742801D01*
X169757884Y-131917902D01*
X169466703Y-132038513D01*
X169312144Y-132069257D01*
X169157588Y-132100000D01*
X168842412Y-132100000D01*
X168687856Y-132069257D01*
X168533297Y-132038513D01*
X168242116Y-131917902D01*
X167980059Y-131742801D01*
X167757199Y-131519941D01*
X167582098Y-131257884D01*
X167461487Y-130966703D01*
X167400000Y-130657586D01*
X167400000Y-130342414D01*
X167461487Y-130033297D01*
X167582098Y-129742116D01*
X167757199Y-129480059D01*
X167980059Y-129257199D01*
X168242116Y-129082098D01*
X168533297Y-128961487D01*
X168706625Y-128927010D01*
X168842412Y-128900000D01*
X169157588Y-128900000D01*
X169293375Y-128927010D01*
G37*
G36*
X154418018Y-127352235D02*
G01*
X154455716Y-127363671D01*
X154512266Y-127380825D01*
X154599129Y-127427254D01*
X154675264Y-127489736D01*
X154737746Y-127565871D01*
X154784175Y-127652733D01*
X154801329Y-127709283D01*
X154812765Y-127746981D01*
X154820000Y-127820441D01*
X154820000Y-128969559D01*
X154812765Y-129043019D01*
X154801329Y-129080717D01*
X154784175Y-129137267D01*
X154737746Y-129224129D01*
X154675264Y-129300264D01*
X154599129Y-129362746D01*
X154512267Y-129409175D01*
X154455717Y-129426329D01*
X154418019Y-129437765D01*
X154320000Y-129447419D01*
X154221982Y-129437765D01*
X154184284Y-129426329D01*
X154127734Y-129409175D01*
X154040872Y-129362746D01*
X153964737Y-129300264D01*
X153902255Y-129224129D01*
X153855826Y-129137267D01*
X153838672Y-129080717D01*
X153827236Y-129043019D01*
X153820001Y-128969559D01*
X153820000Y-127820442D01*
X153827235Y-127746982D01*
X153838671Y-127709284D01*
X153855825Y-127652734D01*
X153902254Y-127565871D01*
X153964736Y-127489736D01*
X154040871Y-127427254D01*
X154127733Y-127380825D01*
X154184283Y-127363671D01*
X154221981Y-127352235D01*
X154320000Y-127342581D01*
X154418018Y-127352235D01*
G37*
G36*
X145778018Y-127352235D02*
G01*
X145815716Y-127363671D01*
X145872266Y-127380825D01*
X145959129Y-127427254D01*
X146035264Y-127489736D01*
X146097746Y-127565871D01*
X146144175Y-127652733D01*
X146161329Y-127709283D01*
X146172765Y-127746981D01*
X146180000Y-127820441D01*
X146180000Y-128969559D01*
X146172765Y-129043019D01*
X146161329Y-129080717D01*
X146144175Y-129137267D01*
X146097746Y-129224129D01*
X146035264Y-129300264D01*
X145959129Y-129362746D01*
X145872267Y-129409175D01*
X145815717Y-129426329D01*
X145778019Y-129437765D01*
X145680000Y-129447419D01*
X145581982Y-129437765D01*
X145544284Y-129426329D01*
X145487734Y-129409175D01*
X145400872Y-129362746D01*
X145324737Y-129300264D01*
X145262255Y-129224129D01*
X145215826Y-129137267D01*
X145198672Y-129080717D01*
X145187236Y-129043019D01*
X145180001Y-128969559D01*
X145180000Y-127820442D01*
X145187235Y-127746982D01*
X145198671Y-127709284D01*
X145215825Y-127652734D01*
X145262254Y-127565871D01*
X145324736Y-127489736D01*
X145400871Y-127427254D01*
X145487733Y-127380825D01*
X145544283Y-127363671D01*
X145581981Y-127352235D01*
X145680000Y-127342581D01*
X145778018Y-127352235D01*
G37*
G36*
X147162940Y-128574163D02*
G01*
X147204799Y-128582489D01*
X147263945Y-128606988D01*
X147317176Y-128642556D01*
X147362444Y-128687824D01*
X147398012Y-128741055D01*
X147422511Y-128800201D01*
X147435000Y-128862990D01*
X147435000Y-128927010D01*
X147422511Y-128989799D01*
X147398012Y-129048945D01*
X147362444Y-129102176D01*
X147317176Y-129147444D01*
X147263945Y-129183012D01*
X147204799Y-129207511D01*
X147162940Y-129215837D01*
X147142011Y-129220000D01*
X147077989Y-129220000D01*
X147057060Y-129215837D01*
X147015201Y-129207511D01*
X146956055Y-129183012D01*
X146902824Y-129147444D01*
X146857556Y-129102176D01*
X146821988Y-129048945D01*
X146797489Y-128989799D01*
X146785000Y-128927010D01*
X146785000Y-128862990D01*
X146797489Y-128800201D01*
X146821988Y-128741055D01*
X146857556Y-128687824D01*
X146902824Y-128642556D01*
X146956055Y-128606988D01*
X147015201Y-128582489D01*
X147057060Y-128574163D01*
X147077989Y-128570000D01*
X147142011Y-128570000D01*
X147162940Y-128574163D01*
G37*
G36*
X152942940Y-128574163D02*
G01*
X152984799Y-128582489D01*
X153043945Y-128606988D01*
X153097176Y-128642556D01*
X153142444Y-128687824D01*
X153178012Y-128741055D01*
X153202511Y-128800201D01*
X153215000Y-128862990D01*
X153215000Y-128927010D01*
X153202511Y-128989799D01*
X153178012Y-129048945D01*
X153142444Y-129102176D01*
X153097176Y-129147444D01*
X153043945Y-129183012D01*
X152984799Y-129207511D01*
X152942940Y-129215837D01*
X152922011Y-129220000D01*
X152857989Y-129220000D01*
X152837060Y-129215837D01*
X152795201Y-129207511D01*
X152736055Y-129183012D01*
X152682824Y-129147444D01*
X152637556Y-129102176D01*
X152601988Y-129048945D01*
X152577489Y-128989799D01*
X152565000Y-128927010D01*
X152565000Y-128862990D01*
X152577489Y-128800201D01*
X152601988Y-128741055D01*
X152637556Y-128687824D01*
X152682824Y-128642556D01*
X152736055Y-128606988D01*
X152795201Y-128582489D01*
X152837060Y-128574163D01*
X152857989Y-128570000D01*
X152922011Y-128570000D01*
X152942940Y-128574163D01*
G37*
G36*
X138920000Y-125850000D02*
G01*
X137220000Y-125850000D01*
X137220000Y-124150000D01*
X138920000Y-124150000D01*
X138920000Y-125850000D01*
G37*
G36*
X138317936Y-121642665D02*
G01*
X138472626Y-121706739D01*
X138542076Y-121753145D01*
X138611844Y-121799762D01*
X138730238Y-121918156D01*
X138776855Y-121987924D01*
X138823261Y-122057374D01*
X138887335Y-122212064D01*
X138920000Y-122376282D01*
X138920000Y-122543718D01*
X138887335Y-122707936D01*
X138823261Y-122862626D01*
X138776855Y-122932076D01*
X138730238Y-123001844D01*
X138611844Y-123120238D01*
X138542076Y-123166855D01*
X138472626Y-123213261D01*
X138317936Y-123277335D01*
X138153718Y-123310000D01*
X137986282Y-123310000D01*
X137822064Y-123277335D01*
X137667374Y-123213261D01*
X137597924Y-123166855D01*
X137528156Y-123120238D01*
X137409762Y-123001844D01*
X137363145Y-122932076D01*
X137316739Y-122862626D01*
X137252665Y-122707936D01*
X137220000Y-122543718D01*
X137220000Y-122376282D01*
X137252665Y-122212064D01*
X137316739Y-122057374D01*
X137363145Y-121987924D01*
X137409762Y-121918156D01*
X137528156Y-121799762D01*
X137597924Y-121753145D01*
X137667374Y-121706739D01*
X137822064Y-121642665D01*
X137986282Y-121610000D01*
X138153718Y-121610000D01*
X138317936Y-121642665D01*
G37*
G36*
X131328047Y-110817934D02*
G01*
X131508365Y-110853801D01*
X131763149Y-110959336D01*
X131992448Y-111112549D01*
X132187451Y-111307552D01*
X132340664Y-111536851D01*
X132446199Y-111791635D01*
X132500000Y-112062112D01*
X132500000Y-112337888D01*
X132446199Y-112608365D01*
X132340664Y-112863149D01*
X132187451Y-113092448D01*
X131992448Y-113287451D01*
X131763149Y-113440664D01*
X131508365Y-113546199D01*
X131328047Y-113582066D01*
X131237889Y-113600000D01*
X130962111Y-113600000D01*
X130871953Y-113582066D01*
X130691635Y-113546199D01*
X130436851Y-113440664D01*
X130207552Y-113287451D01*
X130012549Y-113092448D01*
X129859336Y-112863149D01*
X129753801Y-112608365D01*
X129700000Y-112337888D01*
X129700000Y-112062112D01*
X129753801Y-111791635D01*
X129859336Y-111536851D01*
X130012549Y-111307552D01*
X130207552Y-111112549D01*
X130436851Y-110959336D01*
X130691635Y-110853801D01*
X130871953Y-110817934D01*
X130962111Y-110800000D01*
X131237889Y-110800000D01*
X131328047Y-110817934D01*
G37*
G36*
X169328047Y-110817934D02*
G01*
X169508365Y-110853801D01*
X169763149Y-110959336D01*
X169992448Y-111112549D01*
X170187451Y-111307552D01*
X170340664Y-111536851D01*
X170446199Y-111791635D01*
X170500000Y-112062112D01*
X170500000Y-112337888D01*
X170446199Y-112608365D01*
X170340664Y-112863149D01*
X170187451Y-113092448D01*
X169992448Y-113287451D01*
X169763149Y-113440664D01*
X169508365Y-113546199D01*
X169328047Y-113582066D01*
X169237889Y-113600000D01*
X168962111Y-113600000D01*
X168871953Y-113582066D01*
X168691635Y-113546199D01*
X168436851Y-113440664D01*
X168207552Y-113287451D01*
X168012549Y-113092448D01*
X167859336Y-112863149D01*
X167753801Y-112608365D01*
X167700000Y-112337888D01*
X167700000Y-112062112D01*
X167753801Y-111791635D01*
X167859336Y-111536851D01*
X168012549Y-111307552D01*
X168207552Y-111112549D01*
X168436851Y-110959336D01*
X168691635Y-110853801D01*
X168871953Y-110817934D01*
X168962111Y-110800000D01*
X169237889Y-110800000D01*
X169328047Y-110817934D01*
G37*
G36*
X155327936Y-111882665D02*
G01*
X155482626Y-111946739D01*
X155552076Y-111993145D01*
X155621844Y-112039762D01*
X155740238Y-112158156D01*
X155786855Y-112227924D01*
X155833261Y-112297374D01*
X155897335Y-112452064D01*
X155930000Y-112616282D01*
X155930000Y-112783718D01*
X155897335Y-112947936D01*
X155833261Y-113102626D01*
X155786855Y-113172076D01*
X155740238Y-113241844D01*
X155621844Y-113360238D01*
X155552076Y-113406855D01*
X155482626Y-113453261D01*
X155327936Y-113517335D01*
X155163718Y-113550000D01*
X154996282Y-113550000D01*
X154832064Y-113517335D01*
X154677374Y-113453261D01*
X154607924Y-113406855D01*
X154538156Y-113360238D01*
X154419762Y-113241844D01*
X154373145Y-113172076D01*
X154326739Y-113102626D01*
X154262665Y-112947936D01*
X154230000Y-112783718D01*
X154230000Y-112616282D01*
X154262665Y-112452064D01*
X154326739Y-112297374D01*
X154373145Y-112227924D01*
X154419762Y-112158156D01*
X154538156Y-112039762D01*
X154607924Y-111993145D01*
X154677374Y-111946739D01*
X154832064Y-111882665D01*
X154996282Y-111850000D01*
X155163718Y-111850000D01*
X155327936Y-111882665D01*
G37*
G36*
X152787936Y-111882665D02*
G01*
X152942626Y-111946739D01*
X153012076Y-111993145D01*
X153081844Y-112039762D01*
X153200238Y-112158156D01*
X153246855Y-112227924D01*
X153293261Y-112297374D01*
X153357335Y-112452064D01*
X153390000Y-112616282D01*
X153390000Y-112783718D01*
X153357335Y-112947936D01*
X153293261Y-113102626D01*
X153246855Y-113172076D01*
X153200238Y-113241844D01*
X153081844Y-113360238D01*
X153012076Y-113406855D01*
X152942626Y-113453261D01*
X152787936Y-113517335D01*
X152623718Y-113550000D01*
X152456282Y-113550000D01*
X152292064Y-113517335D01*
X152137374Y-113453261D01*
X152067924Y-113406855D01*
X151998156Y-113360238D01*
X151879762Y-113241844D01*
X151833145Y-113172076D01*
X151786739Y-113102626D01*
X151722665Y-112947936D01*
X151690000Y-112783718D01*
X151690000Y-112616282D01*
X151722665Y-112452064D01*
X151786739Y-112297374D01*
X151833145Y-112227924D01*
X151879762Y-112158156D01*
X151998156Y-112039762D01*
X152067924Y-111993145D01*
X152137374Y-111946739D01*
X152292064Y-111882665D01*
X152456282Y-111850000D01*
X152623718Y-111850000D01*
X152787936Y-111882665D01*
G37*
G36*
X150247936Y-111882665D02*
G01*
X150402626Y-111946739D01*
X150472076Y-111993145D01*
X150541844Y-112039762D01*
X150660238Y-112158156D01*
X150706855Y-112227924D01*
X150753261Y-112297374D01*
X150817335Y-112452064D01*
X150850000Y-112616282D01*
X150850000Y-112783718D01*
X150817335Y-112947936D01*
X150753261Y-113102626D01*
X150706855Y-113172076D01*
X150660238Y-113241844D01*
X150541844Y-113360238D01*
X150472076Y-113406855D01*
X150402626Y-113453261D01*
X150247936Y-113517335D01*
X150083718Y-113550000D01*
X149916282Y-113550000D01*
X149752064Y-113517335D01*
X149597374Y-113453261D01*
X149527924Y-113406855D01*
X149458156Y-113360238D01*
X149339762Y-113241844D01*
X149293145Y-113172076D01*
X149246739Y-113102626D01*
X149182665Y-112947936D01*
X149150000Y-112783718D01*
X149150000Y-112616282D01*
X149182665Y-112452064D01*
X149246739Y-112297374D01*
X149293145Y-112227924D01*
X149339762Y-112158156D01*
X149458156Y-112039762D01*
X149527924Y-111993145D01*
X149597374Y-111946739D01*
X149752064Y-111882665D01*
X149916282Y-111850000D01*
X150083718Y-111850000D01*
X150247936Y-111882665D01*
G37*
G36*
X147707936Y-111882665D02*
G01*
X147862626Y-111946739D01*
X147932076Y-111993145D01*
X148001844Y-112039762D01*
X148120238Y-112158156D01*
X148166855Y-112227924D01*
X148213261Y-112297374D01*
X148277335Y-112452064D01*
X148310000Y-112616282D01*
X148310000Y-112783718D01*
X148277335Y-112947936D01*
X148213261Y-113102626D01*
X148166855Y-113172076D01*
X148120238Y-113241844D01*
X148001844Y-113360238D01*
X147932076Y-113406855D01*
X147862626Y-113453261D01*
X147707936Y-113517335D01*
X147543718Y-113550000D01*
X147376282Y-113550000D01*
X147212064Y-113517335D01*
X147057374Y-113453261D01*
X146987924Y-113406855D01*
X146918156Y-113360238D01*
X146799762Y-113241844D01*
X146753145Y-113172076D01*
X146706739Y-113102626D01*
X146642665Y-112947936D01*
X146610000Y-112783718D01*
X146610000Y-112616282D01*
X146642665Y-112452064D01*
X146706739Y-112297374D01*
X146753145Y-112227924D01*
X146799762Y-112158156D01*
X146918156Y-112039762D01*
X146987924Y-111993145D01*
X147057374Y-111946739D01*
X147212064Y-111882665D01*
X147376282Y-111850000D01*
X147543718Y-111850000D01*
X147707936Y-111882665D01*
G37*
G36*
X145167936Y-111882665D02*
G01*
X145322626Y-111946739D01*
X145392076Y-111993145D01*
X145461844Y-112039762D01*
X145580238Y-112158156D01*
X145626855Y-112227924D01*
X145673261Y-112297374D01*
X145737335Y-112452064D01*
X145770000Y-112616282D01*
X145770000Y-112783718D01*
X145737335Y-112947936D01*
X145673261Y-113102626D01*
X145626855Y-113172076D01*
X145580238Y-113241844D01*
X145461844Y-113360238D01*
X145392076Y-113406855D01*
X145322626Y-113453261D01*
X145167936Y-113517335D01*
X145003718Y-113550000D01*
X144836282Y-113550000D01*
X144672064Y-113517335D01*
X144517374Y-113453261D01*
X144447924Y-113406855D01*
X144378156Y-113360238D01*
X144259762Y-113241844D01*
X144213145Y-113172076D01*
X144166739Y-113102626D01*
X144102665Y-112947936D01*
X144070000Y-112783718D01*
X144070000Y-112616282D01*
X144102665Y-112452064D01*
X144166739Y-112297374D01*
X144213145Y-112227924D01*
X144259762Y-112158156D01*
X144378156Y-112039762D01*
X144447924Y-111993145D01*
X144517374Y-111946739D01*
X144672064Y-111882665D01*
X144836282Y-111850000D01*
X145003718Y-111850000D01*
X145167936Y-111882665D01*
G37*
G36*
X142627936Y-111882665D02*
G01*
X142782626Y-111946739D01*
X142852076Y-111993145D01*
X142921844Y-112039762D01*
X143040238Y-112158156D01*
X143086855Y-112227924D01*
X143133261Y-112297374D01*
X143197335Y-112452064D01*
X143230000Y-112616282D01*
X143230000Y-112783718D01*
X143197335Y-112947936D01*
X143133261Y-113102626D01*
X143086855Y-113172076D01*
X143040238Y-113241844D01*
X142921844Y-113360238D01*
X142852076Y-113406855D01*
X142782626Y-113453261D01*
X142627936Y-113517335D01*
X142463718Y-113550000D01*
X142296282Y-113550000D01*
X142132064Y-113517335D01*
X141977374Y-113453261D01*
X141907924Y-113406855D01*
X141838156Y-113360238D01*
X141719762Y-113241844D01*
X141673145Y-113172076D01*
X141626739Y-113102626D01*
X141562665Y-112947936D01*
X141530000Y-112783718D01*
X141530000Y-112616282D01*
X141562665Y-112452064D01*
X141626739Y-112297374D01*
X141673145Y-112227924D01*
X141719762Y-112158156D01*
X141838156Y-112039762D01*
X141907924Y-111993145D01*
X141977374Y-111946739D01*
X142132064Y-111882665D01*
X142296282Y-111850000D01*
X142463718Y-111850000D01*
X142627936Y-111882665D01*
G37*
G36*
X158470000Y-113550000D02*
G01*
X156770000Y-113550000D01*
X156770000Y-111850000D01*
X158470000Y-111850000D01*
X158470000Y-113550000D01*
G37*
G36*
X149387936Y-108072665D02*
G01*
X149542626Y-108136739D01*
X149612076Y-108183145D01*
X149681844Y-108229762D01*
X149800238Y-108348156D01*
X149846855Y-108417924D01*
X149893261Y-108487374D01*
X149957335Y-108642064D01*
X149990000Y-108806282D01*
X149990000Y-108973718D01*
X149957335Y-109137936D01*
X149893261Y-109292626D01*
X149846855Y-109362076D01*
X149800238Y-109431844D01*
X149681844Y-109550238D01*
X149612076Y-109596855D01*
X149542626Y-109643261D01*
X149387936Y-109707335D01*
X149223718Y-109740000D01*
X149056282Y-109740000D01*
X148892064Y-109707335D01*
X148737374Y-109643261D01*
X148667924Y-109596855D01*
X148598156Y-109550238D01*
X148479762Y-109431844D01*
X148433145Y-109362076D01*
X148386739Y-109292626D01*
X148322665Y-109137936D01*
X148290000Y-108973718D01*
X148290000Y-108806282D01*
X148322665Y-108642064D01*
X148386739Y-108487374D01*
X148433145Y-108417924D01*
X148479762Y-108348156D01*
X148598156Y-108229762D01*
X148667924Y-108183145D01*
X148737374Y-108136739D01*
X148892064Y-108072665D01*
X149056282Y-108040000D01*
X149223718Y-108040000D01*
X149387936Y-108072665D01*
G37*
G36*
X146847936Y-108072665D02*
G01*
X147002626Y-108136739D01*
X147072076Y-108183145D01*
X147141844Y-108229762D01*
X147260238Y-108348156D01*
X147306855Y-108417924D01*
X147353261Y-108487374D01*
X147417335Y-108642064D01*
X147450000Y-108806282D01*
X147450000Y-108973718D01*
X147417335Y-109137936D01*
X147353261Y-109292626D01*
X147306855Y-109362076D01*
X147260238Y-109431844D01*
X147141844Y-109550238D01*
X147072076Y-109596855D01*
X147002626Y-109643261D01*
X146847936Y-109707335D01*
X146683718Y-109740000D01*
X146516282Y-109740000D01*
X146352064Y-109707335D01*
X146197374Y-109643261D01*
X146127924Y-109596855D01*
X146058156Y-109550238D01*
X145939762Y-109431844D01*
X145893145Y-109362076D01*
X145846739Y-109292626D01*
X145782665Y-109137936D01*
X145750000Y-108973718D01*
X145750000Y-108806282D01*
X145782665Y-108642064D01*
X145846739Y-108487374D01*
X145893145Y-108417924D01*
X145939762Y-108348156D01*
X146058156Y-108229762D01*
X146127924Y-108183145D01*
X146197374Y-108136739D01*
X146352064Y-108072665D01*
X146516282Y-108040000D01*
X146683718Y-108040000D01*
X146847936Y-108072665D01*
G37*
G36*
X144307936Y-108072665D02*
G01*
X144462626Y-108136739D01*
X144532076Y-108183145D01*
X144601844Y-108229762D01*
X144720238Y-108348156D01*
X144766855Y-108417924D01*
X144813261Y-108487374D01*
X144877335Y-108642064D01*
X144910000Y-108806282D01*
X144910000Y-108973718D01*
X144877335Y-109137936D01*
X144813261Y-109292626D01*
X144766855Y-109362076D01*
X144720238Y-109431844D01*
X144601844Y-109550238D01*
X144532076Y-109596855D01*
X144462626Y-109643261D01*
X144307936Y-109707335D01*
X144143718Y-109740000D01*
X143976282Y-109740000D01*
X143812064Y-109707335D01*
X143657374Y-109643261D01*
X143587924Y-109596855D01*
X143518156Y-109550238D01*
X143399762Y-109431844D01*
X143353145Y-109362076D01*
X143306739Y-109292626D01*
X143242665Y-109137936D01*
X143210000Y-108973718D01*
X143210000Y-108806282D01*
X143242665Y-108642064D01*
X143306739Y-108487374D01*
X143353145Y-108417924D01*
X143399762Y-108348156D01*
X143518156Y-108229762D01*
X143587924Y-108183145D01*
X143657374Y-108136739D01*
X143812064Y-108072665D01*
X143976282Y-108040000D01*
X144143718Y-108040000D01*
X144307936Y-108072665D01*
G37*
G36*
X141767936Y-108072665D02*
G01*
X141922626Y-108136739D01*
X141992076Y-108183145D01*
X142061844Y-108229762D01*
X142180238Y-108348156D01*
X142226855Y-108417924D01*
X142273261Y-108487374D01*
X142337335Y-108642064D01*
X142370000Y-108806282D01*
X142370000Y-108973718D01*
X142337335Y-109137936D01*
X142273261Y-109292626D01*
X142226855Y-109362076D01*
X142180238Y-109431844D01*
X142061844Y-109550238D01*
X141992076Y-109596855D01*
X141922626Y-109643261D01*
X141767936Y-109707335D01*
X141603718Y-109740000D01*
X141436282Y-109740000D01*
X141272064Y-109707335D01*
X141117374Y-109643261D01*
X141047924Y-109596855D01*
X140978156Y-109550238D01*
X140859762Y-109431844D01*
X140813145Y-109362076D01*
X140766739Y-109292626D01*
X140702665Y-109137936D01*
X140670000Y-108973718D01*
X140670000Y-108806282D01*
X140702665Y-108642064D01*
X140766739Y-108487374D01*
X140813145Y-108417924D01*
X140859762Y-108348156D01*
X140978156Y-108229762D01*
X141047924Y-108183145D01*
X141117374Y-108136739D01*
X141272064Y-108072665D01*
X141436282Y-108040000D01*
X141603718Y-108040000D01*
X141767936Y-108072665D01*
G37*
G36*
X139227936Y-108072665D02*
G01*
X139382626Y-108136739D01*
X139452076Y-108183145D01*
X139521844Y-108229762D01*
X139640238Y-108348156D01*
X139686855Y-108417924D01*
X139733261Y-108487374D01*
X139797335Y-108642064D01*
X139830000Y-108806282D01*
X139830000Y-108973718D01*
X139797335Y-109137936D01*
X139733261Y-109292626D01*
X139686855Y-109362076D01*
X139640238Y-109431844D01*
X139521844Y-109550238D01*
X139452076Y-109596855D01*
X139382626Y-109643261D01*
X139227936Y-109707335D01*
X139063718Y-109740000D01*
X138896282Y-109740000D01*
X138732064Y-109707335D01*
X138577374Y-109643261D01*
X138507924Y-109596855D01*
X138438156Y-109550238D01*
X138319762Y-109431844D01*
X138273145Y-109362076D01*
X138226739Y-109292626D01*
X138162665Y-109137936D01*
X138130000Y-108973718D01*
X138130000Y-108806282D01*
X138162665Y-108642064D01*
X138226739Y-108487374D01*
X138273145Y-108417924D01*
X138319762Y-108348156D01*
X138438156Y-108229762D01*
X138507924Y-108183145D01*
X138577374Y-108136739D01*
X138732064Y-108072665D01*
X138896282Y-108040000D01*
X139063718Y-108040000D01*
X139227936Y-108072665D01*
G37*
G36*
X136687936Y-108072665D02*
G01*
X136842626Y-108136739D01*
X136912076Y-108183145D01*
X136981844Y-108229762D01*
X137100238Y-108348156D01*
X137146855Y-108417924D01*
X137193261Y-108487374D01*
X137257335Y-108642064D01*
X137290000Y-108806282D01*
X137290000Y-108973718D01*
X137257335Y-109137936D01*
X137193261Y-109292626D01*
X137146855Y-109362076D01*
X137100238Y-109431844D01*
X136981844Y-109550238D01*
X136912076Y-109596855D01*
X136842626Y-109643261D01*
X136687936Y-109707335D01*
X136523718Y-109740000D01*
X136356282Y-109740000D01*
X136192064Y-109707335D01*
X136037374Y-109643261D01*
X135967924Y-109596855D01*
X135898156Y-109550238D01*
X135779762Y-109431844D01*
X135733145Y-109362076D01*
X135686739Y-109292626D01*
X135622665Y-109137936D01*
X135590000Y-108973718D01*
X135590000Y-108806282D01*
X135622665Y-108642064D01*
X135686739Y-108487374D01*
X135733145Y-108417924D01*
X135779762Y-108348156D01*
X135898156Y-108229762D01*
X135967924Y-108183145D01*
X136037374Y-108136739D01*
X136192064Y-108072665D01*
X136356282Y-108040000D01*
X136523718Y-108040000D01*
X136687936Y-108072665D01*
G37*
G36*
X134750000Y-109740000D02*
G01*
X133050000Y-109740000D01*
X133050000Y-108040000D01*
X134750000Y-108040000D01*
X134750000Y-109740000D01*
G37*
G36*
X138920000Y-106565000D02*
G01*
X137220000Y-106565000D01*
X137220000Y-104865000D01*
X138920000Y-104865000D01*
X138920000Y-106565000D01*
G37*
G36*
X138317936Y-102357665D02*
G01*
X138472626Y-102421739D01*
X138542076Y-102468145D01*
X138611844Y-102514762D01*
X138730238Y-102633156D01*
X138776855Y-102702924D01*
X138823261Y-102772374D01*
X138887335Y-102927064D01*
X138920000Y-103091282D01*
X138920000Y-103258718D01*
X138887335Y-103422936D01*
X138823261Y-103577626D01*
X138776855Y-103647076D01*
X138730238Y-103716844D01*
X138611844Y-103835238D01*
X138542076Y-103881855D01*
X138472626Y-103928261D01*
X138317936Y-103992335D01*
X138153718Y-104025000D01*
X137986282Y-104025000D01*
X137822064Y-103992335D01*
X137667374Y-103928261D01*
X137597924Y-103881855D01*
X137528156Y-103835238D01*
X137409762Y-103716844D01*
X137363145Y-103647076D01*
X137316739Y-103577626D01*
X137252665Y-103422936D01*
X137220000Y-103258718D01*
X137220000Y-103091282D01*
X137252665Y-102927064D01*
X137316739Y-102772374D01*
X137363145Y-102702924D01*
X137409762Y-102633156D01*
X137528156Y-102514762D01*
X137597924Y-102468145D01*
X137667374Y-102421739D01*
X137822064Y-102357665D01*
X137986282Y-102325000D01*
X138153718Y-102325000D01*
X138317936Y-102357665D01*
G37*
G36*
X162177936Y-102357665D02*
G01*
X162332626Y-102421739D01*
X162402076Y-102468145D01*
X162471844Y-102514762D01*
X162590238Y-102633156D01*
X162636855Y-102702924D01*
X162683261Y-102772374D01*
X162747335Y-102927064D01*
X162780000Y-103091282D01*
X162780000Y-103258718D01*
X162747335Y-103422936D01*
X162683261Y-103577626D01*
X162636855Y-103647076D01*
X162590238Y-103716844D01*
X162471844Y-103835238D01*
X162402076Y-103881855D01*
X162332626Y-103928261D01*
X162177936Y-103992335D01*
X162013718Y-104025000D01*
X161846282Y-104025000D01*
X161682064Y-103992335D01*
X161527374Y-103928261D01*
X161457924Y-103881855D01*
X161388156Y-103835238D01*
X161269762Y-103716844D01*
X161223145Y-103647076D01*
X161176739Y-103577626D01*
X161112665Y-103422936D01*
X161080000Y-103258718D01*
X161080000Y-103091282D01*
X161112665Y-102927064D01*
X161176739Y-102772374D01*
X161223145Y-102702924D01*
X161269762Y-102633156D01*
X161388156Y-102514762D01*
X161457924Y-102468145D01*
X161527374Y-102421739D01*
X161682064Y-102357665D01*
X161846282Y-102325000D01*
X162013718Y-102325000D01*
X162177936Y-102357665D01*
G37*
G36*
X138317936Y-99817665D02*
G01*
X138472626Y-99881739D01*
X138542076Y-99928145D01*
X138611844Y-99974762D01*
X138730238Y-100093156D01*
X138776855Y-100162924D01*
X138823261Y-100232374D01*
X138887335Y-100387064D01*
X138920000Y-100551282D01*
X138920000Y-100718718D01*
X138887335Y-100882936D01*
X138823261Y-101037626D01*
X138776855Y-101107076D01*
X138730238Y-101176844D01*
X138611844Y-101295238D01*
X138542076Y-101341855D01*
X138472626Y-101388261D01*
X138317936Y-101452335D01*
X138153718Y-101485000D01*
X137986282Y-101485000D01*
X137822064Y-101452335D01*
X137667374Y-101388261D01*
X137597924Y-101341855D01*
X137528156Y-101295238D01*
X137409762Y-101176844D01*
X137363145Y-101107076D01*
X137316739Y-101037626D01*
X137252665Y-100882936D01*
X137220000Y-100718718D01*
X137220000Y-100551282D01*
X137252665Y-100387064D01*
X137316739Y-100232374D01*
X137363145Y-100162924D01*
X137409762Y-100093156D01*
X137528156Y-99974762D01*
X137597924Y-99928145D01*
X137667374Y-99881739D01*
X137822064Y-99817665D01*
X137986282Y-99785000D01*
X138153718Y-99785000D01*
X138317936Y-99817665D01*
G37*
G36*
X162177936Y-99817665D02*
G01*
X162332626Y-99881739D01*
X162402076Y-99928145D01*
X162471844Y-99974762D01*
X162590238Y-100093156D01*
X162636855Y-100162924D01*
X162683261Y-100232374D01*
X162747335Y-100387064D01*
X162780000Y-100551282D01*
X162780000Y-100718718D01*
X162747335Y-100882936D01*
X162683261Y-101037626D01*
X162636855Y-101107076D01*
X162590238Y-101176844D01*
X162471844Y-101295238D01*
X162402076Y-101341855D01*
X162332626Y-101388261D01*
X162177936Y-101452335D01*
X162013718Y-101485000D01*
X161846282Y-101485000D01*
X161682064Y-101452335D01*
X161527374Y-101388261D01*
X161457924Y-101341855D01*
X161388156Y-101295238D01*
X161269762Y-101176844D01*
X161223145Y-101107076D01*
X161176739Y-101037626D01*
X161112665Y-100882936D01*
X161080000Y-100718718D01*
X161080000Y-100551282D01*
X161112665Y-100387064D01*
X161176739Y-100232374D01*
X161223145Y-100162924D01*
X161269762Y-100093156D01*
X161388156Y-99974762D01*
X161457924Y-99928145D01*
X161527374Y-99881739D01*
X161682064Y-99817665D01*
X161846282Y-99785000D01*
X162013718Y-99785000D01*
X162177936Y-99817665D01*
G37*
G36*
X162177936Y-97277665D02*
G01*
X162332626Y-97341739D01*
X162402076Y-97388145D01*
X162471844Y-97434762D01*
X162590238Y-97553156D01*
X162636855Y-97622924D01*
X162683261Y-97692374D01*
X162747335Y-97847064D01*
X162780000Y-98011282D01*
X162780000Y-98178718D01*
X162747335Y-98342936D01*
X162683261Y-98497626D01*
X162636855Y-98567076D01*
X162590238Y-98636844D01*
X162471844Y-98755238D01*
X162402076Y-98801855D01*
X162332626Y-98848261D01*
X162177936Y-98912335D01*
X162013718Y-98945000D01*
X161846282Y-98945000D01*
X161682064Y-98912335D01*
X161527374Y-98848261D01*
X161457924Y-98801855D01*
X161388156Y-98755238D01*
X161269762Y-98636844D01*
X161223145Y-98567076D01*
X161176739Y-98497626D01*
X161112665Y-98342936D01*
X161080000Y-98178718D01*
X161080000Y-98011282D01*
X161112665Y-97847064D01*
X161176739Y-97692374D01*
X161223145Y-97622924D01*
X161269762Y-97553156D01*
X161388156Y-97434762D01*
X161457924Y-97388145D01*
X161527374Y-97341739D01*
X161682064Y-97277665D01*
X161846282Y-97245000D01*
X162013718Y-97245000D01*
X162177936Y-97277665D01*
G37*
G36*
X138317936Y-97277665D02*
G01*
X138472626Y-97341739D01*
X138542076Y-97388145D01*
X138611844Y-97434762D01*
X138730238Y-97553156D01*
X138776855Y-97622924D01*
X138823261Y-97692374D01*
X138887335Y-97847064D01*
X138920000Y-98011282D01*
X138920000Y-98178718D01*
X138887335Y-98342936D01*
X138823261Y-98497626D01*
X138776855Y-98567076D01*
X138730238Y-98636844D01*
X138611844Y-98755238D01*
X138542076Y-98801855D01*
X138472626Y-98848261D01*
X138317936Y-98912335D01*
X138153718Y-98945000D01*
X137986282Y-98945000D01*
X137822064Y-98912335D01*
X137667374Y-98848261D01*
X137597924Y-98801855D01*
X137528156Y-98755238D01*
X137409762Y-98636844D01*
X137363145Y-98567076D01*
X137316739Y-98497626D01*
X137252665Y-98342936D01*
X137220000Y-98178718D01*
X137220000Y-98011282D01*
X137252665Y-97847064D01*
X137316739Y-97692374D01*
X137363145Y-97622924D01*
X137409762Y-97553156D01*
X137528156Y-97434762D01*
X137597924Y-97388145D01*
X137667374Y-97341739D01*
X137822064Y-97277665D01*
X137986282Y-97245000D01*
X138153718Y-97245000D01*
X138317936Y-97277665D01*
G37*
G36*
X138317936Y-94737665D02*
G01*
X138472626Y-94801739D01*
X138542076Y-94848145D01*
X138611844Y-94894762D01*
X138730238Y-95013156D01*
X138776855Y-95082924D01*
X138823261Y-95152374D01*
X138887335Y-95307064D01*
X138920000Y-95471282D01*
X138920000Y-95638718D01*
X138887335Y-95802936D01*
X138823261Y-95957626D01*
X138776855Y-96027076D01*
X138730238Y-96096844D01*
X138611844Y-96215238D01*
X138542076Y-96261855D01*
X138472626Y-96308261D01*
X138317936Y-96372335D01*
X138153718Y-96405000D01*
X137986282Y-96405000D01*
X137822064Y-96372335D01*
X137667374Y-96308261D01*
X137597924Y-96261855D01*
X137528156Y-96215238D01*
X137409762Y-96096844D01*
X137363145Y-96027076D01*
X137316739Y-95957626D01*
X137252665Y-95802936D01*
X137220000Y-95638718D01*
X137220000Y-95471282D01*
X137252665Y-95307064D01*
X137316739Y-95152374D01*
X137363145Y-95082924D01*
X137409762Y-95013156D01*
X137528156Y-94894762D01*
X137597924Y-94848145D01*
X137667374Y-94801739D01*
X137822064Y-94737665D01*
X137986282Y-94705000D01*
X138153718Y-94705000D01*
X138317936Y-94737665D01*
G37*
G36*
X162780000Y-96405000D02*
G01*
X161080000Y-96405000D01*
X161080000Y-94705000D01*
X162780000Y-94705000D01*
X162780000Y-96405000D01*
G37*
G36*
X162177936Y-89657665D02*
G01*
X162332626Y-89721739D01*
X162402076Y-89768145D01*
X162471844Y-89814762D01*
X162590238Y-89933156D01*
X162636855Y-90002924D01*
X162683261Y-90072374D01*
X162747335Y-90227064D01*
X162780000Y-90391282D01*
X162780000Y-90558718D01*
X162747335Y-90722936D01*
X162683261Y-90877626D01*
X162636855Y-90947076D01*
X162590238Y-91016844D01*
X162471844Y-91135238D01*
X162402076Y-91181855D01*
X162332626Y-91228261D01*
X162177936Y-91292335D01*
X162013718Y-91325000D01*
X161846282Y-91325000D01*
X161682064Y-91292335D01*
X161527374Y-91228261D01*
X161457924Y-91181855D01*
X161388156Y-91135238D01*
X161269762Y-91016844D01*
X161223145Y-90947076D01*
X161176739Y-90877626D01*
X161112665Y-90722936D01*
X161080000Y-90558718D01*
X161080000Y-90391282D01*
X161112665Y-90227064D01*
X161176739Y-90072374D01*
X161223145Y-90002924D01*
X161269762Y-89933156D01*
X161388156Y-89814762D01*
X161457924Y-89768145D01*
X161527374Y-89721739D01*
X161682064Y-89657665D01*
X161846282Y-89625000D01*
X162013718Y-89625000D01*
X162177936Y-89657665D01*
G37*
G36*
X138920000Y-91325000D02*
G01*
X137220000Y-91325000D01*
X137220000Y-89625000D01*
X138920000Y-89625000D01*
X138920000Y-91325000D01*
G37*
G36*
X162177936Y-87117665D02*
G01*
X162332626Y-87181739D01*
X162402076Y-87228145D01*
X162471844Y-87274762D01*
X162590238Y-87393156D01*
X162636855Y-87462924D01*
X162683261Y-87532374D01*
X162747335Y-87687064D01*
X162780000Y-87851282D01*
X162780000Y-88018718D01*
X162747335Y-88182936D01*
X162683261Y-88337626D01*
X162636855Y-88407076D01*
X162590238Y-88476844D01*
X162471844Y-88595238D01*
X162402076Y-88641855D01*
X162332626Y-88688261D01*
X162177936Y-88752335D01*
X162013718Y-88785000D01*
X161846282Y-88785000D01*
X161682064Y-88752335D01*
X161527374Y-88688261D01*
X161457924Y-88641855D01*
X161388156Y-88595238D01*
X161269762Y-88476844D01*
X161223145Y-88407076D01*
X161176739Y-88337626D01*
X161112665Y-88182936D01*
X161080000Y-88018718D01*
X161080000Y-87851282D01*
X161112665Y-87687064D01*
X161176739Y-87532374D01*
X161223145Y-87462924D01*
X161269762Y-87393156D01*
X161388156Y-87274762D01*
X161457924Y-87228145D01*
X161527374Y-87181739D01*
X161682064Y-87117665D01*
X161846282Y-87085000D01*
X162013718Y-87085000D01*
X162177936Y-87117665D01*
G37*
G36*
X138317936Y-87117665D02*
G01*
X138472626Y-87181739D01*
X138542076Y-87228145D01*
X138611844Y-87274762D01*
X138730238Y-87393156D01*
X138776855Y-87462924D01*
X138823261Y-87532374D01*
X138887335Y-87687064D01*
X138920000Y-87851282D01*
X138920000Y-88018718D01*
X138887335Y-88182936D01*
X138823261Y-88337626D01*
X138776855Y-88407076D01*
X138730238Y-88476844D01*
X138611844Y-88595238D01*
X138542076Y-88641855D01*
X138472626Y-88688261D01*
X138317936Y-88752335D01*
X138153718Y-88785000D01*
X137986282Y-88785000D01*
X137822064Y-88752335D01*
X137667374Y-88688261D01*
X137597924Y-88641855D01*
X137528156Y-88595238D01*
X137409762Y-88476844D01*
X137363145Y-88407076D01*
X137316739Y-88337626D01*
X137252665Y-88182936D01*
X137220000Y-88018718D01*
X137220000Y-87851282D01*
X137252665Y-87687064D01*
X137316739Y-87532374D01*
X137363145Y-87462924D01*
X137409762Y-87393156D01*
X137528156Y-87274762D01*
X137597924Y-87228145D01*
X137667374Y-87181739D01*
X137822064Y-87117665D01*
X137986282Y-87085000D01*
X138153718Y-87085000D01*
X138317936Y-87117665D01*
G37*
G36*
X162177936Y-84577665D02*
G01*
X162332626Y-84641739D01*
X162402076Y-84688145D01*
X162471844Y-84734762D01*
X162590238Y-84853156D01*
X162636855Y-84922924D01*
X162683261Y-84992374D01*
X162747335Y-85147064D01*
X162780000Y-85311282D01*
X162780000Y-85478718D01*
X162747335Y-85642936D01*
X162683261Y-85797626D01*
X162636855Y-85867076D01*
X162590238Y-85936844D01*
X162471844Y-86055238D01*
X162402076Y-86101855D01*
X162332626Y-86148261D01*
X162177936Y-86212335D01*
X162013718Y-86245000D01*
X161846282Y-86245000D01*
X161682064Y-86212335D01*
X161527374Y-86148261D01*
X161457924Y-86101855D01*
X161388156Y-86055238D01*
X161269762Y-85936844D01*
X161223145Y-85867076D01*
X161176739Y-85797626D01*
X161112665Y-85642936D01*
X161080000Y-85478718D01*
X161080000Y-85311282D01*
X161112665Y-85147064D01*
X161176739Y-84992374D01*
X161223145Y-84922924D01*
X161269762Y-84853156D01*
X161388156Y-84734762D01*
X161457924Y-84688145D01*
X161527374Y-84641739D01*
X161682064Y-84577665D01*
X161846282Y-84545000D01*
X162013718Y-84545000D01*
X162177936Y-84577665D01*
G37*
G36*
X138317936Y-84577665D02*
G01*
X138472626Y-84641739D01*
X138542076Y-84688145D01*
X138611844Y-84734762D01*
X138730238Y-84853156D01*
X138776855Y-84922924D01*
X138823261Y-84992374D01*
X138887335Y-85147064D01*
X138920000Y-85311282D01*
X138920000Y-85478718D01*
X138887335Y-85642936D01*
X138823261Y-85797626D01*
X138776855Y-85867076D01*
X138730238Y-85936844D01*
X138611844Y-86055238D01*
X138542076Y-86101855D01*
X138472626Y-86148261D01*
X138317936Y-86212335D01*
X138153718Y-86245000D01*
X137986282Y-86245000D01*
X137822064Y-86212335D01*
X137667374Y-86148261D01*
X137597924Y-86101855D01*
X137528156Y-86055238D01*
X137409762Y-85936844D01*
X137363145Y-85867076D01*
X137316739Y-85797626D01*
X137252665Y-85642936D01*
X137220000Y-85478718D01*
X137220000Y-85311282D01*
X137252665Y-85147064D01*
X137316739Y-84992374D01*
X137363145Y-84922924D01*
X137409762Y-84853156D01*
X137528156Y-84734762D01*
X137597924Y-84688145D01*
X137667374Y-84641739D01*
X137822064Y-84577665D01*
X137986282Y-84545000D01*
X138153718Y-84545000D01*
X138317936Y-84577665D01*
G37*
G36*
X138317936Y-82037665D02*
G01*
X138472626Y-82101739D01*
X138542076Y-82148145D01*
X138611844Y-82194762D01*
X138730238Y-82313156D01*
X138776855Y-82382924D01*
X138823261Y-82452374D01*
X138887335Y-82607064D01*
X138920000Y-82771282D01*
X138920000Y-82938718D01*
X138887335Y-83102936D01*
X138823261Y-83257626D01*
X138776855Y-83327076D01*
X138730238Y-83396844D01*
X138611844Y-83515238D01*
X138542076Y-83561855D01*
X138472626Y-83608261D01*
X138317936Y-83672335D01*
X138153718Y-83705000D01*
X137986282Y-83705000D01*
X137822064Y-83672335D01*
X137667374Y-83608261D01*
X137597924Y-83561855D01*
X137528156Y-83515238D01*
X137409762Y-83396844D01*
X137363145Y-83327076D01*
X137316739Y-83257626D01*
X137252665Y-83102936D01*
X137220000Y-82938718D01*
X137220000Y-82771282D01*
X137252665Y-82607064D01*
X137316739Y-82452374D01*
X137363145Y-82382924D01*
X137409762Y-82313156D01*
X137528156Y-82194762D01*
X137597924Y-82148145D01*
X137667374Y-82101739D01*
X137822064Y-82037665D01*
X137986282Y-82005000D01*
X138153718Y-82005000D01*
X138317936Y-82037665D01*
G37*
G36*
X162780000Y-83705000D02*
G01*
X161080000Y-83705000D01*
X161080000Y-82005000D01*
X162780000Y-82005000D01*
X162780000Y-83705000D01*
G37*
G36*
X131328047Y-77817934D02*
G01*
X131508365Y-77853801D01*
X131763149Y-77959336D01*
X131992448Y-78112549D01*
X132187451Y-78307552D01*
X132340664Y-78536851D01*
X132446199Y-78791635D01*
X132500000Y-79062112D01*
X132500000Y-79337888D01*
X132446199Y-79608365D01*
X132340664Y-79863149D01*
X132187451Y-80092448D01*
X131992448Y-80287451D01*
X131763149Y-80440664D01*
X131508365Y-80546199D01*
X131328047Y-80582066D01*
X131237889Y-80600000D01*
X130962111Y-80600000D01*
X130871953Y-80582066D01*
X130691635Y-80546199D01*
X130436851Y-80440664D01*
X130207552Y-80287451D01*
X130012549Y-80092448D01*
X129859336Y-79863149D01*
X129753801Y-79608365D01*
X129700000Y-79337888D01*
X129700000Y-79062112D01*
X129753801Y-78791635D01*
X129859336Y-78536851D01*
X130012549Y-78307552D01*
X130207552Y-78112549D01*
X130436851Y-77959336D01*
X130691635Y-77853801D01*
X130871953Y-77817934D01*
X130962111Y-77800000D01*
X131237889Y-77800000D01*
X131328047Y-77817934D01*
G37*
G36*
X169328047Y-77817934D02*
G01*
X169508365Y-77853801D01*
X169763149Y-77959336D01*
X169992448Y-78112549D01*
X170187451Y-78307552D01*
X170340664Y-78536851D01*
X170446199Y-78791635D01*
X170500000Y-79062112D01*
X170500000Y-79337888D01*
X170446199Y-79608365D01*
X170340664Y-79863149D01*
X170187451Y-80092448D01*
X169992448Y-80287451D01*
X169763149Y-80440664D01*
X169508365Y-80546199D01*
X169328047Y-80582066D01*
X169237889Y-80600000D01*
X168962111Y-80600000D01*
X168871953Y-80582066D01*
X168691635Y-80546199D01*
X168436851Y-80440664D01*
X168207552Y-80287451D01*
X168012549Y-80092448D01*
X167859336Y-79863149D01*
X167753801Y-79608365D01*
X167700000Y-79337888D01*
X167700000Y-79062112D01*
X167753801Y-78791635D01*
X167859336Y-78536851D01*
X168012549Y-78307552D01*
X168207552Y-78112549D01*
X168436851Y-77959336D01*
X168691635Y-77853801D01*
X168871953Y-77817934D01*
X168962111Y-77800000D01*
X169237889Y-77800000D01*
X169328047Y-77817934D01*
G37*
G36*
X169312144Y-70930743D02*
G01*
X169466703Y-70961487D01*
X169757884Y-71082098D01*
X170019941Y-71257199D01*
X170242801Y-71480059D01*
X170417902Y-71742116D01*
X170538513Y-72033297D01*
X170600000Y-72342414D01*
X170600000Y-72657586D01*
X170538513Y-72966703D01*
X170417902Y-73257884D01*
X170242801Y-73519941D01*
X170019941Y-73742801D01*
X169757884Y-73917902D01*
X169466703Y-74038513D01*
X169312145Y-74069256D01*
X169157588Y-74100000D01*
X168842412Y-74100000D01*
X168687855Y-74069256D01*
X168533297Y-74038513D01*
X168242116Y-73917902D01*
X167980059Y-73742801D01*
X167757199Y-73519941D01*
X167582098Y-73257884D01*
X167461487Y-72966703D01*
X167400000Y-72657586D01*
X167400000Y-72342414D01*
X167461487Y-72033297D01*
X167582098Y-71742116D01*
X167757199Y-71480059D01*
X167980059Y-71257199D01*
X168242116Y-71082098D01*
X168533297Y-70961487D01*
X168687856Y-70930743D01*
X168842412Y-70900000D01*
X169157588Y-70900000D01*
X169312144Y-70930743D01*
G37*
G36*
X131312144Y-70930743D02*
G01*
X131466703Y-70961487D01*
X131757884Y-71082098D01*
X132019941Y-71257199D01*
X132242801Y-71480059D01*
X132417902Y-71742116D01*
X132538513Y-72033297D01*
X132600000Y-72342414D01*
X132600000Y-72657586D01*
X132538513Y-72966703D01*
X132417902Y-73257884D01*
X132242801Y-73519941D01*
X132019941Y-73742801D01*
X131757884Y-73917902D01*
X131466703Y-74038513D01*
X131312145Y-74069256D01*
X131157588Y-74100000D01*
X130842412Y-74100000D01*
X130687855Y-74069256D01*
X130533297Y-74038513D01*
X130242116Y-73917902D01*
X129980059Y-73742801D01*
X129757199Y-73519941D01*
X129582098Y-73257884D01*
X129461487Y-72966703D01*
X129400000Y-72657586D01*
X129400000Y-72342414D01*
X129461487Y-72033297D01*
X129582098Y-71742116D01*
X129757199Y-71480059D01*
X129980059Y-71257199D01*
X130242116Y-71082098D01*
X130533297Y-70961487D01*
X130687856Y-70930743D01*
X130842412Y-70900000D01*
X131157588Y-70900000D01*
X131312144Y-70930743D01*
G37*
M02*
