M48
; DRILL file {KiCad (5.1.6-0-10_14)} date Monday, September 14, 2020 at 08:33:53 PM
; FORMAT={-:-/ absolute / inch / decimal}
; #@! TF.CreationDate,2020-09-14T20:33:53+02:00
; #@! TF.GenerationSoftware,Kicad,Pcbnew,(5.1.6-0-10_14)
FMAT,2
INCH
T1C0.0118
T2C0.0236
T3C0.0394
T4C0.0256
T5C0.1102
T6C0.1260
%
G90
G05
T1
X5.1457Y-4.2874
X5.1969Y-4.685
X5.257Y-4.4675
X5.2589Y-4.4163
X5.2805Y-3.412
X5.2854Y-3.0512
X5.3305Y-3.512
X5.3555Y-3.612
X5.374Y-4.3898
X5.3805Y-3.637
X5.4035Y-3.0807
X5.4035Y-3.1102
X5.4035Y-3.1398
X5.4055Y-4.3995
X5.4055Y-4.4883
X5.4331Y-4.685
X5.5058Y-3.462
X5.5118Y-3.0413
X5.5846Y-3.8622
X5.5846Y-4.0118
X5.5846Y-4.1614
X5.5906Y-4.685
X5.6299Y-3.0413
X5.6398Y-3.7402
X5.7067Y-4.1654
X5.748Y-3.3366
X5.7677Y-3.8287
X5.7677Y-3.8583
X5.7677Y-3.8878
X5.7815Y-4.8957
X5.7815Y-4.9744
X5.8268Y-4.685
X5.8366Y-4.1673
X5.8465Y-5.0787
X5.8661Y-3.2283
X5.8661Y-3.4547
X5.8946Y-4.9902
X5.8957Y-3.5138
X5.9252Y-3.5138
X5.935Y-4.8031
X5.935Y-4.8031
X5.9361Y-4.9902
X5.9646Y-3.6604
X5.9843Y-3.3366
X5.9843Y-4.2913
X5.9843Y-4.685
X6.0039Y-3.6614
X6.0236Y-4.2913
X6.0433Y-3.6614
X6.0531Y-4.065
X6.0571Y-4.9409
X6.063Y-4.2126
X6.063Y-4.2913
X6.0827Y-3.6614
X6.1319Y-3.7992
X6.1319Y-3.7992
X6.1713Y-4.935
X6.1713Y-5.0728
X6.1811Y-3.0512
X6.1815Y-3.2476
X6.2106Y-5.0995
X6.2106Y-5.0995
X6.2205Y-4.2815
X6.2205Y-4.685
X6.2402Y-4.9606
X6.25Y-4.8228
X6.2756Y-4.8917
X6.2795Y-4.9311
X6.2835Y-5.2264
X6.3091Y-3.1988
X6.32Y-4.3406
X6.3484Y-4.3613
X6.3593Y-4.9311
X6.3681Y-3.0709
X6.3681Y-3.1004
X6.3681Y-3.1299
X6.3681Y-3.1299
X6.378Y-4.685
X6.4114Y-5.2264
X6.4134Y-4.8917
X6.4173Y-4.7441
X6.4173Y-4.8218
X6.437Y-4.9606
X6.437Y-5.1575
X6.5059Y-5.065
X6.5059Y-5.1929
X6.6083Y-4.8228
X6.6083Y-4.8917
X6.6083Y-4.9606
X6.6142Y-4.685
X6.6142Y-4.685
T3
X5.4358Y-3.762
X5.4358Y-3.862
X5.4358Y-3.962
X5.4358Y-4.062
X5.4358Y-4.162
X5.4358Y-3.262
X5.4358Y-3.362
X5.4358Y-3.462
X5.4358Y-3.562
X5.4358Y-4.8213
X5.4358Y-4.9213
X5.6055Y-4.437
X5.7055Y-4.437
X5.8055Y-4.437
X5.9055Y-4.437
X6.0055Y-4.437
X6.1055Y-4.437
X6.2055Y-4.437
X6.3752Y-3.262
X6.3752Y-3.362
X6.3752Y-3.462
X6.3752Y-3.562
X6.3752Y-3.762
X6.3752Y-3.862
X6.3752Y-3.962
X6.3752Y-4.062
X5.2717Y-4.287
X5.3717Y-4.287
X5.4717Y-4.287
X5.5717Y-4.287
X5.6717Y-4.287
X5.7717Y-4.287
X5.8717Y-4.287
T4
X5.7917Y-5.0746
X6.0193Y-5.0746
T5
X5.1614Y-3.1181
X5.1614Y-4.4173
X6.6575Y-3.1181
X6.6575Y-4.4173
T6
X6.6535Y-5.1378
X5.1575Y-5.1378
X5.1575Y-2.8543
X6.6535Y-2.8543
T2
G00X5.7354Y-5.0333
M15
G01X5.7354Y-5.0766
M16
G05
G00X5.7354Y-5.2077
M15
G01X5.7354Y-5.2313
M16
G05
G00X6.0756Y-5.0333
M15
G01X6.0756Y-5.0766
M16
G05
G00X6.0756Y-5.2077
M15
G01X6.0756Y-5.2313
M16
G05
T0
M30
