%TF.GenerationSoftware,KiCad,Pcbnew,(5.1.7-0-10_14)*%
%TF.CreationDate,2020-10-15T21:04:02+02:00*%
%TF.ProjectId,Co2-Sensor,436f322d-5365-46e7-936f-722e6b696361,rev?*%
%TF.SameCoordinates,Original*%
%TF.FileFunction,Legend,Bot*%
%TF.FilePolarity,Positive*%
%FSLAX46Y46*%
G04 Gerber Fmt 4.6, Leading zero omitted, Abs format (unit mm)*
G04 Created by KiCad (PCBNEW (5.1.7-0-10_14)) date 2020-10-15 21:04:02*
%MOMM*%
%LPD*%
G01*
G04 APERTURE LIST*
%ADD10C,0.150000*%
%ADD11C,0.152400*%
%ADD12C,0.120000*%
G04 APERTURE END LIST*
D10*
X159252976Y-77752142D02*
X159300595Y-77799761D01*
X159443452Y-77847380D01*
X159538690Y-77847380D01*
X159681547Y-77799761D01*
X159776785Y-77704523D01*
X159824404Y-77609285D01*
X159872023Y-77418809D01*
X159872023Y-77275952D01*
X159824404Y-77085476D01*
X159776785Y-76990238D01*
X159681547Y-76895000D01*
X159538690Y-76847380D01*
X159443452Y-76847380D01*
X159300595Y-76895000D01*
X159252976Y-76942619D01*
X158633928Y-76847380D02*
X158443452Y-76847380D01*
X158348214Y-76895000D01*
X158252976Y-76990238D01*
X158205357Y-77180714D01*
X158205357Y-77514047D01*
X158252976Y-77704523D01*
X158348214Y-77799761D01*
X158443452Y-77847380D01*
X158633928Y-77847380D01*
X158729166Y-77799761D01*
X158824404Y-77704523D01*
X158872023Y-77514047D01*
X158872023Y-77180714D01*
X158824404Y-76990238D01*
X158729166Y-76895000D01*
X158633928Y-76847380D01*
X157824404Y-76942619D02*
X157776785Y-76895000D01*
X157681547Y-76847380D01*
X157443452Y-76847380D01*
X157348214Y-76895000D01*
X157300595Y-76942619D01*
X157252976Y-77037857D01*
X157252976Y-77133095D01*
X157300595Y-77275952D01*
X157872023Y-77847380D01*
X157252976Y-77847380D01*
X156110119Y-77799761D02*
X155967261Y-77847380D01*
X155729166Y-77847380D01*
X155633928Y-77799761D01*
X155586309Y-77752142D01*
X155538690Y-77656904D01*
X155538690Y-77561666D01*
X155586309Y-77466428D01*
X155633928Y-77418809D01*
X155729166Y-77371190D01*
X155919642Y-77323571D01*
X156014880Y-77275952D01*
X156062500Y-77228333D01*
X156110119Y-77133095D01*
X156110119Y-77037857D01*
X156062500Y-76942619D01*
X156014880Y-76895000D01*
X155919642Y-76847380D01*
X155681547Y-76847380D01*
X155538690Y-76895000D01*
X154729166Y-77799761D02*
X154824404Y-77847380D01*
X155014880Y-77847380D01*
X155110119Y-77799761D01*
X155157738Y-77704523D01*
X155157738Y-77323571D01*
X155110119Y-77228333D01*
X155014880Y-77180714D01*
X154824404Y-77180714D01*
X154729166Y-77228333D01*
X154681547Y-77323571D01*
X154681547Y-77418809D01*
X155157738Y-77514047D01*
X154252976Y-77180714D02*
X154252976Y-77847380D01*
X154252976Y-77275952D02*
X154205357Y-77228333D01*
X154110119Y-77180714D01*
X153967261Y-77180714D01*
X153872023Y-77228333D01*
X153824404Y-77323571D01*
X153824404Y-77847380D01*
X153395833Y-77799761D02*
X153300595Y-77847380D01*
X153110119Y-77847380D01*
X153014880Y-77799761D01*
X152967261Y-77704523D01*
X152967261Y-77656904D01*
X153014880Y-77561666D01*
X153110119Y-77514047D01*
X153252976Y-77514047D01*
X153348214Y-77466428D01*
X153395833Y-77371190D01*
X153395833Y-77323571D01*
X153348214Y-77228333D01*
X153252976Y-77180714D01*
X153110119Y-77180714D01*
X153014880Y-77228333D01*
X152395833Y-77847380D02*
X152491071Y-77799761D01*
X152538690Y-77752142D01*
X152586309Y-77656904D01*
X152586309Y-77371190D01*
X152538690Y-77275952D01*
X152491071Y-77228333D01*
X152395833Y-77180714D01*
X152252976Y-77180714D01*
X152157738Y-77228333D01*
X152110119Y-77275952D01*
X152062500Y-77371190D01*
X152062500Y-77656904D01*
X152110119Y-77752142D01*
X152157738Y-77799761D01*
X152252976Y-77847380D01*
X152395833Y-77847380D01*
X151633928Y-77847380D02*
X151633928Y-77180714D01*
X151633928Y-77371190D02*
X151586309Y-77275952D01*
X151538690Y-77228333D01*
X151443452Y-77180714D01*
X151348214Y-77180714D01*
X149919642Y-77323571D02*
X149776785Y-77371190D01*
X149729166Y-77418809D01*
X149681547Y-77514047D01*
X149681547Y-77656904D01*
X149729166Y-77752142D01*
X149776785Y-77799761D01*
X149872023Y-77847380D01*
X150252976Y-77847380D01*
X150252976Y-76847380D01*
X149919642Y-76847380D01*
X149824404Y-76895000D01*
X149776785Y-76942619D01*
X149729166Y-77037857D01*
X149729166Y-77133095D01*
X149776785Y-77228333D01*
X149824404Y-77275952D01*
X149919642Y-77323571D01*
X150252976Y-77323571D01*
X149110119Y-77847380D02*
X149205357Y-77799761D01*
X149252976Y-77752142D01*
X149300595Y-77656904D01*
X149300595Y-77371190D01*
X149252976Y-77275952D01*
X149205357Y-77228333D01*
X149110119Y-77180714D01*
X148967261Y-77180714D01*
X148872023Y-77228333D01*
X148824404Y-77275952D01*
X148776785Y-77371190D01*
X148776785Y-77656904D01*
X148824404Y-77752142D01*
X148872023Y-77799761D01*
X148967261Y-77847380D01*
X149110119Y-77847380D01*
X147919642Y-77847380D02*
X147919642Y-77323571D01*
X147967261Y-77228333D01*
X148062500Y-77180714D01*
X148252976Y-77180714D01*
X148348214Y-77228333D01*
X147919642Y-77799761D02*
X148014880Y-77847380D01*
X148252976Y-77847380D01*
X148348214Y-77799761D01*
X148395833Y-77704523D01*
X148395833Y-77609285D01*
X148348214Y-77514047D01*
X148252976Y-77466428D01*
X148014880Y-77466428D01*
X147919642Y-77418809D01*
X147443452Y-77847380D02*
X147443452Y-77180714D01*
X147443452Y-77371190D02*
X147395833Y-77275952D01*
X147348214Y-77228333D01*
X147252976Y-77180714D01*
X147157738Y-77180714D01*
X146395833Y-77847380D02*
X146395833Y-76847380D01*
X146395833Y-77799761D02*
X146491071Y-77847380D01*
X146681547Y-77847380D01*
X146776785Y-77799761D01*
X146824404Y-77752142D01*
X146872023Y-77656904D01*
X146872023Y-77371190D01*
X146824404Y-77275952D01*
X146776785Y-77228333D01*
X146681547Y-77180714D01*
X146491071Y-77180714D01*
X146395833Y-77228333D01*
X159872023Y-78592619D02*
X159824404Y-78545000D01*
X159729166Y-78497380D01*
X159491071Y-78497380D01*
X159395833Y-78545000D01*
X159348214Y-78592619D01*
X159300595Y-78687857D01*
X159300595Y-78783095D01*
X159348214Y-78925952D01*
X159919642Y-79497380D01*
X159300595Y-79497380D01*
X158681547Y-78497380D02*
X158586309Y-78497380D01*
X158491071Y-78545000D01*
X158443452Y-78592619D01*
X158395833Y-78687857D01*
X158348214Y-78878333D01*
X158348214Y-79116428D01*
X158395833Y-79306904D01*
X158443452Y-79402142D01*
X158491071Y-79449761D01*
X158586309Y-79497380D01*
X158681547Y-79497380D01*
X158776785Y-79449761D01*
X158824404Y-79402142D01*
X158872023Y-79306904D01*
X158919642Y-79116428D01*
X158919642Y-78878333D01*
X158872023Y-78687857D01*
X158824404Y-78592619D01*
X158776785Y-78545000D01*
X158681547Y-78497380D01*
X157967261Y-78592619D02*
X157919642Y-78545000D01*
X157824404Y-78497380D01*
X157586309Y-78497380D01*
X157491071Y-78545000D01*
X157443452Y-78592619D01*
X157395833Y-78687857D01*
X157395833Y-78783095D01*
X157443452Y-78925952D01*
X158014880Y-79497380D01*
X157395833Y-79497380D01*
X156776785Y-78497380D02*
X156681547Y-78497380D01*
X156586309Y-78545000D01*
X156538690Y-78592619D01*
X156491071Y-78687857D01*
X156443452Y-78878333D01*
X156443452Y-79116428D01*
X156491071Y-79306904D01*
X156538690Y-79402142D01*
X156586309Y-79449761D01*
X156681547Y-79497380D01*
X156776785Y-79497380D01*
X156872023Y-79449761D01*
X156919642Y-79402142D01*
X156967261Y-79306904D01*
X157014880Y-79116428D01*
X157014880Y-78878333D01*
X156967261Y-78687857D01*
X156919642Y-78592619D01*
X156872023Y-78545000D01*
X156776785Y-78497380D01*
X156014880Y-79116428D02*
X155252976Y-79116428D01*
X154586309Y-78497380D02*
X154491071Y-78497380D01*
X154395833Y-78545000D01*
X154348214Y-78592619D01*
X154300595Y-78687857D01*
X154252976Y-78878333D01*
X154252976Y-79116428D01*
X154300595Y-79306904D01*
X154348214Y-79402142D01*
X154395833Y-79449761D01*
X154491071Y-79497380D01*
X154586309Y-79497380D01*
X154681547Y-79449761D01*
X154729166Y-79402142D01*
X154776785Y-79306904D01*
X154824404Y-79116428D01*
X154824404Y-78878333D01*
X154776785Y-78687857D01*
X154729166Y-78592619D01*
X154681547Y-78545000D01*
X154586309Y-78497380D01*
X153776785Y-79497380D02*
X153586309Y-79497380D01*
X153491071Y-79449761D01*
X153443452Y-79402142D01*
X153348214Y-79259285D01*
X153300595Y-79068809D01*
X153300595Y-78687857D01*
X153348214Y-78592619D01*
X153395833Y-78545000D01*
X153491071Y-78497380D01*
X153681547Y-78497380D01*
X153776785Y-78545000D01*
X153824404Y-78592619D01*
X153872023Y-78687857D01*
X153872023Y-78925952D01*
X153824404Y-79021190D01*
X153776785Y-79068809D01*
X153681547Y-79116428D01*
X153491071Y-79116428D01*
X153395833Y-79068809D01*
X153348214Y-79021190D01*
X153300595Y-78925952D01*
X152872023Y-79116428D02*
X152110119Y-79116428D01*
X151110119Y-79497380D02*
X151681547Y-79497380D01*
X151395833Y-79497380D02*
X151395833Y-78497380D01*
X151491071Y-78640238D01*
X151586309Y-78735476D01*
X151681547Y-78783095D01*
X150776785Y-78497380D02*
X150157738Y-78497380D01*
X150491071Y-78878333D01*
X150348214Y-78878333D01*
X150252976Y-78925952D01*
X150205357Y-78973571D01*
X150157738Y-79068809D01*
X150157738Y-79306904D01*
X150205357Y-79402142D01*
X150252976Y-79449761D01*
X150348214Y-79497380D01*
X150633928Y-79497380D01*
X150729166Y-79449761D01*
X150776785Y-79402142D01*
X149681547Y-79449761D02*
X149681547Y-79497380D01*
X149729166Y-79592619D01*
X149776785Y-79640238D01*
X147919642Y-79497380D02*
X148252976Y-79021190D01*
X148491071Y-79497380D02*
X148491071Y-78497380D01*
X148110119Y-78497380D01*
X148014880Y-78545000D01*
X147967261Y-78592619D01*
X147919642Y-78687857D01*
X147919642Y-78830714D01*
X147967261Y-78925952D01*
X148014880Y-78973571D01*
X148110119Y-79021190D01*
X148491071Y-79021190D01*
X147110119Y-79449761D02*
X147205357Y-79497380D01*
X147395833Y-79497380D01*
X147491071Y-79449761D01*
X147538690Y-79354523D01*
X147538690Y-78973571D01*
X147491071Y-78878333D01*
X147395833Y-78830714D01*
X147205357Y-78830714D01*
X147110119Y-78878333D01*
X147062500Y-78973571D01*
X147062500Y-79068809D01*
X147538690Y-79164047D01*
X146729166Y-78830714D02*
X146491071Y-79497380D01*
X146252976Y-78830714D01*
X145872023Y-79402142D02*
X145824404Y-79449761D01*
X145872023Y-79497380D01*
X145919642Y-79449761D01*
X145872023Y-79402142D01*
X145872023Y-79497380D01*
X144681547Y-78592619D02*
X144633928Y-78545000D01*
X144538690Y-78497380D01*
X144300595Y-78497380D01*
X144205357Y-78545000D01*
X144157738Y-78592619D01*
X144110119Y-78687857D01*
X144110119Y-78783095D01*
X144157738Y-78925952D01*
X144729166Y-79497380D01*
X144110119Y-79497380D01*
X159538690Y-81528333D02*
X159586309Y-81480714D01*
X159681547Y-81337857D01*
X159729166Y-81242619D01*
X159776785Y-81099761D01*
X159824404Y-80861666D01*
X159824404Y-80671190D01*
X159776785Y-80433095D01*
X159729166Y-80290238D01*
X159681547Y-80195000D01*
X159586309Y-80052142D01*
X159538690Y-80004523D01*
X158729166Y-81099761D02*
X158824404Y-81147380D01*
X159014880Y-81147380D01*
X159110119Y-81099761D01*
X159157738Y-81052142D01*
X159205357Y-80956904D01*
X159205357Y-80671190D01*
X159157738Y-80575952D01*
X159110119Y-80528333D01*
X159014880Y-80480714D01*
X158824404Y-80480714D01*
X158729166Y-80528333D01*
X158395833Y-81528333D02*
X158348214Y-81480714D01*
X158252976Y-81337857D01*
X158205357Y-81242619D01*
X158157738Y-81099761D01*
X158110119Y-80861666D01*
X158110119Y-80671190D01*
X158157738Y-80433095D01*
X158205357Y-80290238D01*
X158252976Y-80195000D01*
X158348214Y-80052142D01*
X158395833Y-80004523D01*
X157014880Y-80147380D02*
X156443452Y-80147380D01*
X156729166Y-81147380D02*
X156729166Y-80147380D01*
X155967261Y-81147380D02*
X156062500Y-81099761D01*
X156110119Y-81052142D01*
X156157738Y-80956904D01*
X156157738Y-80671190D01*
X156110119Y-80575952D01*
X156062500Y-80528333D01*
X155967261Y-80480714D01*
X155824404Y-80480714D01*
X155729166Y-80528333D01*
X155681547Y-80575952D01*
X155633928Y-80671190D01*
X155633928Y-80956904D01*
X155681547Y-81052142D01*
X155729166Y-81099761D01*
X155824404Y-81147380D01*
X155967261Y-81147380D01*
X155205357Y-81147380D02*
X155205357Y-80147380D01*
X155205357Y-80528333D02*
X155110119Y-80480714D01*
X154919642Y-80480714D01*
X154824404Y-80528333D01*
X154776785Y-80575952D01*
X154729166Y-80671190D01*
X154729166Y-80956904D01*
X154776785Y-81052142D01*
X154824404Y-81099761D01*
X154919642Y-81147380D01*
X155110119Y-81147380D01*
X155205357Y-81099761D01*
X154300595Y-81147380D02*
X154300595Y-80480714D01*
X154300595Y-80147380D02*
X154348214Y-80195000D01*
X154300595Y-80242619D01*
X154252976Y-80195000D01*
X154300595Y-80147380D01*
X154300595Y-80242619D01*
X153395833Y-81147380D02*
X153395833Y-80623571D01*
X153443452Y-80528333D01*
X153538690Y-80480714D01*
X153729166Y-80480714D01*
X153824404Y-80528333D01*
X153395833Y-81099761D02*
X153491071Y-81147380D01*
X153729166Y-81147380D01*
X153824404Y-81099761D01*
X153872023Y-81004523D01*
X153872023Y-80909285D01*
X153824404Y-80814047D01*
X153729166Y-80766428D01*
X153491071Y-80766428D01*
X153395833Y-80718809D01*
X152967261Y-81099761D02*
X152872023Y-81147380D01*
X152681547Y-81147380D01*
X152586309Y-81099761D01*
X152538690Y-81004523D01*
X152538690Y-80956904D01*
X152586309Y-80861666D01*
X152681547Y-80814047D01*
X152824404Y-80814047D01*
X152919642Y-80766428D01*
X152967261Y-80671190D01*
X152967261Y-80623571D01*
X152919642Y-80528333D01*
X152824404Y-80480714D01*
X152681547Y-80480714D01*
X152586309Y-80528333D01*
X151348214Y-81147380D02*
X151348214Y-80147380D01*
X151014880Y-80861666D01*
X150681547Y-80147380D01*
X150681547Y-81147380D01*
X149776785Y-80480714D02*
X149776785Y-81147380D01*
X150205357Y-80480714D02*
X150205357Y-81004523D01*
X150157738Y-81099761D01*
X150062500Y-81147380D01*
X149919642Y-81147380D01*
X149824404Y-81099761D01*
X149776785Y-81052142D01*
X150157738Y-80147380D02*
X150110119Y-80195000D01*
X150157738Y-80242619D01*
X150205357Y-80195000D01*
X150157738Y-80147380D01*
X150157738Y-80242619D01*
X149776785Y-80147380D02*
X149729166Y-80195000D01*
X149776785Y-80242619D01*
X149824404Y-80195000D01*
X149776785Y-80147380D01*
X149776785Y-80242619D01*
X149157738Y-81147380D02*
X149252976Y-81099761D01*
X149300595Y-81004523D01*
X149300595Y-80147380D01*
X148633928Y-81147380D02*
X148729166Y-81099761D01*
X148776785Y-81004523D01*
X148776785Y-80147380D01*
X147872023Y-81099761D02*
X147967261Y-81147380D01*
X148157738Y-81147380D01*
X148252976Y-81099761D01*
X148300595Y-81004523D01*
X148300595Y-80623571D01*
X148252976Y-80528333D01*
X148157738Y-80480714D01*
X147967261Y-80480714D01*
X147872023Y-80528333D01*
X147824404Y-80623571D01*
X147824404Y-80718809D01*
X148300595Y-80814047D01*
X147395833Y-81147380D02*
X147395833Y-80480714D01*
X147395833Y-80671190D02*
X147348214Y-80575952D01*
X147300595Y-80528333D01*
X147205357Y-80480714D01*
X147110119Y-80480714D01*
X146729166Y-81099761D02*
X146729166Y-81147380D01*
X146776785Y-81242619D01*
X146824404Y-81290238D01*
X145205357Y-80623571D02*
X145538690Y-80623571D01*
X145538690Y-81147380D02*
X145538690Y-80147380D01*
X145062500Y-80147380D01*
X144252976Y-81147380D02*
X144252976Y-80623571D01*
X144300595Y-80528333D01*
X144395833Y-80480714D01*
X144586309Y-80480714D01*
X144681547Y-80528333D01*
X144252976Y-81099761D02*
X144348214Y-81147380D01*
X144586309Y-81147380D01*
X144681547Y-81099761D01*
X144729166Y-81004523D01*
X144729166Y-80909285D01*
X144681547Y-80814047D01*
X144586309Y-80766428D01*
X144348214Y-80766428D01*
X144252976Y-80718809D01*
X143776785Y-81147380D02*
X143776785Y-80147380D01*
X143776785Y-80528333D02*
X143681547Y-80480714D01*
X143491071Y-80480714D01*
X143395833Y-80528333D01*
X143348214Y-80575952D01*
X143300595Y-80671190D01*
X143300595Y-80956904D01*
X143348214Y-81052142D01*
X143395833Y-81099761D01*
X143491071Y-81147380D01*
X143681547Y-81147380D01*
X143776785Y-81099761D01*
X142872023Y-81147380D02*
X142872023Y-80480714D01*
X142872023Y-80147380D02*
X142919642Y-80195000D01*
X142872023Y-80242619D01*
X142824404Y-80195000D01*
X142872023Y-80147380D01*
X142872023Y-80242619D01*
X141967261Y-81147380D02*
X141967261Y-80623571D01*
X142014880Y-80528333D01*
X142110119Y-80480714D01*
X142300595Y-80480714D01*
X142395833Y-80528333D01*
X141967261Y-81099761D02*
X142062500Y-81147380D01*
X142300595Y-81147380D01*
X142395833Y-81099761D01*
X142443452Y-81004523D01*
X142443452Y-80909285D01*
X142395833Y-80814047D01*
X142300595Y-80766428D01*
X142062500Y-80766428D01*
X141967261Y-80718809D01*
X141491071Y-80480714D02*
X141491071Y-81147380D01*
X141491071Y-80575952D02*
X141443452Y-80528333D01*
X141348214Y-80480714D01*
X141205357Y-80480714D01*
X141110119Y-80528333D01*
X141062500Y-80623571D01*
X141062500Y-81147380D01*
X139872023Y-80861666D02*
X139395833Y-80861666D01*
X139967261Y-81147380D02*
X139633928Y-80147380D01*
X139300595Y-81147380D01*
X138967261Y-81147380D02*
X138967261Y-80480714D01*
X138967261Y-80575952D02*
X138919642Y-80528333D01*
X138824404Y-80480714D01*
X138681547Y-80480714D01*
X138586309Y-80528333D01*
X138538690Y-80623571D01*
X138538690Y-81147380D01*
X138538690Y-80623571D02*
X138491071Y-80528333D01*
X138395833Y-80480714D01*
X138252976Y-80480714D01*
X138157738Y-80528333D01*
X138110119Y-80623571D01*
X138110119Y-81147380D01*
X137205357Y-81147380D02*
X137205357Y-80623571D01*
X137252976Y-80528333D01*
X137348214Y-80480714D01*
X137538690Y-80480714D01*
X137633928Y-80528333D01*
X137205357Y-81099761D02*
X137300595Y-81147380D01*
X137538690Y-81147380D01*
X137633928Y-81099761D01*
X137681547Y-81004523D01*
X137681547Y-80909285D01*
X137633928Y-80814047D01*
X137538690Y-80766428D01*
X137300595Y-80766428D01*
X137205357Y-80718809D01*
X136729166Y-80480714D02*
X136729166Y-81147380D01*
X136729166Y-80575952D02*
X136681547Y-80528333D01*
X136586309Y-80480714D01*
X136443452Y-80480714D01*
X136348214Y-80528333D01*
X136300595Y-80623571D01*
X136300595Y-81147380D01*
X135824404Y-80480714D02*
X135824404Y-81147380D01*
X135824404Y-80575952D02*
X135776785Y-80528333D01*
X135681547Y-80480714D01*
X135538690Y-80480714D01*
X135443452Y-80528333D01*
X135395833Y-80623571D01*
X135395833Y-81147380D01*
D11*
X138000000Y-118000000D02*
X136000000Y-120000000D01*
D10*
X169452380Y-118811785D02*
X169452380Y-118335595D01*
X169928571Y-118287976D01*
X169880952Y-118335595D01*
X169833333Y-118430833D01*
X169833333Y-118668928D01*
X169880952Y-118764166D01*
X169928571Y-118811785D01*
X170023809Y-118859404D01*
X170261904Y-118859404D01*
X170357142Y-118811785D01*
X170404761Y-118764166D01*
X170452380Y-118668928D01*
X170452380Y-118430833D01*
X170404761Y-118335595D01*
X170357142Y-118287976D01*
X169452380Y-119145119D02*
X170452380Y-119478452D01*
X169452380Y-119811785D01*
X166452380Y-118811785D02*
X166452380Y-118335595D01*
X165452380Y-118335595D01*
X165928571Y-119145119D02*
X165928571Y-119478452D01*
X166452380Y-119621309D02*
X166452380Y-119145119D01*
X165452380Y-119145119D01*
X165452380Y-119621309D01*
X166452380Y-120049880D02*
X165452380Y-120049880D01*
X165452380Y-120287976D01*
X165500000Y-120430833D01*
X165595238Y-120526071D01*
X165690476Y-120573690D01*
X165880952Y-120621309D01*
X166023809Y-120621309D01*
X166214285Y-120573690D01*
X166309523Y-120526071D01*
X166404761Y-120430833D01*
X166452380Y-120287976D01*
X166452380Y-120049880D01*
X165547619Y-121002261D02*
X165500000Y-121049880D01*
X165452380Y-121145119D01*
X165452380Y-121383214D01*
X165500000Y-121478452D01*
X165547619Y-121526071D01*
X165642857Y-121573690D01*
X165738095Y-121573690D01*
X165880952Y-121526071D01*
X166452380Y-120954642D01*
X166452380Y-121573690D01*
X166547619Y-121764166D02*
X166547619Y-122526071D01*
X166452380Y-122764166D02*
X165452380Y-122764166D01*
X165452380Y-123002261D01*
X165500000Y-123145119D01*
X165595238Y-123240357D01*
X165690476Y-123287976D01*
X165880952Y-123335595D01*
X166023809Y-123335595D01*
X166214285Y-123287976D01*
X166309523Y-123240357D01*
X166404761Y-123145119D01*
X166452380Y-123002261D01*
X166452380Y-122764166D01*
X166166666Y-123716547D02*
X166166666Y-124192738D01*
X166452380Y-123621309D02*
X165452380Y-123954642D01*
X166452380Y-124287976D01*
X165452380Y-124478452D02*
X165452380Y-125049880D01*
X166452380Y-124764166D02*
X165452380Y-124764166D01*
X166166666Y-125335595D02*
X166166666Y-125811785D01*
X166452380Y-125240357D02*
X165452380Y-125573690D01*
X166452380Y-125907023D01*
X162452380Y-118811785D02*
X162452380Y-118335595D01*
X161452380Y-118335595D01*
X161928571Y-119145119D02*
X161928571Y-119478452D01*
X162452380Y-119621309D02*
X162452380Y-119145119D01*
X161452380Y-119145119D01*
X161452380Y-119621309D01*
X162452380Y-120049880D02*
X161452380Y-120049880D01*
X161452380Y-120287976D01*
X161500000Y-120430833D01*
X161595238Y-120526071D01*
X161690476Y-120573690D01*
X161880952Y-120621309D01*
X162023809Y-120621309D01*
X162214285Y-120573690D01*
X162309523Y-120526071D01*
X162404761Y-120430833D01*
X162452380Y-120287976D01*
X162452380Y-120049880D01*
X161547619Y-121002261D02*
X161500000Y-121049880D01*
X161452380Y-121145119D01*
X161452380Y-121383214D01*
X161500000Y-121478452D01*
X161547619Y-121526071D01*
X161642857Y-121573690D01*
X161738095Y-121573690D01*
X161880952Y-121526071D01*
X162452380Y-120954642D01*
X162452380Y-121573690D01*
X162547619Y-121764166D02*
X162547619Y-122526071D01*
X162357142Y-123335595D02*
X162404761Y-123287976D01*
X162452380Y-123145119D01*
X162452380Y-123049880D01*
X162404761Y-122907023D01*
X162309523Y-122811785D01*
X162214285Y-122764166D01*
X162023809Y-122716547D01*
X161880952Y-122716547D01*
X161690476Y-122764166D01*
X161595238Y-122811785D01*
X161500000Y-122907023D01*
X161452380Y-123049880D01*
X161452380Y-123145119D01*
X161500000Y-123287976D01*
X161547619Y-123335595D01*
X162452380Y-124240357D02*
X162452380Y-123764166D01*
X161452380Y-123764166D01*
X162452380Y-124573690D02*
X161452380Y-124573690D01*
X162452380Y-125145119D02*
X161880952Y-124716547D01*
X161452380Y-125145119D02*
X162023809Y-124573690D01*
X157500000Y-118859404D02*
X157452380Y-118764166D01*
X157452380Y-118621309D01*
X157500000Y-118478452D01*
X157595238Y-118383214D01*
X157690476Y-118335595D01*
X157880952Y-118287976D01*
X158023809Y-118287976D01*
X158214285Y-118335595D01*
X158309523Y-118383214D01*
X158404761Y-118478452D01*
X158452380Y-118621309D01*
X158452380Y-118716547D01*
X158404761Y-118859404D01*
X158357142Y-118907023D01*
X158023809Y-118907023D01*
X158023809Y-118716547D01*
X158452380Y-119335595D02*
X157452380Y-119335595D01*
X158452380Y-119907023D01*
X157452380Y-119907023D01*
X158452380Y-120383214D02*
X157452380Y-120383214D01*
X157452380Y-120621309D01*
X157500000Y-120764166D01*
X157595238Y-120859404D01*
X157690476Y-120907023D01*
X157880952Y-120954642D01*
X158023809Y-120954642D01*
X158214285Y-120907023D01*
X158309523Y-120859404D01*
X158404761Y-120764166D01*
X158452380Y-120621309D01*
X158452380Y-120383214D01*
X136452380Y-121311785D02*
X136452380Y-120835595D01*
X135452380Y-120835595D01*
X135928571Y-121645119D02*
X135928571Y-121978452D01*
X136452380Y-122121309D02*
X136452380Y-121645119D01*
X135452380Y-121645119D01*
X135452380Y-122121309D01*
X136452380Y-122549880D02*
X135452380Y-122549880D01*
X135452380Y-122787976D01*
X135500000Y-122930833D01*
X135595238Y-123026071D01*
X135690476Y-123073690D01*
X135880952Y-123121309D01*
X136023809Y-123121309D01*
X136214285Y-123073690D01*
X136309523Y-123026071D01*
X136404761Y-122930833D01*
X136452380Y-122787976D01*
X136452380Y-122549880D01*
X136452380Y-124073690D02*
X136452380Y-123502261D01*
X136452380Y-123787976D02*
X135452380Y-123787976D01*
X135595238Y-123692738D01*
X135690476Y-123597500D01*
X135738095Y-123502261D01*
X136547619Y-124264166D02*
X136547619Y-125026071D01*
X136452380Y-125264166D02*
X135452380Y-125264166D01*
X135452380Y-125502261D01*
X135500000Y-125645119D01*
X135595238Y-125740357D01*
X135690476Y-125787976D01*
X135880952Y-125835595D01*
X136023809Y-125835595D01*
X136214285Y-125787976D01*
X136309523Y-125740357D01*
X136404761Y-125645119D01*
X136452380Y-125502261D01*
X136452380Y-125264166D01*
X136166666Y-126216547D02*
X136166666Y-126692738D01*
X136452380Y-126121309D02*
X135452380Y-126454642D01*
X136452380Y-126787976D01*
X135452380Y-126978452D02*
X135452380Y-127549880D01*
X136452380Y-127264166D02*
X135452380Y-127264166D01*
X136166666Y-127835595D02*
X136166666Y-128311785D01*
X136452380Y-127740357D02*
X135452380Y-128073690D01*
X136452380Y-128407023D01*
X141500000Y-118859404D02*
X141452380Y-118764166D01*
X141452380Y-118621309D01*
X141500000Y-118478452D01*
X141595238Y-118383214D01*
X141690476Y-118335595D01*
X141880952Y-118287976D01*
X142023809Y-118287976D01*
X142214285Y-118335595D01*
X142309523Y-118383214D01*
X142404761Y-118478452D01*
X142452380Y-118621309D01*
X142452380Y-118716547D01*
X142404761Y-118859404D01*
X142357142Y-118907023D01*
X142023809Y-118907023D01*
X142023809Y-118716547D01*
X142452380Y-119335595D02*
X141452380Y-119335595D01*
X142452380Y-119907023D01*
X141452380Y-119907023D01*
X142452380Y-120383214D02*
X141452380Y-120383214D01*
X141452380Y-120621309D01*
X141500000Y-120764166D01*
X141595238Y-120859404D01*
X141690476Y-120907023D01*
X141880952Y-120954642D01*
X142023809Y-120954642D01*
X142214285Y-120907023D01*
X142309523Y-120859404D01*
X142404761Y-120764166D01*
X142452380Y-120621309D01*
X142452380Y-120383214D01*
X134452380Y-118811785D02*
X134452380Y-118335595D01*
X133452380Y-118335595D01*
X133928571Y-119145119D02*
X133928571Y-119478452D01*
X134452380Y-119621309D02*
X134452380Y-119145119D01*
X133452380Y-119145119D01*
X133452380Y-119621309D01*
X134452380Y-120049880D02*
X133452380Y-120049880D01*
X133452380Y-120287976D01*
X133500000Y-120430833D01*
X133595238Y-120526071D01*
X133690476Y-120573690D01*
X133880952Y-120621309D01*
X134023809Y-120621309D01*
X134214285Y-120573690D01*
X134309523Y-120526071D01*
X134404761Y-120430833D01*
X134452380Y-120287976D01*
X134452380Y-120049880D01*
X134452380Y-121573690D02*
X134452380Y-121002261D01*
X134452380Y-121287976D02*
X133452380Y-121287976D01*
X133595238Y-121192738D01*
X133690476Y-121097500D01*
X133738095Y-121002261D01*
X134547619Y-121764166D02*
X134547619Y-122526071D01*
X134357142Y-123335595D02*
X134404761Y-123287976D01*
X134452380Y-123145119D01*
X134452380Y-123049880D01*
X134404761Y-122907023D01*
X134309523Y-122811785D01*
X134214285Y-122764166D01*
X134023809Y-122716547D01*
X133880952Y-122716547D01*
X133690476Y-122764166D01*
X133595238Y-122811785D01*
X133500000Y-122907023D01*
X133452380Y-123049880D01*
X133452380Y-123145119D01*
X133500000Y-123287976D01*
X133547619Y-123335595D01*
X134452380Y-124240357D02*
X134452380Y-123764166D01*
X133452380Y-123764166D01*
X134452380Y-124573690D02*
X133452380Y-124573690D01*
X134452380Y-125145119D02*
X133880952Y-124716547D01*
X133452380Y-125145119D02*
X134023809Y-124573690D01*
X129452380Y-118811785D02*
X129452380Y-118335595D01*
X129928571Y-118287976D01*
X129880952Y-118335595D01*
X129833333Y-118430833D01*
X129833333Y-118668928D01*
X129880952Y-118764166D01*
X129928571Y-118811785D01*
X130023809Y-118859404D01*
X130261904Y-118859404D01*
X130357142Y-118811785D01*
X130404761Y-118764166D01*
X130452380Y-118668928D01*
X130452380Y-118430833D01*
X130404761Y-118335595D01*
X130357142Y-118287976D01*
X129452380Y-119145119D02*
X130452380Y-119478452D01*
X129452380Y-119811785D01*
X149544761Y-104728809D02*
X149592380Y-104871666D01*
X149592380Y-105109761D01*
X149544761Y-105205000D01*
X149497142Y-105252619D01*
X149401904Y-105300238D01*
X149306666Y-105300238D01*
X149211428Y-105252619D01*
X149163809Y-105205000D01*
X149116190Y-105109761D01*
X149068571Y-104919285D01*
X149020952Y-104824047D01*
X148973333Y-104776428D01*
X148878095Y-104728809D01*
X148782857Y-104728809D01*
X148687619Y-104776428D01*
X148640000Y-104824047D01*
X148592380Y-104919285D01*
X148592380Y-105157380D01*
X148640000Y-105300238D01*
X149068571Y-105728809D02*
X149068571Y-106062142D01*
X149592380Y-106205000D02*
X149592380Y-105728809D01*
X148592380Y-105728809D01*
X148592380Y-106205000D01*
X149592380Y-107109761D02*
X149592380Y-106633571D01*
X148592380Y-106633571D01*
X147052380Y-104157380D02*
X146052380Y-104157380D01*
X146052380Y-104538333D01*
X146100000Y-104633571D01*
X146147619Y-104681190D01*
X146242857Y-104728809D01*
X146385714Y-104728809D01*
X146480952Y-104681190D01*
X146528571Y-104633571D01*
X146576190Y-104538333D01*
X146576190Y-104157380D01*
X146052380Y-105062142D02*
X147052380Y-105300238D01*
X146338095Y-105490714D01*
X147052380Y-105681190D01*
X146052380Y-105919285D01*
X147052380Y-106300238D02*
X146052380Y-106300238D01*
X146766666Y-106633571D01*
X146052380Y-106966904D01*
X147052380Y-106966904D01*
X144512380Y-105157380D02*
X144036190Y-104824047D01*
X144512380Y-104585952D02*
X143512380Y-104585952D01*
X143512380Y-104966904D01*
X143560000Y-105062142D01*
X143607619Y-105109761D01*
X143702857Y-105157380D01*
X143845714Y-105157380D01*
X143940952Y-105109761D01*
X143988571Y-105062142D01*
X144036190Y-104966904D01*
X144036190Y-104585952D01*
X144512380Y-105585952D02*
X143512380Y-105585952D01*
X143512380Y-105824047D01*
X143560000Y-105966904D01*
X143655238Y-106062142D01*
X143750476Y-106109761D01*
X143940952Y-106157380D01*
X144083809Y-106157380D01*
X144274285Y-106109761D01*
X144369523Y-106062142D01*
X144464761Y-105966904D01*
X144512380Y-105824047D01*
X144512380Y-105585952D01*
X144036190Y-106776428D02*
X144512380Y-106776428D01*
X143512380Y-106443095D02*
X144036190Y-106776428D01*
X143512380Y-107109761D01*
X141924761Y-104585952D02*
X141972380Y-104728809D01*
X141972380Y-104966904D01*
X141924761Y-105062142D01*
X141877142Y-105109761D01*
X141781904Y-105157380D01*
X141686666Y-105157380D01*
X141591428Y-105109761D01*
X141543809Y-105062142D01*
X141496190Y-104966904D01*
X141448571Y-104776428D01*
X141400952Y-104681190D01*
X141353333Y-104633571D01*
X141258095Y-104585952D01*
X141162857Y-104585952D01*
X141067619Y-104633571D01*
X141020000Y-104681190D01*
X140972380Y-104776428D01*
X140972380Y-105014523D01*
X141020000Y-105157380D01*
X141972380Y-105585952D02*
X140972380Y-105585952D01*
X140972380Y-105824047D01*
X141020000Y-105966904D01*
X141115238Y-106062142D01*
X141210476Y-106109761D01*
X141400952Y-106157380D01*
X141543809Y-106157380D01*
X141734285Y-106109761D01*
X141829523Y-106062142D01*
X141924761Y-105966904D01*
X141972380Y-105824047D01*
X141972380Y-105585952D01*
X141686666Y-106538333D02*
X141686666Y-107014523D01*
X141972380Y-106443095D02*
X140972380Y-106776428D01*
X141972380Y-107109761D01*
X139384761Y-110765476D02*
X139432380Y-110908333D01*
X139432380Y-111146428D01*
X139384761Y-111241666D01*
X139337142Y-111289285D01*
X139241904Y-111336904D01*
X139146666Y-111336904D01*
X139051428Y-111289285D01*
X139003809Y-111241666D01*
X138956190Y-111146428D01*
X138908571Y-110955952D01*
X138860952Y-110860714D01*
X138813333Y-110813095D01*
X138718095Y-110765476D01*
X138622857Y-110765476D01*
X138527619Y-110813095D01*
X138480000Y-110860714D01*
X138432380Y-110955952D01*
X138432380Y-111194047D01*
X138480000Y-111336904D01*
X139337142Y-112336904D02*
X139384761Y-112289285D01*
X139432380Y-112146428D01*
X139432380Y-112051190D01*
X139384761Y-111908333D01*
X139289523Y-111813095D01*
X139194285Y-111765476D01*
X139003809Y-111717857D01*
X138860952Y-111717857D01*
X138670476Y-111765476D01*
X138575238Y-111813095D01*
X138480000Y-111908333D01*
X138432380Y-112051190D01*
X138432380Y-112146428D01*
X138480000Y-112289285D01*
X138527619Y-112336904D01*
X139432380Y-113241666D02*
X139432380Y-112765476D01*
X138432380Y-112765476D01*
X135940000Y-111336904D02*
X135892380Y-111241666D01*
X135892380Y-111098809D01*
X135940000Y-110955952D01*
X136035238Y-110860714D01*
X136130476Y-110813095D01*
X136320952Y-110765476D01*
X136463809Y-110765476D01*
X136654285Y-110813095D01*
X136749523Y-110860714D01*
X136844761Y-110955952D01*
X136892380Y-111098809D01*
X136892380Y-111194047D01*
X136844761Y-111336904D01*
X136797142Y-111384523D01*
X136463809Y-111384523D01*
X136463809Y-111194047D01*
X136892380Y-111813095D02*
X135892380Y-111813095D01*
X136892380Y-112384523D01*
X135892380Y-112384523D01*
X136892380Y-112860714D02*
X135892380Y-112860714D01*
X135892380Y-113098809D01*
X135940000Y-113241666D01*
X136035238Y-113336904D01*
X136130476Y-113384523D01*
X136320952Y-113432142D01*
X136463809Y-113432142D01*
X136654285Y-113384523D01*
X136749523Y-113336904D01*
X136844761Y-113241666D01*
X136892380Y-113098809D01*
X136892380Y-112860714D01*
X133352380Y-110670238D02*
X134352380Y-111003571D01*
X133352380Y-111336904D01*
X134352380Y-111670238D02*
X133352380Y-111670238D01*
X133352380Y-111908333D01*
X133400000Y-112051190D01*
X133495238Y-112146428D01*
X133590476Y-112194047D01*
X133780952Y-112241666D01*
X133923809Y-112241666D01*
X134114285Y-112194047D01*
X134209523Y-112146428D01*
X134304761Y-112051190D01*
X134352380Y-111908333D01*
X134352380Y-111670238D01*
X134352380Y-112670238D02*
X133352380Y-112670238D01*
X133352380Y-112908333D01*
X133400000Y-113051190D01*
X133495238Y-113146428D01*
X133590476Y-113194047D01*
X133780952Y-113241666D01*
X133923809Y-113241666D01*
X134114285Y-113194047D01*
X134209523Y-113146428D01*
X134304761Y-113051190D01*
X134352380Y-112908333D01*
X134352380Y-112670238D01*
D12*
%TO.C,TP8*%
X156550000Y-117450000D02*
X159450000Y-117450000D01*
X159450000Y-117450000D02*
X159450000Y-114550000D01*
X159450000Y-114550000D02*
X156550000Y-114550000D01*
X156550000Y-114550000D02*
X156550000Y-117450000D01*
%TO.C,TP7*%
X140550000Y-117450000D02*
X143450000Y-117450000D01*
X143450000Y-117450000D02*
X143450000Y-114550000D01*
X143450000Y-114550000D02*
X140550000Y-114550000D01*
X140550000Y-114550000D02*
X140550000Y-117450000D01*
%TO.C,TP6*%
X164550000Y-117450000D02*
X167450000Y-117450000D01*
X167450000Y-117450000D02*
X167450000Y-114550000D01*
X167450000Y-114550000D02*
X164550000Y-114550000D01*
X164550000Y-114550000D02*
X164550000Y-117450000D01*
%TO.C,TP5*%
X160550000Y-117450000D02*
X163450000Y-117450000D01*
X163450000Y-117450000D02*
X163450000Y-114550000D01*
X163450000Y-114550000D02*
X160550000Y-114550000D01*
X160550000Y-114550000D02*
X160550000Y-117450000D01*
%TO.C,TP4*%
X136550000Y-117450000D02*
X139450000Y-117450000D01*
X139450000Y-117450000D02*
X139450000Y-114550000D01*
X139450000Y-114550000D02*
X136550000Y-114550000D01*
X136550000Y-114550000D02*
X136550000Y-117450000D01*
%TO.C,TP3*%
X132550000Y-117450000D02*
X135450000Y-117450000D01*
X135450000Y-117450000D02*
X135450000Y-114550000D01*
X135450000Y-114550000D02*
X132550000Y-114550000D01*
X132550000Y-114550000D02*
X132550000Y-117450000D01*
%TO.C,TP2*%
X168550000Y-117450000D02*
X171450000Y-117450000D01*
X171450000Y-117450000D02*
X171450000Y-114550000D01*
X171450000Y-114550000D02*
X168550000Y-114550000D01*
X168550000Y-114550000D02*
X168550000Y-117450000D01*
%TO.C,TP1*%
X128550000Y-117450000D02*
X131450000Y-117450000D01*
X131450000Y-117450000D02*
X131450000Y-114550000D01*
X131450000Y-114550000D02*
X128550000Y-114550000D01*
X128550000Y-114550000D02*
X128550000Y-117450000D01*
%TO.C,J2*%
X132500000Y-110290000D02*
X132500000Y-87290000D01*
X132500000Y-110290000D02*
X167500000Y-110290000D01*
X132500000Y-87290000D02*
X167500000Y-87290000D01*
X167500000Y-110290000D02*
X167500000Y-87290000D01*
D10*
X135503333Y-88022380D02*
X135503333Y-88736666D01*
X135550952Y-88879523D01*
X135646190Y-88974761D01*
X135789047Y-89022380D01*
X135884285Y-89022380D01*
X135074761Y-88117619D02*
X135027142Y-88070000D01*
X134931904Y-88022380D01*
X134693809Y-88022380D01*
X134598571Y-88070000D01*
X134550952Y-88117619D01*
X134503333Y-88212857D01*
X134503333Y-88308095D01*
X134550952Y-88450952D01*
X135122380Y-89022380D01*
X134503333Y-89022380D01*
%TD*%
M02*
